SeanSlab-NarrowMedium.ufo
<glyph name="exclam" format="1">
  <advance width="255"/>
  <unicode hex="0021"/>
  <outline>
    <contour>
      <point x="170" y="229" type="line"/>
      <point x="179" y="722" type="line"/>
      <point x="78" y="722" type="line"/>
      <point x="86" y="229" type="line"/>
    </contour>
    <contour>
      <point x="179" y="39" type="curve"/>
      <point x="179" y="70"/>
      <point x="157" y="86"/>
      <point x="127" y="86" type="curve"/>
      <point x="97" y="86"/>
      <point x="78" y="69"/>
      <point x="78" y="39" type="curve"/>
      <point x="176" y="39"/>
      <point x="81" y="39"/>
      <point x="179" y="39" type="curve"/>
      <point x="179" y="7"/>
      <point x="158" y="-7"/>
      <point x="127" y="-7" type="curve"/>
      <point x="97" y="-7"/>
      <point x="78" y="8"/>
      <point x="78" y="39" type="curve"/>
      <point x="176" y="39"/>
      <point x="81" y="39"/>
    </contour>
  </outline>
</glyph>
<glyph name="quotedbl" format="1">
  <advance width="419"/>
  <unicode hex="0022"/>
  <outline>
    <contour>
      <point x="160" y="597" type="line"/>
      <point x="167" y="803" type="line"/>
      <point x="71" y="803" type="line"/>
      <point x="78" y="597" type="line"/>
    </contour>
    <contour>
      <point x="341" y="597" type="line"/>
      <point x="348" y="803" type="line"/>
      <point x="252" y="803" type="line"/>
      <point x="259" y="597" type="line"/>
    </contour>
  </outline>
</glyph>
<glyph name="numbersign" format="1">
  <advance width="631"/>
  <unicode hex="0023"/>
  <outline>
    <contour>
      <point x="45" y="231" type="curve"/>
      <point x="504" y="231" type="curve"/>
      <point x="524" y="301" type="curve"/>
      <point x="66" y="301" type="curve"/>
    </contour>
    <contour>
      <point x="106" y="458" type="curve"/>
      <point x="566" y="458" type="curve"/>
      <point x="586" y="528" type="curve"/>
      <point x="125" y="528" type="curve"/>
    </contour>
    <contour>
      <point x="387" y="39" type="curve"/>
      <point x="579" y="722" type="curve"/>
      <point x="489" y="722" type="curve"/>
      <point x="297" y="39" type="curve"/>
    </contour>
    <contour>
      <point x="148" y="46" type="curve"/>
      <point x="337" y="722" type="curve"/>
      <point x="248" y="722" type="curve"/>
      <point x="62" y="46" type="curve"/>
    </contour>
  </outline>
</glyph>
<glyph name="dollar" format="1">
  <advance width="536"/>
  <unicode hex="0024"/>
  <outline>
    <contour>
      <point x="133" y="95" type="curve"/>
      <point x="133" y="215"/>
      <point x="133" y="99"/>
      <point x="133" y="219" type="curve"/>
      <point x="62" y="219"/>
      <point x="133" y="219"/>
      <point x="62" y="219" type="curve"/>
      <point x="62" y="99"/>
      <point x="62" y="215"/>
      <point x="62" y="95" type="curve"/>
      <point x="133" y="95"/>
      <point x="62" y="95"/>
    </contour>
    <contour>
      <point x="386" y="634" type="curve"/>
      <point x="386" y="514"/>
      <point x="386" y="629"/>
      <point x="386" y="509" type="curve"/>
      <point x="457" y="509"/>
      <point x="386" y="509"/>
      <point x="457" y="509" type="curve"/>
      <point x="457" y="629"/>
      <point x="457" y="514"/>
      <point x="457" y="634" type="curve"/>
      <point x="386" y="634"/>
      <point x="457" y="634"/>
    </contour>
    <contour>
      <point x="299" y="-42" type="curve"/>
      <point x="299" y="-10"/>
      <point x="299" y="48"/>
      <point x="299" y="80" type="curve"/>
      <point x="209" y="80"/>
      <point x="299" y="80"/>
      <point x="209" y="80" type="curve"/>
      <point x="209" y="48"/>
      <point x="209" y="-10"/>
      <point x="209" y="-42" type="curve"/>
      <point x="299" y="-42"/>
      <point x="209" y="-42"/>
    </contour>
    <contour>
      <point x="309" y="650" type="curve"/>
      <point x="309" y="682"/>
      <point x="309" y="741"/>
      <point x="309" y="773" type="curve"/>
      <point x="220" y="773"/>
      <point x="309" y="773"/>
      <point x="220" y="773" type="curve"/>
      <point x="220" y="741"/>
      <point x="220" y="682"/>
      <point x="220" y="650" type="curve"/>
      <point x="309" y="650"/>
      <point x="220" y="650"/>
    </contour>
    <contour>
      <point x="62" y="95" type="curve"/>
      <point x="114" y="68"/>
      <point x="177" y="45"/>
      <point x="250" y="45" type="curve"/>
      <point x="384" y="45"/>
      <point x="489" y="100"/>
      <point x="489" y="211" type="curve"/>
      <point x="489" y="310"/>
      <point x="396" y="358"/>
      <point x="293" y="406" type="curve"/>
      <point x="220" y="439"/>
      <point x="158" y="465"/>
      <point x="158" y="530" type="curve"/>
      <point x="158" y="584"/>
      <point x="203" y="616"/>
      <point x="267" y="616" type="curve"/>
      <point x="324" y="616"/>
      <point x="364" y="601"/>
      <point x="412" y="575" type="curve"/>
      <point x="457" y="634"/>
      <point x="412" y="575"/>
      <point x="457" y="634" type="curve"/>
      <point x="396" y="667"/>
      <point x="344" y="686"/>
      <point x="271" y="686" type="curve"/>
      <point x="153" y="686"/>
      <point x="68" y="630"/>
      <point x="68" y="530" type="curve"/>
      <point x="68" y="434"/>
      <point x="141" y="387"/>
      <point x="240" y="342" type="curve"/>
      <point x="319" y="308"/>
      <point x="399" y="279"/>
      <point x="399" y="207" type="curve"/>
      <point x="399" y="144"/>
      <point x="337" y="114"/>
      <point x="258" y="114" type="curve"/>
      <point x="200" y="114"/>
      <point x="151" y="137"/>
      <point x="111" y="157" type="curve"/>
      <point x="62" y="95"/>
      <point x="111" y="157"/>
    </contour>
  </outline>
</glyph>
<glyph name="percent" format="1">
  <advance width="1002"/>
  <unicode hex="0025"/>
  <outline>
    <contour>
      <point x="361" y="-62" type="line"/>
      <point x="738" y="730" type="line"/>
      <point x="654" y="730" type="line"/>
      <point x="277" y="-62" type="line"/>
    </contour>
    <contour>
      <point x="118" y="520" type="curve"/>
      <point x="118" y="604"/>
      <point x="144" y="669"/>
      <point x="220" y="669" type="curve"/>
      <point x="297" y="670"/>
      <point x="323" y="605"/>
      <point x="323" y="520" type="curve"/>
      <point x="323" y="436"/>
      <point x="301" y="369"/>
      <point x="225" y="369" type="curve"/>
      <point x="146" y="369"/>
      <point x="118" y="434"/>
      <point x="118" y="520" type="curve"/>
      <point x="88" y="520"/>
      <point x="68" y="520"/>
      <point x="39" y="520" type="curve"/>
      <point x="39" y="393"/>
      <point x="99" y="304"/>
      <point x="221" y="304" type="curve"/>
      <point x="344" y="304"/>
      <point x="406" y="394"/>
      <point x="406" y="523" type="curve"/>
      <point x="406" y="649"/>
      <point x="344" y="734"/>
      <point x="224" y="734" type="curve"/>
      <point x="101" y="734"/>
      <point x="39" y="648"/>
      <point x="39" y="520" type="curve"/>
      <point x="68" y="520"/>
      <point x="88" y="520"/>
    </contour>
    <contour>
      <point x="675" y="151" type="curve"/>
      <point x="675" y="235"/>
      <point x="701" y="299"/>
      <point x="777" y="299" type="curve"/>
      <point x="854" y="300"/>
      <point x="880" y="235"/>
      <point x="880" y="150" type="curve"/>
      <point x="880" y="66"/>
      <point x="858" y="-1"/>
      <point x="782" y="-1" type="curve"/>
      <point x="703" y="-1"/>
      <point x="675" y="65"/>
      <point x="675" y="151" type="curve"/>
      <point x="645" y="151"/>
      <point x="625" y="151"/>
      <point x="596" y="151" type="curve"/>
      <point x="596" y="23"/>
      <point x="656" y="-66"/>
      <point x="778" y="-66" type="curve"/>
      <point x="901" y="-66"/>
      <point x="963" y="24"/>
      <point x="963" y="154" type="curve"/>
      <point x="963" y="280"/>
      <point x="901" y="365"/>
      <point x="781" y="365" type="curve"/>
      <point x="659" y="365"/>
      <point x="596" y="278"/>
      <point x="596" y="151" type="curve"/>
      <point x="625" y="151"/>
      <point x="645" y="151"/>
    </contour>
  </outline>
</glyph>
<glyph name="ampersand" format="1">
  <advance width="640"/>
  <unicode hex="0026"/>
  <outline>
    <contour>
      <point x="617" y="33" type="line"/>
      <point x="523" y="137"/>
      <point x="422" y="258"/>
      <point x="325" y="365" type="curve"/>
      <point x="272" y="427"/>
      <point x="204" y="477"/>
      <point x="204" y="562" type="curve"/>
      <point x="204" y="614"/>
      <point x="228" y="657"/>
      <point x="276" y="657" type="curve"/>
      <point x="328" y="657"/>
      <point x="357" y="619"/>
      <point x="357" y="564" type="curve"/>
      <point x="357" y="486"/>
      <point x="302" y="447"/>
      <point x="235" y="406" type="curve"/>
      <point x="141" y="347"/>
      <point x="58" y="298"/>
      <point x="58" y="190" type="curve"/>
      <point x="58" y="69"/>
      <point x="145" y="-5"/>
      <point x="270" y="-5" type="curve"/>
      <point x="451" y="-5"/>
      <point x="540" y="134"/>
      <point x="594" y="315" type="curve"/>
      <point x="516" y="332"/>
      <point x="594" y="315"/>
      <point x="516" y="332" type="curve"/>
      <point x="473" y="187"/>
      <point x="414" y="65"/>
      <point x="274" y="65" type="curve"/>
      <point x="198" y="65"/>
      <point x="148" y="113"/>
      <point x="148" y="190" type="curve"/>
      <point x="148" y="269"/>
      <point x="205" y="306"/>
      <point x="274" y="349" type="curve"/>
      <point x="365" y="407"/>
      <point x="446" y="457"/>
      <point x="447" y="564" type="curve"/>
      <point x="447" y="664"/>
      <point x="379" y="727"/>
      <point x="279" y="727" type="curve"/>
      <point x="181" y="727"/>
      <point x="118" y="661"/>
      <point x="118" y="562" type="curve"/>
      <point x="118" y="459"/>
      <point x="194" y="398"/>
      <point x="262" y="323" type="curve"/>
      <point x="355" y="217"/>
      <point x="466" y="89"/>
      <point x="557" y="-13" type="curve"/>
    </contour>
  </outline>
</glyph>
<glyph name="quotesingle" format="1">
  <advance width="238"/>
  <unicode hex="0027"/>
  <outline>
    <contour>
      <point x="160" y="597" type="line"/>
      <point x="167" y="803" type="line"/>
      <point x="71" y="803" type="line"/>
      <point x="78" y="597" type="line"/>
    </contour>
  </outline>
</glyph>
<glyph name="parenleft" format="1">
  <advance width="343"/>
  <unicode hex="0028"/>
  <outline>
    <contour>
      <point x="335" y="-219" type="curve"/>
      <point x="189" y="-52"/>
      <point x="137" y="103"/>
      <point x="137" y="326" type="curve"/>
      <point x="137" y="549"/>
      <point x="190" y="704"/>
      <point x="334" y="874" type="curve"/>
      <point x="280" y="918"/>
      <point x="334" y="874"/>
      <point x="280" y="918" type="curve"/>
      <point x="119" y="736"/>
      <point x="48" y="571"/>
      <point x="48" y="326" type="curve"/>
      <point x="48" y="80"/>
      <point x="120" y="-84"/>
      <point x="281" y="-268" type="curve"/>
      <point x="335" y="-219"/>
      <point x="281" y="-268"/>
    </contour>
  </outline>
</glyph>
<glyph name="parenright" format="1">
  <advance width="350"/>
  <unicode hex="0029"/>
  <outline>
    <contour>
      <point x="58" y="-282" type="curve"/>
      <point x="221" y="-91"/>
      <point x="303" y="74"/>
      <point x="303" y="328" type="curve"/>
      <point x="303" y="576"/>
      <point x="228" y="739"/>
      <point x="61" y="920" type="curve"/>
      <point x="7" y="871"/>
      <point x="61" y="920"/>
      <point x="7" y="871" type="curve"/>
      <point x="156" y="703"/>
      <point x="213" y="550"/>
      <point x="213" y="325" type="curve"/>
      <point x="213" y="95"/>
      <point x="148" y="-60"/>
      <point x="3" y="-237" type="curve"/>
      <point x="58" y="-282"/>
      <point x="3" y="-237"/>
    </contour>
  </outline>
</glyph>
<glyph name="asterisk" format="1">
  <advance width="572"/>
  <unicode hex="002A"/>
  <outline>
    <contour>
      <point x="315" y="560" type="line"/>
      <point x="321" y="767" type="line"/>
      <point x="250" y="767" type="line"/>
      <point x="255" y="560" type="line"/>
    </contour>
    <contour>
      <point x="311" y="522" type="line"/>
      <point x="508" y="585" type="line"/>
      <point x="483" y="651" type="line"/>
      <point x="290" y="579" type="line"/>
    </contour>
    <contour>
      <point x="273" y="514" type="line"/>
      <point x="397" y="348" type="line"/>
      <point x="452" y="393" type="line"/>
      <point x="320" y="552" type="line"/>
    </contour>
    <contour>
      <point x="254" y="551" type="line"/>
      <point x="123" y="392" type="line"/>
      <point x="177" y="347" type="line"/>
      <point x="301" y="513" type="line"/>
    </contour>
    <contour>
      <point x="281" y="577" type="line"/>
      <point x="88" y="649" type="line"/>
      <point x="64" y="583" type="line"/>
      <point x="261" y="520" type="line"/>
    </contour>
  </outline>
</glyph>
<glyph name="plus" format="1">
  <advance width="633"/>
  <unicode hex="002B"/>
  <outline>
    <contour>
      <point x="48" y="274" type="curve"/>
      <point x="586" y="274" type="line"/>
      <point x="586" y="350"/>
      <point x="586" y="274"/>
      <point x="586" y="350" type="curve"/>
      <point x="48" y="350" type="line"/>
      <point x="48" y="274"/>
      <point x="48" y="350"/>
    </contour>
    <contour>
      <point x="359" y="34" type="curve"/>
      <point x="359" y="584" type="line"/>
      <point x="269" y="584"/>
      <point x="364" y="584"/>
      <point x="274" y="584" type="curve"/>
      <point x="274" y="34" type="line"/>
      <point x="364" y="34"/>
      <point x="269" y="34"/>
    </contour>
  </outline>
</glyph>
<glyph name="comma" format="1">
  <advance width="250"/>
  <unicode hex="002C"/>
  <outline>
    <contour>
      <point x="48" y="-117" type="line"/>
      <point x="126" y="-117"/>
      <point x="171" y="-57"/>
      <point x="171" y="21" type="curve"/>
      <point x="171" y="81"/>
      <point x="150" y="120"/>
      <point x="112" y="120" type="curve"/>
      <point x="82" y="120"/>
      <point x="61" y="104"/>
      <point x="61" y="73" type="curve"/>
      <point x="61" y="46"/>
      <point x="77" y="28"/>
      <point x="106" y="26" type="curve"/>
      <point x="106" y="-2"/>
      <point x="103" y="-58"/>
      <point x="48" y="-64" type="curve"/>
    </contour>
  </outline>
</glyph>
<glyph name="period" format="1">
  <advance width="244"/>
  <unicode hex="002E"/>
  <outline>
    <contour>
      <point x="173" y="39" type="curve"/>
      <point x="173" y="70"/>
      <point x="151" y="86"/>
      <point x="121" y="86" type="curve"/>
      <point x="91" y="86"/>
      <point x="72" y="69"/>
      <point x="72" y="39" type="curve"/>
      <point x="170" y="39"/>
      <point x="75" y="39"/>
      <point x="173" y="39" type="curve"/>
      <point x="173" y="7"/>
      <point x="152" y="-7"/>
      <point x="121" y="-7" type="curve"/>
      <point x="91" y="-7"/>
      <point x="72" y="8"/>
      <point x="72" y="39" type="curve"/>
      <point x="170" y="39"/>
      <point x="75" y="39"/>
    </contour>
  </outline>
</glyph>
<glyph name="slash" format="1">
  <advance width="529"/>
  <unicode hex="002F"/>
  <outline>
    <contour>
      <point x="121" y="-38" type="curve"/>
      <point x="247" y="245"/>
      <point x="372" y="527"/>
      <point x="498" y="810" type="curve"/>
      <point x="408" y="810"/>
      <point x="498" y="810"/>
      <point x="408" y="810" type="curve"/>
      <point x="282" y="527"/>
      <point x="157" y="245"/>
      <point x="31" y="-38" type="curve"/>
      <point x="121" y="-38"/>
      <point x="31" y="-38"/>
    </contour>
  </outline>
</glyph>
<glyph name="zero" format="1">
  <advance width="682"/>
  <unicode hex="0030"/>
  <outline>
    <contour>
      <point x="149" y="360" type="curve"/>
      <point x="149" y="526"/>
      <point x="190" y="654"/>
      <point x="338" y="654" type="curve"/>
      <point x="487" y="654"/>
      <point x="533" y="528"/>
      <point x="533" y="363" type="curve"/>
      <point x="533" y="197"/>
      <point x="491" y="69"/>
      <point x="346" y="69" type="curve"/>
      <point x="199" y="69"/>
      <point x="149" y="194"/>
      <point x="149" y="360" type="curve"/>
      <point x="61" y="360"/>
      <point x="148" y="360"/>
      <point x="60" y="360" type="curve"/>
      <point x="60" y="147"/>
      <point x="143" y="-5"/>
      <point x="342" y="-5" type="curve"/>
      <point x="541" y="-5"/>
      <point x="621" y="148"/>
      <point x="621" y="363" type="curve"/>
      <point x="621" y="575"/>
      <point x="543" y="727"/>
      <point x="347" y="727" type="curve"/>
      <point x="145" y="727"/>
      <point x="60" y="575"/>
      <point x="60" y="360" type="curve"/>
      <point x="148" y="360"/>
      <point x="61" y="360"/>
    </contour>
  </outline>
</glyph>
<glyph name="one" format="1">
  <advance width="430"/>
  <unicode hex="0031"/>
  <outline>
    <contour>
      <point x="254" y="0" type="curve"/>
      <point x="301" y="0"/>
      <point x="348" y="0"/>
      <point x="396" y="0" type="curve"/>
      <point x="396" y="70"/>
      <point x="396" y="0"/>
      <point x="396" y="70" type="curve"/>
      <point x="254" y="70"/>
      <point x="396" y="70"/>
      <point x="254" y="70" type="curve"/>
      <point x="254" y="0"/>
      <point x="254" y="70"/>
    </contour>
    <contour>
      <point x="254" y="70" type="curve"/>
      <point x="110" y="70"/>
      <point x="254" y="70"/>
      <point x="110" y="70" type="curve"/>
      <point x="110" y="0"/>
      <point x="110" y="70"/>
      <point x="110" y="0" type="curve"/>
      <point x="158" y="0"/>
      <point x="206" y="0"/>
      <point x="254" y="0" type="curve"/>
      <point x="254" y="70"/>
      <point x="254" y="0"/>
    </contour>
    <contour>
      <point x="81" y="503" type="curve"/>
      <point x="275" y="677"/>
      <point x="81" y="503"/>
      <point x="275" y="677" type="curve"/>
      <point x="208" y="722"/>
      <point x="275" y="677"/>
      <point x="208" y="722" type="curve"/>
      <point x="31" y="561"/>
      <point x="208" y="722"/>
      <point x="31" y="561" type="curve"/>
      <point x="81" y="503"/>
      <point x="31" y="561"/>
    </contour>
    <contour>
      <point x="298" y="0" type="curve"/>
      <point x="298" y="241"/>
      <point x="298" y="481"/>
      <point x="298" y="722" type="curve"/>
      <point x="208" y="722"/>
      <point x="298" y="722"/>
      <point x="208" y="722" type="curve"/>
      <point x="208" y="481"/>
      <point x="208" y="241"/>
      <point x="208" y="0" type="curve"/>
      <point x="298" y="0"/>
      <point x="208" y="0"/>
    </contour>
  </outline>
</glyph>
<glyph name="two" format="1">
  <advance width="561"/>
  <unicode hex="0032"/>
  <outline>
    <contour>
      <point x="496" y="70" type="curve"/>
      <point x="496" y="180"/>
      <point x="496" y="64"/>
      <point x="496" y="174" type="curve"/>
      <point x="425" y="174"/>
      <point x="496" y="174"/>
      <point x="425" y="174" type="curve"/>
      <point x="425" y="64"/>
      <point x="425" y="180"/>
      <point x="425" y="70" type="curve"/>
      <point x="496" y="70"/>
      <point x="425" y="70"/>
    </contour>
    <contour>
      <point x="49" y="0" type="curve"/>
      <point x="222" y="0"/>
      <point x="366" y="0"/>
      <point x="496" y="0" type="curve"/>
      <point x="496" y="70"/>
      <point x="496" y="0"/>
      <point x="496" y="70" type="curve"/>
      <point x="351" y="70"/>
      <point x="195" y="70"/>
      <point x="50" y="70" type="curve"/>
      <point x="49" y="0"/>
      <point x="50" y="70"/>
    </contour>
    <contour>
      <point x="120" y="537" type="curve"/>
      <point x="161" y="604"/>
      <point x="194" y="654"/>
      <point x="267" y="654" type="curve"/>
      <point x="346" y="654"/>
      <point x="384" y="599"/>
      <point x="384" y="513" type="curve"/>
      <point x="384" y="405"/>
      <point x="314" y="326"/>
      <point x="246" y="262" type="curve"/>
      <point x="181" y="197"/>
      <point x="117" y="135"/>
      <point x="50" y="70" type="curve"/>
      <point x="55" y="0"/>
      <point x="50" y="70"/>
      <point x="55" y="0" type="curve"/>
      <point x="163" y="65"/>
      <point x="232" y="139"/>
      <point x="302" y="210" type="curve"/>
      <point x="389" y="289"/>
      <point x="468" y="379"/>
      <point x="468" y="517" type="curve"/>
      <point x="468" y="649"/>
      <point x="398" y="727"/>
      <point x="271" y="727" type="curve"/>
      <point x="167" y="727"/>
      <point x="101" y="667"/>
      <point x="57" y="575" type="curve"/>
      <point x="120" y="537"/>
      <point x="57" y="575"/>
    </contour>
  </outline>
</glyph>
<glyph name="four" format="1">
  <advance width="571"/>
  <unicode hex="0034"/>
  <outline>
    <contour>
      <point x="354" y="70" type="line"/>
      <point x="223" y="70" type="line"/>
      <point x="223" y="0" type="line"/>
      <point x="354" y="0" type="line"/>
    </contour>
    <contour>
      <point x="354" y="0" type="line"/>
      <point x="482" y="0" type="line"/>
      <point x="482" y="70" type="line"/>
      <point x="354" y="70" type="line"/>
    </contour>
    <contour>
      <point x="71" y="258" type="line"/>
      <point x="383" y="697" type="line"/>
      <point x="310" y="708" type="line"/>
      <point x="32" y="320" type="line"/>
    </contour>
    <contour>
      <point x="528" y="320" type="line"/>
      <point x="32" y="320" type="line"/>
      <point x="33" y="244" type="line"/>
      <point x="528" y="244" type="line"/>
    </contour>
    <contour>
      <point x="399" y="26" type="line"/>
      <point x="399" y="708" type="line"/>
      <point x="311" y="708" type="line"/>
      <point x="311" y="26" type="line"/>
    </contour>
  </outline>
</glyph>
<glyph name="seven" format="1">
  <advance width="513"/>
  <unicode hex="0037"/>
  <outline>
    <contour>
      <point x="126" y="554" type="curve"/>
      <point x="126" y="660" type="curve"/>
      <point x="55" y="660" type="curve"/>
      <point x="55" y="554" type="curve"/>
    </contour>
    <contour>
      <point x="55" y="652" type="curve"/>
      <point x="493" y="652" type="curve"/>
      <point x="493" y="722" type="curve"/>
      <point x="55" y="722" type="curve"/>
    </contour>
    <contour>
      <point x="440" y="722" type="curve"/>
      <point x="73" y="0" type="curve"/>
      <point x="168" y="0" type="curve"/>
      <point x="493" y="652" type="curve"/>
    </contour>
  </outline>
</glyph>
<glyph name="eight" format="1">
  <advance width="552"/>
  <unicode hex="0038"/>
  <outline>
    <contour>
      <point x="78" y="549" type="curve"/>
      <point x="78" y="441"/>
      <point x="153" y="404"/>
      <point x="250" y="353" type="curve"/>
      <point x="335" y="307"/>
      <point x="401" y="272"/>
      <point x="401" y="183" type="curve"/>
      <point x="401" y="107"/>
      <point x="354" y="68"/>
      <point x="276" y="68" type="curve"/>
      <point x="197" y="68"/>
      <point x="151" y="107"/>
      <point x="151" y="183" type="curve"/>
      <point x="151" y="274"/>
      <point x="218" y="306"/>
      <point x="305" y="352" type="curve"/>
      <point x="399" y="404"/>
      <point x="474" y="441"/>
      <point x="474" y="547" type="curve"/>
      <point x="474" y="667"/>
      <point x="401" y="727"/>
      <point x="276" y="727" type="curve"/>
      <point x="154" y="727"/>
      <point x="78" y="666"/>
      <point x="78" y="549" type="curve"/>
      <point x="168" y="549"/>
      <point x="78" y="549"/>
      <point x="168" y="549" type="curve"/>
      <point x="168" y="615"/>
      <point x="205" y="654"/>
      <point x="273" y="654" type="curve"/>
      <point x="344" y="654"/>
      <point x="384" y="617"/>
      <point x="384" y="547" type="curve"/>
      <point x="384" y="469"/>
      <point x="323" y="442"/>
      <point x="249" y="403" type="curve"/>
      <point x="142" y="345"/>
      <point x="61" y="302"/>
      <point x="61" y="183" type="curve"/>
      <point x="61" y="58"/>
      <point x="141" y="-5"/>
      <point x="272" y="-5" type="curve"/>
      <point x="404" y="-5"/>
      <point x="491" y="55"/>
      <point x="491" y="183" type="curve"/>
      <point x="491" y="301"/>
      <point x="410" y="346"/>
      <point x="305" y="403" type="curve"/>
      <point x="230" y="444"/>
      <point x="168" y="469"/>
      <point x="168" y="549" type="curve"/>
      <point x="78" y="549"/>
      <point x="168" y="549"/>
    </contour>
  </outline>
</glyph>
<glyph name="nine" format="1">
  <advance width="564"/>
  <unicode hex="0039"/>
  <outline>
    <contour>
      <point x="439" y="485" type="curve"/>
      <point x="408" y="410"/>
      <point x="362" y="364"/>
      <point x="278" y="364" type="curve"/>
      <point x="191" y="364"/>
      <point x="145" y="421"/>
      <point x="145" y="510" type="curve"/>
      <point x="145" y="593"/>
      <point x="189" y="649"/>
      <point x="269" y="649" type="curve"/>
      <point x="371" y="649"/>
      <point x="422" y="577"/>
      <point x="422" y="470" type="curve"/>
      <point x="422" y="250"/>
      <point x="293" y="127"/>
      <point x="77" y="57" type="curve"/>
      <point x="108" y="-14"/>
      <point x="77" y="57"/>
      <point x="107" y="-14" type="curve"/>
      <point x="348" y="59"/>
      <point x="508" y="211"/>
      <point x="508" y="474" type="curve"/>
      <point x="508" y="630"/>
      <point x="425" y="731"/>
      <point x="272" y="731" type="curve"/>
      <point x="136" y="731"/>
      <point x="58" y="644"/>
      <point x="58" y="507" type="curve"/>
      <point x="58" y="372"/>
      <point x="136" y="290"/>
      <point x="270" y="290" type="curve"/>
      <point x="385" y="290"/>
      <point x="448" y="370"/>
      <point x="483" y="465" type="curve"/>
      <point x="439" y="485"/>
      <point x="483" y="465"/>
    </contour>
  </outline>
</glyph>
<glyph name="colon" format="1">
  <advance width="255"/>
  <unicode hex="003A"/>
  <outline>
    <contour>
      <point x="178" y="336" type="curve"/>
      <point x="178" y="368"/>
      <point x="156" y="383"/>
      <point x="127" y="383" type="curve"/>
      <point x="96" y="383"/>
      <point x="77" y="366"/>
      <point x="77" y="336" type="curve"/>
      <point x="175" y="336"/>
      <point x="80" y="336"/>
      <point x="178" y="336" type="curve"/>
      <point x="178" y="305"/>
      <point x="157" y="290"/>
      <point x="126" y="290" type="curve"/>
      <point x="96" y="290"/>
      <point x="77" y="306"/>
      <point x="77" y="336" type="curve"/>
      <point x="175" y="336"/>
      <point x="80" y="336"/>
    </contour>
    <contour>
      <point x="178" y="93" type="curve"/>
      <point x="178" y="124"/>
      <point x="156" y="140"/>
      <point x="126" y="140" type="curve"/>
      <point x="96" y="140"/>
      <point x="77" y="122"/>
      <point x="77" y="93" type="curve"/>
      <point x="175" y="93"/>
      <point x="80" y="93"/>
      <point x="178" y="93" type="curve"/>
      <point x="178" y="61"/>
      <point x="157" y="46"/>
      <point x="126" y="46" type="curve"/>
      <point x="96" y="46"/>
      <point x="77" y="62"/>
      <point x="77" y="93" type="curve"/>
      <point x="175" y="93"/>
      <point x="80" y="93"/>
    </contour>
  </outline>
</glyph>
<glyph name="semicolon" format="1">
  <advance width="283"/>
  <unicode hex="003B"/>
  <outline>
    <contour>
      <point x="79" y="-153" type="line"/>
      <point x="150" y="-141"/>
      <point x="200" y="-90"/>
      <point x="200" y="-9" type="curve"/>
      <point x="200" y="46"/>
      <point x="178" y="82"/>
      <point x="139" y="82" type="curve"/>
      <point x="107" y="82"/>
      <point x="86" y="65"/>
      <point x="86" y="34" type="curve"/>
      <point x="86" y="8"/>
      <point x="102" y="-11"/>
      <point x="133" y="-13" type="curve"/>
      <point x="132" y="-41"/>
      <point x="124" y="-85"/>
      <point x="72" y="-102" type="curve"/>
    </contour>
    <contour>
      <point x="191" y="400" type="curve"/>
      <point x="191" y="431"/>
      <point x="169" y="447"/>
      <point x="139" y="447" type="curve"/>
      <point x="109" y="447"/>
      <point x="90" y="430"/>
      <point x="90" y="400" type="curve"/>
      <point x="188" y="400"/>
      <point x="93" y="400"/>
      <point x="191" y="400" type="curve"/>
      <point x="191" y="368"/>
      <point x="170" y="354"/>
      <point x="139" y="354" type="curve"/>
      <point x="109" y="354"/>
      <point x="90" y="370"/>
      <point x="90" y="400" type="curve"/>
      <point x="188" y="400"/>
      <point x="93" y="400"/>
    </contour>
  </outline>
</glyph>
<glyph name="less" format="1">
  <advance width="647"/>
  <unicode hex="003C"/>
  <outline>
    <contour>
      <point x="577" y="608" type="curve"/>
      <point x="398" y="518"/>
      <point x="218" y="428"/>
      <point x="39" y="338" type="curve"/>
      <point x="39" y="262"/>
      <point x="39" y="338"/>
      <point x="39" y="262" type="curve"/>
      <point x="218" y="352"/>
      <point x="398" y="442"/>
      <point x="577" y="532" type="curve"/>
      <point x="577" y="608"/>
      <point x="577" y="532"/>
    </contour>
    <contour>
      <point x="586" y="74" type="curve"/>
      <point x="403" y="162"/>
      <point x="221" y="250"/>
      <point x="39" y="338" type="curve"/>
      <point x="39" y="262"/>
      <point x="39" y="338"/>
      <point x="39" y="262" type="curve"/>
      <point x="221" y="174"/>
      <point x="403" y="86"/>
      <point x="586" y="-2" type="curve"/>
      <point x="586" y="74"/>
      <point x="586" y="-2"/>
    </contour>
  </outline>
</glyph>
<glyph name="equal" format="1">
  <advance width="716"/>
  <unicode hex="003D"/>
  <outline>
    <contour>
      <point x="80" y="181" type="curve"/>
      <point x="265" y="181"/>
      <point x="450" y="181"/>
      <point x="636" y="181" type="curve"/>
      <point x="636" y="254"/>
      <point x="636" y="181"/>
      <point x="636" y="254" type="curve"/>
      <point x="450" y="254"/>
      <point x="265" y="254"/>
      <point x="80" y="254" type="curve"/>
      <point x="80" y="181"/>
      <point x="80" y="254"/>
    </contour>
    <contour>
      <point x="80" y="403" type="curve"/>
      <point x="265" y="403"/>
      <point x="450" y="403"/>
      <point x="636" y="403" type="curve"/>
      <point x="636" y="476"/>
      <point x="636" y="403"/>
      <point x="636" y="476" type="curve"/>
      <point x="450" y="476"/>
      <point x="265" y="476"/>
      <point x="80" y="476" type="curve"/>
      <point x="80" y="403"/>
      <point x="80" y="476"/>
    </contour>
  </outline>
</glyph>
<glyph name="greater" format="1">
  <advance width="647"/>
  <unicode hex="003E"/>
  <outline>
    <contour>
      <point x="69" y="-2" type="curve"/>
      <point x="249" y="88"/>
      <point x="429" y="178"/>
      <point x="608" y="268" type="curve"/>
      <point x="608" y="344"/>
      <point x="608" y="268"/>
      <point x="608" y="344" type="curve"/>
      <point x="429" y="254"/>
      <point x="249" y="164"/>
      <point x="69" y="74" type="curve"/>
      <point x="69" y="-2"/>
      <point x="69" y="74"/>
    </contour>
    <contour>
      <point x="61" y="532" type="curve"/>
      <point x="243" y="444"/>
      <point x="426" y="356"/>
      <point x="608" y="268" type="curve"/>
      <point x="608" y="344"/>
      <point x="608" y="268"/>
      <point x="608" y="344" type="curve"/>
      <point x="426" y="432"/>
      <point x="243" y="520"/>
      <point x="61" y="608" type="curve"/>
      <point x="61" y="532"/>
      <point x="61" y="608"/>
    </contour>
  </outline>
</glyph>
<glyph name="question" format="1">
  <advance width="493"/>
  <unicode hex="003F"/>
  <outline>
    <contour>
      <point x="183" y="359" type="curve"/>
      <point x="183" y="322"/>
      <point x="183" y="258"/>
      <point x="183" y="221" type="curve"/>
      <point x="267" y="221"/>
      <point x="183" y="221"/>
      <point x="267" y="221" type="curve"/>
      <point x="267" y="258"/>
      <point x="267" y="322"/>
      <point x="267" y="359" type="curve"/>
      <point x="183" y="359"/>
      <point x="267" y="359"/>
    </contour>
    <contour>
      <point x="96" y="598" type="line"/>
      <point x="127" y="633"/>
      <point x="166" y="659"/>
      <point x="221" y="659" type="curve"/>
      <point x="304" y="659"/>
      <point x="353" y="603"/>
      <point x="353" y="519" type="curve"/>
      <point x="353" y="422"/>
      <point x="292" y="359"/>
      <point x="192" y="359" type="curve"/>
      <point x="192" y="329"/>
      <point x="192" y="321"/>
      <point x="192" y="290" type="curve"/>
      <point x="341" y="290"/>
      <point x="439" y="378"/>
      <point x="439" y="519" type="curve"/>
      <point x="439" y="651"/>
      <point x="354" y="733"/>
      <point x="225" y="733" type="curve"/>
      <point x="147" y="733"/>
      <point x="90" y="703"/>
      <point x="48" y="652" type="curve"/>
    </contour>
    <contour>
      <point x="276" y="32" type="curve"/>
      <point x="276" y="63"/>
      <point x="254" y="79"/>
      <point x="225" y="79" type="curve"/>
      <point x="195" y="79"/>
      <point x="176" y="62"/>
      <point x="176" y="32" type="curve"/>
      <point x="276" y="32"/>
      <point x="176" y="32"/>
      <point x="276" y="32" type="curve"/>
      <point x="276" y="1"/>
      <point x="255" y="-14"/>
      <point x="225" y="-14" type="curve"/>
      <point x="194" y="-14"/>
      <point x="176" y="2"/>
      <point x="176" y="32" type="curve"/>
      <point x="276" y="32"/>
      <point x="176" y="32"/>
    </contour>
  </outline>
</glyph>
<glyph name="B" format="1">
  <advance width="641"/>
  <unicode hex="0042"/>
  <outline>
    <contour>
      <point x="190" y="722" type="curve"/>
      <point x="142" y="722"/>
      <point x="102" y="722"/>
      <point x="55" y="722" type="curve"/>
      <point x="55" y="652"/>
      <point x="55" y="722"/>
      <point x="55" y="652" type="curve"/>
      <point x="197" y="652"/>
      <point x="48" y="652"/>
      <point x="190" y="652" type="curve"/>
      <point x="190" y="722"/>
      <point x="190" y="652"/>
    </contour>
    <contour>
      <point x="189" y="70" type="curve"/>
      <point x="47" y="70"/>
      <point x="195" y="70"/>
      <point x="54" y="70" type="curve"/>
      <point x="54" y="0"/>
      <point x="54" y="70"/>
      <point x="54" y="0" type="curve"/>
      <point x="101" y="0"/>
      <point x="141" y="0"/>
      <point x="189" y="0" type="curve"/>
      <point x="189" y="70"/>
      <point x="189" y="0"/>
    </contour>
    <contour>
      <point x="180" y="652" type="curve"/>
      <point x="240" y="652"/>
      <point x="288" y="652"/>
      <point x="348" y="652" type="curve"/>
      <point x="417" y="652"/>
      <point x="456" y="611"/>
      <point x="456" y="544" type="curve"/>
      <point x="456" y="477"/>
      <point x="410" y="442"/>
      <point x="342" y="442" type="curve"/>
      <point x="284" y="442"/>
      <point x="238" y="442"/>
      <point x="180" y="442" type="curve"/>
      <point x="180" y="403"/>
      <point x="180" y="410"/>
      <point x="180" y="371" type="curve"/>
      <point x="225" y="371"/>
      <point x="262" y="371"/>
      <point x="307" y="371" type="curve"/>
      <point x="423" y="371"/>
      <point x="545" y="418"/>
      <point x="545" y="541" type="curve"/>
      <point x="545" y="658"/>
      <point x="471" y="722"/>
      <point x="352" y="722" type="curve"/>
      <point x="290" y="722"/>
      <point x="241" y="722"/>
      <point x="180" y="722" type="curve"/>
      <point x="180" y="684"/>
      <point x="180" y="691"/>
    </contour>
    <contour>
      <point x="236" y="0" type="curve"/>
      <point x="236" y="241"/>
      <point x="236" y="481"/>
      <point x="236" y="722" type="curve"/>
      <point x="142" y="722"/>
      <point x="236" y="722"/>
      <point x="142" y="722" type="curve"/>
      <point x="142" y="481"/>
      <point x="143" y="241"/>
      <point x="142" y="0" type="curve"/>
      <point x="236" y="0"/>
      <point x="142" y="0"/>
    </contour>
    <contour>
      <point x="180" y="371" type="curve"/>
      <point x="238" y="371"/>
      <point x="284" y="371"/>
      <point x="342" y="371" type="curve"/>
      <point x="440" y="371"/>
      <point x="498" y="315"/>
      <point x="498" y="216" type="curve"/>
      <point x="498" y="124"/>
      <point x="444" y="70"/>
      <point x="349" y="70" type="curve"/>
      <point x="289" y="70"/>
      <point x="241" y="70"/>
      <point x="180" y="70" type="curve"/>
      <point x="180" y="31"/>
      <point x="180" y="38"/>
      <point x="180" y="0" type="curve"/>
      <point x="242" y="0"/>
      <point x="291" y="0"/>
      <point x="353" y="0" type="curve"/>
      <point x="497" y="0"/>
      <point x="587" y="75"/>
      <point x="587" y="215" type="curve"/>
      <point x="587" y="371"/>
      <point x="458" y="442"/>
      <point x="308" y="442" type="curve"/>
      <point x="262" y="442"/>
      <point x="225" y="442"/>
      <point x="180" y="442" type="curve"/>
      <point x="180" y="403"/>
      <point x="180" y="410"/>
    </contour>
  </outline>
</glyph>
<glyph name="F" format="1">
  <advance width="581"/>
  <unicode hex="0046"/>
  <outline>
    <contour>
      <point x="190" y="0" type="curve"/>
      <point x="238" y="0"/>
      <point x="190" y="0"/>
      <point x="334" y="0" type="curve"/>
      <point x="334" y="70"/>
      <point x="334" y="0"/>
      <point x="334" y="70" type="curve"/>
      <point x="190" y="70"/>
      <point x="334" y="70"/>
      <point x="190" y="70" type="curve"/>
      <point x="190" y="0"/>
      <point x="190" y="70"/>
    </contour>
    <contour>
      <point x="190" y="722" type="curve"/>
      <point x="143" y="722"/>
      <point x="102" y="722"/>
      <point x="54" y="722" type="curve"/>
      <point x="54" y="652"/>
      <point x="54" y="722"/>
      <point x="54" y="652" type="curve"/>
      <point x="197" y="652"/>
      <point x="47" y="652"/>
      <point x="190" y="652" type="curve"/>
      <point x="190" y="722"/>
      <point x="190" y="652"/>
    </contour>
    <contour>
      <point x="190" y="70" type="curve"/>
      <point x="47" y="70"/>
      <point x="197" y="70"/>
      <point x="54" y="70" type="curve"/>
      <point x="54" y="0"/>
      <point x="54" y="70"/>
      <point x="54" y="0" type="curve"/>
      <point x="102" y="0"/>
      <point x="143" y="0"/>
      <point x="190" y="0" type="curve"/>
      <point x="190" y="70"/>
      <point x="190" y="0"/>
    </contour>
    <contour>
      <point x="472" y="687" type="curve"/>
      <point x="472" y="567"/>
      <point x="472" y="691"/>
      <point x="472" y="571" type="curve"/>
      <point x="543" y="571"/>
      <point x="472" y="571"/>
      <point x="543" y="571" type="curve"/>
      <point x="543" y="691"/>
      <point x="543" y="567"/>
      <point x="543" y="687" type="curve"/>
      <point x="472" y="687"/>
      <point x="543" y="687"/>
    </contour>
    <contour>
      <point x="194" y="338" type="curve"/>
      <point x="289" y="338"/>
      <point x="384" y="338"/>
      <point x="479" y="338" type="curve"/>
      <point x="479" y="408"/>
      <point x="479" y="338"/>
      <point x="479" y="408" type="curve"/>
      <point x="384" y="408"/>
      <point x="289" y="408"/>
      <point x="194" y="408" type="curve"/>
      <point x="194" y="338"/>
      <point x="194" y="408"/>
    </contour>
    <contour>
      <point x="235" y="0" type="curve"/>
      <point x="235" y="722" type="line"/>
      <point x="145" y="722"/>
      <point x="235" y="722"/>
      <point x="145" y="722" type="curve"/>
      <point x="145" y="481"/>
      <point x="145" y="241"/>
      <point x="145" y="0" type="curve"/>
      <point x="235" y="0"/>
      <point x="145" y="0"/>
    </contour>
    <contour>
      <point x="180" y="652" type="curve"/>
      <point x="301" y="652"/>
      <point x="422" y="652"/>
      <point x="543" y="652" type="curve"/>
      <point x="543" y="722"/>
      <point x="543" y="652"/>
      <point x="543" y="722" type="curve"/>
      <point x="422" y="722"/>
      <point x="301" y="722"/>
      <point x="180" y="722" type="curve"/>
      <point x="180" y="652"/>
      <point x="180" y="722"/>
    </contour>
  </outline>
</glyph>
<glyph name="G" format="1">
  <advance width="726"/>
  <unicode hex="0047"/>
  <outline>
    <contour>
      <point x="574" y="644" type="curve"/>
      <point x="574" y="516"/>
      <point x="574" y="642"/>
      <point x="574" y="514" type="curve"/>
      <point x="645" y="514"/>
      <point x="574" y="514"/>
      <point x="645" y="514" type="curve"/>
      <point x="645" y="642"/>
      <point x="645" y="516"/>
      <point x="645" y="644" type="curve"/>
      <point x="574" y="644"/>
      <point x="645" y="644"/>
    </contour>
    <contour>
      <point x="635" y="347" type="curve"/>
      <point x="570" y="347"/>
      <point x="505" y="347"/>
      <point x="440" y="347" type="curve"/>
      <point x="440" y="277"/>
      <point x="440" y="347"/>
      <point x="440" y="277" type="curve"/>
      <point x="505" y="277"/>
      <point x="570" y="277"/>
      <point x="635" y="277" type="curve"/>
      <point x="635" y="347"/>
      <point x="635" y="277"/>
    </contour>
    <contour>
      <point x="660" y="78" type="curve"/>
      <point x="660" y="168"/>
      <point x="660" y="257"/>
      <point x="660" y="347" type="curve"/>
      <point x="578" y="347"/>
      <point x="660" y="347"/>
      <point x="578" y="347" type="curve"/>
      <point x="578" y="257"/>
      <point x="578" y="168"/>
      <point x="578" y="78" type="curve"/>
      <point x="660" y="78"/>
      <point x="578" y="78"/>
    </contour>
    <contour>
      <point x="645" y="644" type="curve"/>
      <point x="562" y="700"/>
      <point x="484" y="727"/>
      <point x="383" y="727" type="curve"/>
      <point x="168" y="727"/>
      <point x="57" y="586"/>
      <point x="57" y="362" type="curve"/>
      <point x="57" y="134"/>
      <point x="174" y="-5"/>
      <point x="392" y="-5" type="curve"/>
      <point x="500" y="-5"/>
      <point x="568" y="23"/>
      <point x="660" y="78" type="curve"/>
      <point x="614" y="132"/>
      <point x="660" y="78"/>
      <point x="614" y="132" type="curve"/>
      <point x="544" y="89"/>
      <point x="480" y="69"/>
      <point x="393" y="69" type="curve"/>
      <point x="223" y="69"/>
      <point x="148" y="188"/>
      <point x="148" y="369" type="curve"/>
      <point x="148" y="539"/>
      <point x="222" y="654"/>
      <point x="383" y="654" type="curve"/>
      <point x="466" y="654"/>
      <point x="531" y="631"/>
      <point x="600" y="584" type="curve"/>
      <point x="645" y="644"/>
      <point x="600" y="584"/>
    </contour>
    <contour>
      <point x="381" y="801" type="move" name="top"/>
    </contour>
    <contour>
      <point x="416" y="-25" type="move" name="bottom"/>
    </contour>
  </outline>
</glyph>
<glyph name="H" format="1">
  <advance width="796"/>
  <unicode hex="0048"/>
  <outline>
    <contour>
      <point x="620" y="652" type="curve"/>
      <point x="768" y="652"/>
      <point x="609" y="652"/>
      <point x="757" y="652" type="curve"/>
      <point x="757" y="722"/>
      <point x="757" y="652"/>
      <point x="757" y="722" type="curve"/>
      <point x="707" y="722"/>
      <point x="669" y="722"/>
      <point x="620" y="722" type="curve"/>
      <point x="620" y="652"/>
      <point x="620" y="722"/>
    </contour>
    <contour>
      <point x="620" y="0" type="curve"/>
      <point x="669" y="0"/>
      <point x="707" y="0"/>
      <point x="757" y="0" type="curve"/>
      <point x="757" y="70"/>
      <point x="757" y="0"/>
      <point x="757" y="70" type="curve"/>
      <point x="609" y="70"/>
      <point x="768" y="70"/>
      <point x="620" y="70" type="curve"/>
      <point x="620" y="0"/>
      <point x="620" y="70"/>
    </contour>
    <contour>
      <point x="620" y="70" type="curve"/>
      <point x="473" y="70"/>
      <point x="631" y="70"/>
      <point x="484" y="70" type="curve"/>
      <point x="484" y="0"/>
      <point x="484" y="70"/>
      <point x="484" y="0" type="curve"/>
      <point x="533" y="0"/>
      <point x="571" y="0"/>
      <point x="620" y="0" type="curve"/>
      <point x="620" y="70"/>
      <point x="620" y="0"/>
    </contour>
    <contour>
      <point x="620" y="722" type="curve"/>
      <point x="571" y="722"/>
      <point x="533" y="722"/>
      <point x="484" y="722" type="curve"/>
      <point x="484" y="652"/>
      <point x="484" y="722"/>
      <point x="484" y="652" type="curve"/>
      <point x="631" y="652"/>
      <point x="473" y="652"/>
      <point x="620" y="652" type="curve"/>
      <point x="620" y="722"/>
      <point x="620" y="652"/>
    </contour>
    <contour>
      <point x="176" y="652" type="curve"/>
      <point x="324" y="652"/>
      <point x="165" y="652"/>
      <point x="313" y="652" type="curve"/>
      <point x="313" y="722"/>
      <point x="313" y="652"/>
      <point x="313" y="722" type="curve"/>
      <point x="264" y="722"/>
      <point x="226" y="722"/>
      <point x="176" y="722" type="curve"/>
      <point x="176" y="652"/>
      <point x="176" y="722"/>
    </contour>
    <contour>
      <point x="176" y="722" type="curve"/>
      <point x="128" y="722"/>
      <point x="90" y="722"/>
      <point x="40" y="722" type="curve"/>
      <point x="40" y="652"/>
      <point x="40" y="722"/>
      <point x="40" y="652" type="curve"/>
      <point x="188" y="652"/>
      <point x="29" y="652"/>
      <point x="176" y="652" type="curve"/>
      <point x="176" y="722"/>
      <point x="176" y="652"/>
    </contour>
    <contour>
      <point x="176" y="0" type="curve"/>
      <point x="226" y="0"/>
      <point x="165" y="0"/>
      <point x="313" y="0" type="curve"/>
      <point x="313" y="70"/>
      <point x="313" y="0"/>
      <point x="313" y="70" type="curve"/>
      <point x="165" y="70"/>
      <point x="324" y="70"/>
      <point x="176" y="70" type="curve"/>
      <point x="176" y="0"/>
      <point x="176" y="70"/>
    </contour>
    <contour>
      <point x="176" y="70" type="curve"/>
      <point x="29" y="70"/>
      <point x="188" y="70"/>
      <point x="40" y="70" type="curve"/>
      <point x="40" y="0"/>
      <point x="40" y="70"/>
      <point x="40" y="0" type="curve"/>
      <point x="90" y="0"/>
      <point x="128" y="0"/>
      <point x="176" y="0" type="curve"/>
      <point x="176" y="70"/>
      <point x="176" y="0"/>
    </contour>
    <contour>
      <point x="222" y="0" type="curve"/>
      <point x="222" y="722" type="line"/>
      <point x="132" y="722"/>
      <point x="222" y="722"/>
      <point x="132" y="722" type="curve"/>
      <point x="132" y="481"/>
      <point x="132" y="241"/>
      <point x="132" y="0" type="curve"/>
      <point x="222" y="0"/>
      <point x="132" y="0"/>
    </contour>
    <contour>
      <point x="618" y="398" type="curve"/>
      <point x="470" y="398"/>
      <point x="324" y="398"/>
      <point x="176" y="398" type="curve"/>
      <point x="176" y="328"/>
      <point x="176" y="398"/>
      <point x="176" y="328" type="curve"/>
      <point x="324" y="328"/>
      <point x="470" y="328"/>
      <point x="618" y="328" type="curve"/>
      <point x="618" y="398"/>
      <point x="618" y="328"/>
    </contour>
    <contour>
      <point x="664" y="26" type="curve"/>
      <point x="664" y="249"/>
      <point x="664" y="473"/>
      <point x="664" y="696" type="curve"/>
      <point x="575" y="696"/>
      <point x="664" y="696"/>
      <point x="575" y="696" type="curve"/>
      <point x="575" y="26" type="line"/>
      <point x="664" y="26"/>
      <point x="575" y="26"/>
    </contour>
  </outline>
</glyph>
<glyph name="I" format="1">
  <advance width="354"/>
  <unicode hex="0049"/>
  <outline>
    <contour>
      <point x="178" y="722" type="curve"/>
      <point x="128" y="722"/>
      <point x="90" y="722"/>
      <point x="41" y="722" type="curve"/>
      <point x="41" y="652"/>
      <point x="41" y="722"/>
      <point x="41" y="652" type="curve"/>
      <point x="189" y="652"/>
      <point x="30" y="652"/>
      <point x="178" y="652" type="curve"/>
      <point x="178" y="722"/>
      <point x="178" y="652"/>
    </contour>
    <contour>
      <point x="178" y="652" type="curve"/>
      <point x="325" y="652"/>
      <point x="167" y="652"/>
      <point x="314" y="652" type="curve"/>
      <point x="314" y="722"/>
      <point x="314" y="652"/>
      <point x="314" y="722" type="curve"/>
      <point x="265" y="722"/>
      <point x="226" y="722"/>
      <point x="178" y="722" type="curve"/>
      <point x="178" y="652"/>
      <point x="178" y="722"/>
    </contour>
    <contour>
      <point x="178" y="0" type="curve"/>
      <point x="226" y="0"/>
      <point x="265" y="0"/>
      <point x="314" y="0" type="curve"/>
      <point x="314" y="70"/>
      <point x="314" y="0"/>
      <point x="314" y="70" type="curve"/>
      <point x="167" y="70"/>
      <point x="325" y="70"/>
      <point x="178" y="70" type="curve"/>
      <point x="178" y="0"/>
      <point x="178" y="70"/>
    </contour>
    <contour>
      <point x="178" y="70" type="curve"/>
      <point x="30" y="70"/>
      <point x="189" y="70"/>
      <point x="41" y="70" type="curve"/>
      <point x="41" y="0"/>
      <point x="41" y="70"/>
      <point x="41" y="0" type="curve"/>
      <point x="90" y="0"/>
      <point x="128" y="0"/>
      <point x="178" y="0" type="curve"/>
      <point x="178" y="70"/>
      <point x="178" y="0"/>
    </contour>
    <contour>
      <point x="222" y="0" type="curve"/>
      <point x="222" y="241"/>
      <point x="222" y="481"/>
      <point x="222" y="722" type="curve"/>
      <point x="132" y="722"/>
      <point x="222" y="722"/>
      <point x="132" y="722" type="curve"/>
      <point x="132" y="481"/>
      <point x="132" y="241"/>
      <point x="132" y="0" type="curve"/>
      <point x="222" y="0"/>
      <point x="132" y="0"/>
    </contour>
    <contour>
      <point x="178" y="801" type="move" name="top"/>
    </contour>
    <contour>
      <point x="217" y="2" type="move" name="bottom"/>
    </contour>
  </outline>
</glyph>
<glyph name="J" format="1">
  <advance width="444"/>
  <unicode hex="004A"/>
  <outline>
    <contour>
      <point x="287" y="722" type="curve"/>
      <point x="239" y="722"/>
      <point x="202" y="722"/>
      <point x="153" y="722" type="curve"/>
      <point x="153" y="652"/>
      <point x="153" y="722"/>
      <point x="153" y="652" type="curve"/>
      <point x="298" y="652"/>
      <point x="142" y="652"/>
      <point x="287" y="652" type="curve"/>
      <point x="287" y="722"/>
      <point x="287" y="652"/>
    </contour>
    <contour>
      <point x="287" y="652" type="curve"/>
      <point x="430" y="652"/>
      <point x="276" y="652"/>
      <point x="419" y="652" type="curve"/>
      <point x="419" y="722"/>
      <point x="419" y="652"/>
      <point x="419" y="722" type="curve"/>
      <point x="372" y="722"/>
      <point x="334" y="722"/>
      <point x="287" y="722" type="curve"/>
      <point x="287" y="652"/>
      <point x="287" y="722"/>
    </contour>
    <contour>
      <point x="12" y="42" type="curve"/>
      <point x="42" y="20"/>
      <point x="83" y="-4"/>
      <point x="135" y="-4" type="curve"/>
      <point x="269" y="-4"/>
      <point x="331" y="81"/>
      <point x="331" y="232" type="curve"/>
      <point x="331" y="402"/>
      <point x="331" y="551"/>
      <point x="331" y="722" type="curve"/>
      <point x="246" y="722"/>
      <point x="326" y="722"/>
      <point x="241" y="722" type="curve"/>
      <point x="241" y="551"/>
      <point x="241" y="402"/>
      <point x="241" y="232" type="curve"/>
      <point x="241" y="137"/>
      <point x="219" y="67"/>
      <point x="135" y="67" type="curve"/>
      <point x="101" y="67"/>
      <point x="79" y="82"/>
      <point x="54" y="98" type="curve"/>
      <point x="15" y="46"/>
      <point x="51" y="94"/>
    </contour>
  </outline>
</glyph>
<glyph name="K" format="1">
  <advance width="683"/>
  <unicode hex="004B"/>
  <outline>
    <contour>
      <point x="524" y="722" type="curve"/>
      <point x="474" y="722"/>
      <point x="422" y="722"/>
      <point x="373" y="722" type="curve"/>
      <point x="373" y="652"/>
      <point x="373" y="722"/>
      <point x="373" y="652" type="curve"/>
      <point x="521" y="652"/>
      <point x="375" y="652"/>
      <point x="524" y="652" type="curve"/>
      <point x="524" y="722"/>
      <point x="524" y="652"/>
    </contour>
    <contour>
      <point x="534" y="0" type="curve"/>
      <point x="591" y="0"/>
      <point x="605" y="0"/>
      <point x="662" y="0" type="curve"/>
      <point x="662" y="70"/>
      <point x="662" y="0"/>
      <point x="662" y="70" type="curve"/>
      <point x="493" y="70"/>
      <point x="703" y="70"/>
      <point x="534" y="70" type="curve"/>
      <point x="534" y="0"/>
      <point x="534" y="70"/>
    </contour>
    <contour>
      <point x="513" y="652" type="curve"/>
      <point x="658" y="652"/>
      <point x="490" y="652"/>
      <point x="635" y="652" type="curve"/>
      <point x="635" y="722"/>
      <point x="635" y="652"/>
      <point x="635" y="722" type="curve"/>
      <point x="586" y="722"/>
      <point x="561" y="722"/>
      <point x="513" y="722" type="curve"/>
      <point x="513" y="652"/>
      <point x="513" y="722"/>
    </contour>
    <contour>
      <point x="175" y="722" type="curve"/>
      <point x="127" y="722"/>
      <point x="89" y="722"/>
      <point x="40" y="722" type="curve"/>
      <point x="40" y="652"/>
      <point x="40" y="722"/>
      <point x="40" y="652" type="curve"/>
      <point x="186" y="652"/>
      <point x="29" y="652"/>
      <point x="175" y="652" type="curve"/>
      <point x="175" y="722"/>
      <point x="175" y="652"/>
    </contour>
    <contour>
      <point x="175" y="652" type="curve"/>
      <point x="319" y="652"/>
      <point x="148" y="652"/>
      <point x="293" y="652" type="curve"/>
      <point x="293" y="722"/>
      <point x="293" y="652"/>
      <point x="293" y="722" type="curve"/>
      <point x="244" y="722"/>
      <point x="223" y="722"/>
      <point x="175" y="722" type="curve"/>
      <point x="175" y="652"/>
      <point x="175" y="722"/>
    </contour>
    <contour>
      <point x="175" y="0" type="curve"/>
      <point x="226" y="0"/>
      <point x="146" y="0"/>
      <point x="299" y="0" type="curve"/>
      <point x="299" y="70"/>
      <point x="299" y="0"/>
      <point x="299" y="70" type="curve"/>
      <point x="146" y="70"/>
      <point x="328" y="70"/>
      <point x="175" y="70" type="curve"/>
      <point x="175" y="0"/>
      <point x="175" y="70"/>
    </contour>
    <contour>
      <point x="175" y="70" type="curve"/>
      <point x="29" y="70"/>
      <point x="186" y="70"/>
      <point x="40" y="70" type="curve"/>
      <point x="40" y="0"/>
      <point x="40" y="70"/>
      <point x="40" y="0" type="curve"/>
      <point x="89" y="0"/>
      <point x="127" y="0"/>
      <point x="175" y="0" type="curve"/>
      <point x="175" y="70"/>
      <point x="175" y="0"/>
    </contour>
    <contour>
      <point x="502" y="722" type="curve"/>
      <point x="200" y="380" type="line"/>
      <point x="305" y="380"/>
      <point x="199" y="380"/>
      <point x="304" y="380" type="curve"/>
      <point x="579" y="690" type="line"/>
      <point x="488" y="690"/>
      <point x="593" y="722"/>
    </contour>
    <contour>
      <point x="220" y="0" type="curve"/>
      <point x="220" y="722" type="line"/>
      <point x="130" y="722"/>
      <point x="220" y="722"/>
      <point x="130" y="722" type="curve"/>
      <point x="130" y="481"/>
      <point x="130" y="241"/>
      <point x="130" y="0" type="curve"/>
      <point x="220" y="0"/>
      <point x="130" y="0"/>
    </contour>
    <contour>
      <point x="607" y="28" type="curve"/>
      <point x="304" y="380" type="line"/>
      <point x="199" y="380"/>
      <point x="305" y="380"/>
      <point x="200" y="380" type="curve"/>
      <point x="522" y="0" type="line"/>
      <point x="620" y="0"/>
      <point x="508" y="28"/>
    </contour>
    <contour>
      <point x="381" y="-26" type="move" name="bottom"/>
    </contour>
  </outline>
</glyph>
<glyph name="L" format="1">
  <advance width="578"/>
  <unicode hex="004C"/>
  <outline>
    <contour>
      <point x="550" y="35" type="curve"/>
      <point x="550" y="155"/>
      <point x="550" y="31"/>
      <point x="550" y="151" type="curve"/>
      <point x="479" y="151"/>
      <point x="550" y="151"/>
      <point x="479" y="151" type="curve"/>
      <point x="479" y="31"/>
      <point x="479" y="155"/>
      <point x="479" y="35" type="curve"/>
      <point x="550" y="35"/>
      <point x="479" y="35"/>
    </contour>
    <contour>
      <point x="177" y="70" type="curve"/>
      <point x="29" y="70"/>
      <point x="188" y="70"/>
      <point x="40" y="70" type="curve"/>
      <point x="40" y="0"/>
      <point x="40" y="70"/>
      <point x="40" y="0" type="curve"/>
      <point x="89" y="0"/>
      <point x="127" y="0"/>
      <point x="177" y="0" type="curve"/>
      <point x="177" y="70"/>
      <point x="177" y="0"/>
    </contour>
    <contour>
      <point x="177" y="722" type="curve"/>
      <point x="127" y="722"/>
      <point x="89" y="722"/>
      <point x="40" y="722" type="curve"/>
      <point x="40" y="652"/>
      <point x="40" y="722"/>
      <point x="40" y="652" type="curve"/>
      <point x="188" y="652"/>
      <point x="29" y="652"/>
      <point x="177" y="652" type="curve"/>
      <point x="177" y="722"/>
      <point x="177" y="652"/>
    </contour>
    <contour>
      <point x="177" y="652" type="curve"/>
      <point x="324" y="652"/>
      <point x="165" y="652"/>
      <point x="313" y="652" type="curve"/>
      <point x="313" y="722"/>
      <point x="313" y="652"/>
      <point x="313" y="722" type="curve"/>
      <point x="263" y="722"/>
      <point x="225" y="722"/>
      <point x="177" y="722" type="curve"/>
      <point x="177" y="652"/>
      <point x="177" y="722"/>
    </contour>
    <contour>
      <point x="222" y="0" type="curve"/>
      <point x="222" y="241"/>
      <point x="222" y="481"/>
      <point x="222" y="722" type="curve"/>
      <point x="133" y="722"/>
      <point x="222" y="722"/>
      <point x="133" y="722" type="curve"/>
      <point x="133" y="481"/>
      <point x="133" y="241"/>
      <point x="133" y="0" type="curve"/>
      <point x="222" y="0"/>
      <point x="133" y="0"/>
    </contour>
    <contour>
      <point x="177" y="0" type="curve"/>
      <point x="301" y="0"/>
      <point x="425" y="0"/>
      <point x="550" y="0" type="curve"/>
      <point x="550" y="70"/>
      <point x="550" y="0"/>
      <point x="550" y="70" type="curve"/>
      <point x="425" y="70"/>
      <point x="301" y="70"/>
      <point x="177" y="70" type="curve"/>
      <point x="177" y="0"/>
      <point x="177" y="70"/>
    </contour>
    <contour>
      <point x="178" y="801" type="move" name="top"/>
    </contour>
    <contour>
      <point x="336" y="-24" type="move" name="bottom"/>
    </contour>
  </outline>
</glyph>
<glyph name="M" format="1">
  <advance width="916"/>
  <unicode hex="004D"/>
  <outline>
    <contour>
      <point x="761" y="0" type="curve"/>
      <point x="809" y="0"/>
      <point x="846" y="0"/>
      <point x="894" y="0" type="curve"/>
      <point x="894" y="70"/>
      <point x="894" y="0"/>
      <point x="894" y="70" type="curve"/>
      <point x="750" y="70"/>
      <point x="905" y="70"/>
      <point x="761" y="70" type="curve"/>
      <point x="761" y="0"/>
      <point x="761" y="70"/>
    </contour>
    <contour>
      <point x="761" y="70" type="curve"/>
      <point x="622" y="70"/>
      <point x="773" y="70"/>
      <point x="633" y="70" type="curve"/>
      <point x="633" y="0"/>
      <point x="633" y="70"/>
      <point x="633" y="0" type="curve"/>
      <point x="680" y="0"/>
      <point x="715" y="0"/>
      <point x="761" y="0" type="curve"/>
      <point x="761" y="70"/>
      <point x="761" y="0"/>
    </contour>
    <contour>
      <point x="155" y="70" type="curve"/>
      <point x="11" y="70"/>
      <point x="166" y="70"/>
      <point x="23" y="70" type="curve"/>
      <point x="23" y="0"/>
      <point x="23" y="70"/>
      <point x="23" y="0" type="curve"/>
      <point x="71" y="0"/>
      <point x="108" y="0"/>
      <point x="155" y="0" type="curve"/>
      <point x="155" y="70"/>
      <point x="155" y="0"/>
    </contour>
    <contour>
      <point x="206" y="722" type="curve"/>
      <point x="158" y="722"/>
      <point x="121" y="722"/>
      <point x="73" y="722" type="curve"/>
      <point x="73" y="652"/>
      <point x="73" y="722"/>
      <point x="73" y="652" type="curve"/>
      <point x="217" y="652"/>
      <point x="62" y="652"/>
      <point x="206" y="652" type="curve"/>
      <point x="206" y="722"/>
      <point x="206" y="652"/>
    </contour>
    <contour>
      <point x="709" y="652" type="curve"/>
      <point x="853" y="652"/>
      <point x="698" y="652"/>
      <point x="841" y="652" type="curve"/>
      <point x="841" y="722"/>
      <point x="841" y="652"/>
      <point x="841" y="722" type="curve"/>
      <point x="794" y="722"/>
      <point x="757" y="722"/>
      <point x="709" y="722" type="curve"/>
      <point x="709" y="652"/>
      <point x="709" y="722"/>
    </contour>
    <contour>
      <point x="155" y="0" type="curve"/>
      <point x="202" y="0"/>
      <point x="144" y="0"/>
      <point x="284" y="0" type="curve"/>
      <point x="284" y="70"/>
      <point x="284" y="0"/>
      <point x="284" y="70" type="curve"/>
      <point x="144" y="70"/>
      <point x="295" y="70"/>
      <point x="155" y="70" type="curve"/>
      <point x="155" y="0"/>
      <point x="155" y="70"/>
    </contour>
    <contour>
      <point x="811" y="0" type="curve"/>
      <point x="792" y="241"/>
      <point x="771" y="481"/>
      <point x="753" y="722" type="curve"/>
      <point x="671" y="722"/>
      <point x="753" y="722"/>
      <point x="671" y="722" type="curve"/>
      <point x="689" y="481"/>
      <point x="703" y="241"/>
      <point x="721" y="0" type="curve"/>
      <point x="811" y="0"/>
      <point x="721" y="0"/>
    </contour>
    <contour>
      <point x="194" y="0" type="curve"/>
      <point x="210" y="241"/>
      <point x="227" y="481"/>
      <point x="243" y="722" type="curve"/>
      <point x="164" y="722"/>
      <point x="243" y="722"/>
      <point x="164" y="722" type="curve"/>
      <point x="146" y="481"/>
      <point x="129" y="241"/>
      <point x="112" y="0" type="curve"/>
      <point x="194" y="0"/>
      <point x="112" y="0"/>
    </contour>
    <contour>
      <point x="495" y="0" type="curve"/>
      <point x="412" y="241"/>
      <point x="329" y="481"/>
      <point x="246" y="722" type="curve"/>
      <point x="166" y="722"/>
      <point x="246" y="722"/>
      <point x="166" y="722" type="curve"/>
      <point x="249" y="481"/>
      <point x="331" y="241"/>
      <point x="413" y="0" type="curve"/>
      <point x="495" y="0"/>
      <point x="414" y="0"/>
    </contour>
    <contour>
      <point x="503" y="0" type="curve"/>
      <point x="584" y="241"/>
      <point x="665" y="481"/>
      <point x="746" y="722" type="curve"/>
      <point x="666" y="722"/>
      <point x="746" y="722"/>
      <point x="666" y="722" type="curve"/>
      <point x="584" y="481"/>
      <point x="502" y="241"/>
      <point x="420" y="0" type="curve"/>
      <point x="503" y="0"/>
      <point x="421" y="0"/>
    </contour>
  </outline>
</glyph>
<glyph name="N" format="1">
  <advance width="817"/>
  <unicode hex="004E"/>
  <outline>
    <contour>
      <point x="177" y="722" type="curve"/>
      <point x="128" y="722"/>
      <point x="90" y="722"/>
      <point x="42" y="722" type="curve"/>
      <point x="42" y="652"/>
      <point x="42" y="722"/>
      <point x="42" y="652" type="curve"/>
      <point x="188" y="652"/>
      <point x="30" y="652"/>
      <point x="177" y="652" type="curve"/>
      <point x="177" y="722"/>
      <point x="177" y="652"/>
    </contour>
    <contour>
      <point x="653" y="652" type="curve"/>
      <point x="798" y="652"/>
      <point x="642" y="652"/>
      <point x="787" y="652" type="curve"/>
      <point x="787" y="722"/>
      <point x="787" y="652"/>
      <point x="787" y="722" type="curve"/>
      <point x="738" y="722"/>
      <point x="701" y="722"/>
      <point x="653" y="722" type="curve"/>
      <point x="653" y="652"/>
      <point x="653" y="722"/>
    </contour>
    <contour>
      <point x="656" y="722" type="curve"/>
      <point x="608" y="722"/>
      <point x="571" y="722"/>
      <point x="523" y="722" type="curve"/>
      <point x="523" y="652"/>
      <point x="523" y="722"/>
      <point x="523" y="652" type="curve"/>
      <point x="667" y="652"/>
      <point x="512" y="652"/>
      <point x="656" y="652" type="curve"/>
      <point x="656" y="722"/>
      <point x="656" y="652"/>
    </contour>
    <contour>
      <point x="176" y="70" type="curve"/>
      <point x="30" y="70"/>
      <point x="187" y="70"/>
      <point x="41" y="70" type="curve"/>
      <point x="40" y="0"/>
      <point x="41" y="70"/>
      <point x="40" y="0" type="curve"/>
      <point x="89" y="0"/>
      <point x="127" y="0"/>
      <point x="176" y="0" type="curve"/>
      <point x="176" y="70"/>
      <point x="176" y="0"/>
    </contour>
    <contour>
      <point x="176" y="0" type="curve"/>
      <point x="223" y="0"/>
      <point x="164" y="0"/>
      <point x="308" y="0" type="curve"/>
      <point x="308" y="70"/>
      <point x="308" y="0"/>
      <point x="308" y="70" type="curve"/>
      <point x="164" y="70"/>
      <point x="319" y="70"/>
      <point x="176" y="70" type="curve"/>
      <point x="176" y="0"/>
      <point x="176" y="70"/>
    </contour>
    <contour>
      <point x="699" y="0" type="curve"/>
      <point x="541" y="241"/>
      <point x="384" y="481"/>
      <point x="227" y="722" type="curve"/>
      <point x="128" y="722"/>
      <point x="227" y="722"/>
      <point x="128" y="722" type="curve"/>
      <point x="285" y="481"/>
      <point x="442" y="241"/>
      <point x="600" y="0" type="curve"/>
      <point x="699" y="0"/>
      <point x="600" y="0"/>
    </contour>
    <contour>
      <point x="610" y="722" type="curve"/>
      <point x="610" y="481"/>
      <point x="610" y="241"/>
      <point x="610" y="0" type="curve"/>
      <point x="699" y="0"/>
      <point x="610" y="0"/>
      <point x="699" y="0" type="curve"/>
      <point x="699" y="241"/>
      <point x="699" y="481"/>
      <point x="699" y="722" type="curve"/>
      <point x="610" y="722"/>
      <point x="699" y="722"/>
    </contour>
    <contour>
      <point x="220" y="0" type="curve"/>
      <point x="220" y="241"/>
      <point x="220" y="481"/>
      <point x="220" y="722" type="curve"/>
      <point x="130" y="722"/>
      <point x="220" y="722"/>
      <point x="130" y="722" type="curve"/>
      <point x="130" y="481"/>
      <point x="130" y="241"/>
      <point x="130" y="0" type="curve"/>
      <point x="220" y="0"/>
      <point x="130" y="0"/>
    </contour>
    <contour>
      <point x="415" y="801" type="move" name="top"/>
    </contour>
    <contour>
      <point x="440" y="-26" type="move" name="bottom"/>
    </contour>
  </outline>
</glyph>
<glyph name="P" format="1">
  <advance width="600"/>
  <unicode hex="0050"/>
  <outline>
    <contour>
      <point x="191" y="722" type="curve"/>
      <point x="144" y="722"/>
      <point x="102" y="722"/>
      <point x="55" y="722" type="curve"/>
      <point x="55" y="652"/>
      <point x="55" y="722"/>
      <point x="55" y="652" type="curve"/>
      <point x="198" y="652"/>
      <point x="48" y="652"/>
      <point x="191" y="652" type="curve"/>
      <point x="191" y="722"/>
      <point x="191" y="652"/>
    </contour>
    <contour>
      <point x="191" y="70" type="curve"/>
      <point x="48" y="70"/>
      <point x="198" y="70"/>
      <point x="55" y="70" type="curve"/>
      <point x="55" y="0"/>
      <point x="55" y="70"/>
      <point x="55" y="0" type="curve"/>
      <point x="102" y="0"/>
      <point x="144" y="0"/>
      <point x="191" y="0" type="curve"/>
      <point x="191" y="70"/>
      <point x="191" y="0"/>
    </contour>
    <contour>
      <point x="191" y="0" type="curve"/>
      <point x="239" y="0"/>
      <point x="184" y="0"/>
      <point x="327" y="0" type="curve"/>
      <point x="327" y="70"/>
      <point x="327" y="0"/>
      <point x="327" y="70" type="curve"/>
      <point x="184" y="70"/>
      <point x="334" y="70"/>
      <point x="191" y="70" type="curve"/>
      <point x="191" y="0"/>
      <point x="191" y="70"/>
    </contour>
    <contour>
      <point x="178" y="309" type="curve"/>
      <point x="228" y="282"/>
      <point x="282" y="264"/>
      <point x="342" y="264" type="curve"/>
      <point x="474" y="266"/>
      <point x="556" y="345"/>
      <point x="556" y="485" type="curve"/>
      <point x="556" y="631"/>
      <point x="459" y="722"/>
      <point x="312" y="722" type="curve"/>
      <point x="272" y="722"/>
      <point x="233" y="722"/>
      <point x="194" y="722" type="curve"/>
      <point x="194" y="652"/>
      <point x="194" y="722"/>
      <point x="194" y="652" type="curve"/>
      <point x="229" y="652"/>
      <point x="264" y="652"/>
      <point x="300" y="652" type="curve"/>
      <point x="402" y="652"/>
      <point x="466" y="588"/>
      <point x="466" y="487" type="curve"/>
      <point x="466" y="394"/>
      <point x="418" y="332"/>
      <point x="333" y="332" type="curve"/>
      <point x="283" y="332"/>
      <point x="250" y="346"/>
      <point x="207" y="369" type="curve"/>
      <point x="179" y="311"/>
      <point x="207" y="369"/>
    </contour>
    <contour>
      <point x="235" y="0" type="curve"/>
      <point x="235" y="241"/>
      <point x="235" y="481"/>
      <point x="235" y="722" type="curve"/>
      <point x="145" y="722"/>
      <point x="235" y="722"/>
      <point x="145" y="722" type="curve"/>
      <point x="145" y="481"/>
      <point x="145" y="241"/>
      <point x="145" y="0" type="curve"/>
      <point x="235" y="0"/>
      <point x="145" y="0"/>
    </contour>
  </outline>
</glyph>
<glyph name="Q" format="1">
  <advance width="720"/>
  <unicode hex="0051"/>
  <outline>
    <contour>
      <point x="327" y="16" type="curve"/>
      <point x="419" y="-156"/>
      <point x="531" y="-224"/>
      <point x="715" y="-224" type="curve"/>
      <point x="715" y="-151"/>
      <point x="715" y="-224"/>
      <point x="715" y="-151" type="curve"/>
      <point x="566" y="-151"/>
      <point x="481" y="-90"/>
      <point x="404" y="51" type="curve"/>
      <point x="327" y="16"/>
      <point x="404" y="51"/>
    </contour>
    <contour>
      <point x="148" y="360" type="curve"/>
      <point x="148" y="524"/>
      <point x="206" y="651"/>
      <point x="356" y="651" type="curve"/>
      <point x="507" y="651"/>
      <point x="568" y="526"/>
      <point x="568" y="361" type="curve"/>
      <point x="568" y="197"/>
      <point x="512" y="68"/>
      <point x="362" y="68" type="curve"/>
      <point x="209" y="69"/>
      <point x="148" y="194"/>
      <point x="148" y="360" type="curve"/>
      <point x="58" y="360"/>
      <point x="148" y="360"/>
      <point x="58" y="360" type="curve"/>
      <point x="58" y="147"/>
      <point x="158" y="-5"/>
      <point x="358" y="-5" type="curve"/>
      <point x="560" y="-5"/>
      <point x="658" y="150"/>
      <point x="658" y="365" type="curve"/>
      <point x="658" y="577"/>
      <point x="561" y="730"/>
      <point x="362" y="730" type="curve"/>
      <point x="160" y="730"/>
      <point x="58" y="574"/>
      <point x="58" y="360" type="curve"/>
      <point x="148" y="360"/>
      <point x="58" y="360"/>
    </contour>
  </outline>
</glyph>
<glyph name="R" format="1">
  <advance width="709"/>
  <unicode hex="0052"/>
  <outline>
    <contour>
      <point x="571" y="0" type="curve"/>
      <point x="613" y="0"/>
      <point x="649" y="0"/>
      <point x="692" y="0" type="curve"/>
      <point x="692" y="70"/>
      <point x="692" y="0"/>
      <point x="692" y="70" type="curve"/>
      <point x="564" y="70"/>
      <point x="699" y="70"/>
      <point x="571" y="70" type="curve"/>
      <point x="571" y="0"/>
      <point x="571" y="70"/>
    </contour>
    <contour>
      <point x="189" y="722" type="curve"/>
      <point x="141" y="722"/>
      <point x="100" y="722"/>
      <point x="54" y="722" type="curve"/>
      <point x="54" y="652"/>
      <point x="54" y="722"/>
      <point x="54" y="652" type="curve"/>
      <point x="196" y="652"/>
      <point x="47" y="652"/>
      <point x="189" y="652" type="curve"/>
      <point x="189" y="722"/>
      <point x="189" y="652"/>
    </contour>
    <contour>
      <point x="189" y="70" type="curve"/>
      <point x="47" y="70"/>
      <point x="196" y="70"/>
      <point x="54" y="70" type="curve"/>
      <point x="54" y="0"/>
      <point x="54" y="70"/>
      <point x="54" y="0" type="curve"/>
      <point x="100" y="0"/>
      <point x="141" y="0"/>
      <point x="189" y="0" type="curve"/>
      <point x="189" y="70"/>
      <point x="189" y="0"/>
    </contour>
    <contour>
      <point x="189" y="0" type="curve"/>
      <point x="236" y="0"/>
      <point x="182" y="0"/>
      <point x="324" y="0" type="curve"/>
      <point x="324" y="70"/>
      <point x="324" y="0"/>
      <point x="324" y="70" type="curve"/>
      <point x="182" y="70"/>
      <point x="330" y="70"/>
      <point x="189" y="70" type="curve"/>
      <point x="189" y="0"/>
      <point x="189" y="70"/>
    </contour>
    <contour>
      <point x="323" y="354" type="curve"/>
      <point x="384" y="251"/>
      <point x="482" y="103"/>
      <point x="543" y="0" type="curve"/>
      <point x="638" y="0"/>
      <point x="543" y="5"/>
      <point x="637" y="5" type="curve"/>
      <point x="578" y="107"/>
      <point x="482" y="252"/>
      <point x="422" y="354" type="curve"/>
      <point x="323" y="354"/>
      <point x="422" y="354"/>
    </contour>
    <contour>
      <point x="235" y="0" type="curve"/>
      <point x="235" y="241"/>
      <point x="235" y="481"/>
      <point x="235" y="722" type="curve"/>
      <point x="145" y="722"/>
      <point x="235" y="722"/>
      <point x="145" y="722" type="curve"/>
      <point x="145" y="481"/>
      <point x="145" y="241"/>
      <point x="145" y="0" type="curve"/>
      <point x="235" y="0"/>
      <point x="145" y="0"/>
    </contour>
    <contour>
      <point x="192" y="317" type="curve"/>
      <point x="243" y="317"/>
      <point x="294" y="317"/>
      <point x="346" y="317" type="curve"/>
      <point x="484" y="317"/>
      <point x="571" y="388"/>
      <point x="571" y="527" type="curve"/>
      <point x="571" y="657"/>
      <point x="486" y="722"/>
      <point x="352" y="722" type="curve"/>
      <point x="298" y="722"/>
      <point x="246" y="722"/>
      <point x="192" y="722" type="curve"/>
      <point x="192" y="652"/>
      <point x="192" y="722"/>
      <point x="192" y="652" type="curve"/>
      <point x="241" y="652"/>
      <point x="287" y="652"/>
      <point x="336" y="652" type="curve"/>
      <point x="426" y="652"/>
      <point x="480" y="608"/>
      <point x="480" y="520" type="curve"/>
      <point x="480" y="435"/>
      <point x="433" y="387"/>
      <point x="348" y="387" type="curve"/>
      <point x="296" y="387"/>
      <point x="243" y="387"/>
      <point x="192" y="387" type="curve"/>
      <point x="192" y="317"/>
      <point x="192" y="387"/>
    </contour>
    <contour>
      <point x="312" y="801" type="move" name="top"/>
    </contour>
    <contour>
      <point x="406" y="-27" type="move" name="bottom"/>
    </contour>
  </outline>
</glyph>
<glyph name="T" format="1">
  <advance width="618"/>
  <unicode hex="0054"/>
  <outline>
    <contour>
      <point x="35" y="686" type="curve"/>
      <point x="35" y="566"/>
      <point x="35" y="690"/>
      <point x="35" y="570" type="curve"/>
      <point x="106" y="570"/>
      <point x="35" y="570"/>
      <point x="106" y="570" type="curve"/>
      <point x="106" y="690"/>
      <point x="106" y="566"/>
      <point x="106" y="686" type="curve"/>
      <point x="35" y="686"/>
      <point x="106" y="686"/>
    </contour>
    <contour>
      <point x="512" y="686" type="curve"/>
      <point x="512" y="566"/>
      <point x="512" y="690"/>
      <point x="512" y="570" type="curve"/>
      <point x="583" y="570"/>
      <point x="512" y="570"/>
      <point x="583" y="570" type="curve"/>
      <point x="583" y="690"/>
      <point x="583" y="566"/>
      <point x="583" y="686" type="curve"/>
      <point x="512" y="686"/>
      <point x="583" y="686"/>
    </contour>
    <contour>
      <point x="308" y="0" type="curve"/>
      <point x="354" y="0"/>
      <point x="398" y="0"/>
      <point x="444" y="0" type="curve"/>
      <point x="444" y="70"/>
      <point x="444" y="0"/>
      <point x="444" y="70" type="curve"/>
      <point x="305" y="70"/>
      <point x="448" y="70"/>
      <point x="308" y="70" type="curve"/>
      <point x="308" y="0"/>
      <point x="308" y="70"/>
    </contour>
    <contour>
      <point x="308" y="70" type="curve"/>
      <point x="168" y="70"/>
      <point x="311" y="70"/>
      <point x="171" y="70" type="curve"/>
      <point x="171" y="0"/>
      <point x="171" y="70"/>
      <point x="171" y="0" type="curve"/>
      <point x="218" y="0"/>
      <point x="262" y="0"/>
      <point x="308" y="0" type="curve"/>
      <point x="308" y="70"/>
      <point x="308" y="0"/>
    </contour>
    <contour>
      <point x="354" y="0" type="curve"/>
      <point x="354" y="237"/>
      <point x="354" y="473"/>
      <point x="354" y="710" type="curve"/>
      <point x="264" y="710"/>
      <point x="354" y="710"/>
      <point x="264" y="710" type="curve"/>
      <point x="264" y="473"/>
      <point x="264" y="237"/>
      <point x="264" y="0" type="curve"/>
      <point x="354" y="0"/>
      <point x="264" y="0"/>
    </contour>
    <contour>
      <point x="35" y="648" type="curve"/>
      <point x="217" y="648"/>
      <point x="401" y="648"/>
      <point x="583" y="648" type="curve"/>
      <point x="583" y="725"/>
      <point x="583" y="645"/>
      <point x="583" y="722" type="curve"/>
      <point x="401" y="722"/>
      <point x="217" y="722"/>
      <point x="35" y="722" type="curve"/>
      <point x="35" y="645"/>
      <point x="35" y="725"/>
    </contour>
    <contour>
      <point x="308" y="801" type="move" name="top"/>
    </contour>
    <contour>
      <point x="341" y="-26" type="move" name="bottom"/>
    </contour>
  </outline>
</glyph>
<glyph name="V" format="1">
  <advance width="732"/>
  <unicode hex="0056"/>
  <outline>
    <contour>
      <point x="588" y="722" type="curve"/>
      <point x="540" y="722"/>
      <point x="495" y="722"/>
      <point x="446" y="722" type="curve"/>
      <point x="446" y="652"/>
      <point x="446" y="722"/>
      <point x="446" y="652" type="curve"/>
      <point x="592" y="652"/>
      <point x="443" y="652"/>
      <point x="588" y="652" type="curve"/>
      <point x="588" y="722"/>
      <point x="588" y="652"/>
    </contour>
    <contour>
      <point x="119" y="722" type="curve"/>
      <point x="76" y="722"/>
      <point x="36" y="722"/>
      <point x="-7" y="722" type="curve"/>
      <point x="-7" y="652"/>
      <point x="-7" y="722"/>
      <point x="-7" y="652" type="curve"/>
      <point x="122" y="652"/>
      <point x="-10" y="652"/>
      <point x="119" y="652" type="curve"/>
      <point x="119" y="722"/>
      <point x="119" y="652"/>
    </contour>
    <contour>
      <point x="595" y="652" type="curve"/>
      <point x="724" y="652"/>
      <point x="592" y="652"/>
      <point x="721" y="652" type="curve"/>
      <point x="721" y="722"/>
      <point x="721" y="652"/>
      <point x="721" y="722" type="curve"/>
      <point x="678" y="722"/>
      <point x="638" y="722"/>
      <point x="595" y="722" type="curve"/>
      <point x="595" y="652"/>
      <point x="595" y="722"/>
    </contour>
    <contour>
      <point x="126" y="652" type="curve"/>
      <point x="271" y="652"/>
      <point x="122" y="652"/>
      <point x="267" y="652" type="curve"/>
      <point x="267" y="722"/>
      <point x="267" y="652"/>
      <point x="267" y="722" type="curve"/>
      <point x="220" y="722"/>
      <point x="174" y="722"/>
      <point x="126" y="722" type="curve"/>
      <point x="126" y="652"/>
      <point x="126" y="722"/>
    </contour>
    <contour>
      <point x="562" y="722" type="curve"/>
      <point x="481" y="481"/>
      <point x="401" y="241"/>
      <point x="322" y="0" type="curve"/>
      <point x="414" y="0"/>
      <point x="315" y="0"/>
      <point x="408" y="0" type="curve"/>
      <point x="490" y="241"/>
      <point x="571" y="481"/>
      <point x="654" y="722" type="curve"/>
      <point x="562" y="722"/>
      <point x="654" y="722"/>
    </contour>
    <contour>
      <point x="60" y="722" type="curve"/>
      <point x="143" y="481"/>
      <point x="227" y="241"/>
      <point x="310" y="0" type="curve"/>
      <point x="403" y="0"/>
      <point x="305" y="0"/>
      <point x="398" y="0" type="curve"/>
      <point x="317" y="241"/>
      <point x="236" y="481"/>
      <point x="154" y="722" type="curve"/>
      <point x="61" y="722"/>
      <point x="154" y="722"/>
    </contour>
  </outline>
</glyph>
<glyph name="W" format="1">
  <advance width="915"/>
  <unicode hex="0057"/>
  <outline>
    <contour>
      <point x="135" y="652" type="curve"/>
      <point x="261" y="652"/>
      <point x="132" y="652"/>
      <point x="258" y="652" type="curve"/>
      <point x="258" y="722"/>
      <point x="258" y="652"/>
      <point x="258" y="722" type="curve"/>
      <point x="216" y="722"/>
      <point x="177" y="722"/>
      <point x="135" y="722" type="curve"/>
      <point x="135" y="652"/>
      <point x="135" y="722"/>
    </contour>
    <contour>
      <point x="131" y="722" type="curve"/>
      <point x="87" y="722"/>
      <point x="46" y="722"/>
      <point x="3" y="722" type="curve"/>
      <point x="3" y="652"/>
      <point x="3" y="722"/>
      <point x="3" y="652" type="curve"/>
      <point x="134" y="652"/>
      <point x="-1" y="652"/>
      <point x="131" y="652" type="curve"/>
      <point x="131" y="722"/>
      <point x="131" y="652"/>
    </contour>
    <contour>
      <point x="775" y="722" type="curve"/>
      <point x="733" y="722"/>
      <point x="693" y="722"/>
      <point x="652" y="722" type="curve"/>
      <point x="652" y="652"/>
      <point x="652" y="722"/>
      <point x="652" y="652" type="curve"/>
      <point x="778" y="652"/>
      <point x="649" y="652"/>
      <point x="775" y="652" type="curve"/>
      <point x="775" y="722"/>
      <point x="775" y="652"/>
    </contour>
    <contour>
      <point x="777" y="652" type="curve"/>
      <point x="908" y="652"/>
      <point x="774" y="652"/>
      <point x="905" y="652" type="curve"/>
      <point x="905" y="722"/>
      <point x="905" y="652"/>
      <point x="905" y="722" type="curve"/>
      <point x="862" y="722"/>
      <point x="820" y="722"/>
      <point x="777" y="722" type="curve"/>
      <point x="777" y="652"/>
      <point x="777" y="722"/>
    </contour>
    <contour>
      <point x="318" y="0" type="curve"/>
      <point x="378" y="241"/>
      <point x="436" y="481"/>
      <point x="495" y="722" type="curve"/>
      <point x="415" y="722"/>
      <point x="496" y="722"/>
      <point x="416" y="722" type="curve"/>
      <point x="360" y="481"/>
      <point x="304" y="242"/>
      <point x="248" y="0" type="curve"/>
      <point x="323" y="0"/>
      <point x="243" y="0"/>
    </contour>
    <contour>
      <point x="424" y="722" type="curve"/>
      <point x="477" y="481"/>
      <point x="529" y="241"/>
      <point x="582" y="0" type="curve"/>
      <point x="658" y="0"/>
      <point x="576" y="0"/>
      <point x="651" y="0" type="curve"/>
      <point x="602" y="243"/>
      <point x="553" y="481"/>
      <point x="502" y="722" type="curve"/>
      <point x="422" y="722"/>
      <point x="504" y="722"/>
    </contour>
    <contour>
      <point x="76" y="722" type="curve"/>
      <point x="130" y="481"/>
      <point x="184" y="241"/>
      <point x="237" y="0" type="curve"/>
      <point x="313" y="0"/>
      <point x="237" y="0"/>
      <point x="313" y="0" type="curve"/>
      <point x="261" y="241"/>
      <point x="210" y="481"/>
      <point x="158" y="722" type="curve"/>
      <point x="76" y="722"/>
      <point x="158" y="722"/>
    </contour>
    <contour>
      <point x="749" y="722" type="curve"/>
      <point x="695" y="481"/>
      <point x="642" y="241"/>
      <point x="589" y="0" type="curve"/>
      <point x="665" y="0"/>
      <point x="588" y="0"/>
      <point x="664" y="0" type="curve"/>
      <point x="719" y="241"/>
      <point x="775" y="481"/>
      <point x="832" y="722" type="curve"/>
      <point x="749" y="722"/>
      <point x="832" y="722"/>
    </contour>
  </outline>
</glyph>
<glyph name="X" format="1">
  <advance width="685"/>
  <unicode hex="0058"/>
  <outline>
    <contour>
      <point x="146" y="0" type="curve"/>
      <point x="192" y="0"/>
      <point x="142" y="0"/>
      <point x="282" y="0" type="curve"/>
      <point x="282" y="70"/>
      <point x="282" y="0"/>
      <point x="282" y="70" type="curve"/>
      <point x="142" y="70"/>
      <point x="285" y="70"/>
      <point x="146" y="70" type="curve"/>
      <point x="146" y="0"/>
      <point x="146" y="70"/>
    </contour>
    <contour>
      <point x="138" y="70" type="curve"/>
      <point x="5" y="70"/>
      <point x="141" y="70"/>
      <point x="8" y="70" type="curve"/>
      <point x="8" y="0"/>
      <point x="8" y="70"/>
      <point x="8" y="0" type="curve"/>
      <point x="52" y="0"/>
      <point x="94" y="0"/>
      <point x="138" y="0" type="curve"/>
      <point x="138" y="70"/>
      <point x="138" y="0"/>
    </contour>
    <contour>
      <point x="544" y="0" type="curve"/>
      <point x="588" y="0"/>
      <point x="630" y="0"/>
      <point x="674" y="0" type="curve"/>
      <point x="674" y="70"/>
      <point x="674" y="0"/>
      <point x="674" y="70" type="curve"/>
      <point x="541" y="70"/>
      <point x="677" y="70"/>
      <point x="544" y="70" type="curve"/>
      <point x="544" y="0"/>
      <point x="544" y="70"/>
    </contour>
    <contour>
      <point x="536" y="70" type="curve"/>
      <point x="397" y="70"/>
      <point x="539" y="70"/>
      <point x="400" y="70" type="curve"/>
      <point x="400" y="0"/>
      <point x="400" y="70"/>
      <point x="400" y="0" type="curve"/>
      <point x="446" y="0"/>
      <point x="490" y="0"/>
      <point x="536" y="0" type="curve"/>
      <point x="536" y="70"/>
      <point x="536" y="0"/>
    </contour>
    <contour>
      <point x="523" y="652" type="curve"/>
      <point x="656" y="652"/>
      <point x="520" y="652"/>
      <point x="653" y="652" type="curve"/>
      <point x="653" y="722"/>
      <point x="653" y="652"/>
      <point x="653" y="722" type="curve"/>
      <point x="609" y="722"/>
      <point x="567" y="722"/>
      <point x="523" y="722" type="curve"/>
      <point x="523" y="652"/>
      <point x="523" y="722"/>
    </contour>
    <contour>
      <point x="529" y="722" type="curve"/>
      <point x="481" y="722"/>
      <point x="436" y="722"/>
      <point x="388" y="722" type="curve"/>
      <point x="388" y="652"/>
      <point x="388" y="722"/>
      <point x="388" y="652" type="curve"/>
      <point x="532" y="652"/>
      <point x="385" y="652"/>
      <point x="529" y="652" type="curve"/>
      <point x="529" y="722"/>
      <point x="529" y="652"/>
    </contour>
    <contour>
      <point x="164" y="722" type="curve"/>
      <point x="120" y="722"/>
      <point x="78" y="722"/>
      <point x="34" y="722" type="curve"/>
      <point x="34" y="652"/>
      <point x="34" y="722"/>
      <point x="34" y="652" type="curve"/>
      <point x="167" y="652"/>
      <point x="31" y="652"/>
      <point x="164" y="652" type="curve"/>
      <point x="164" y="722"/>
      <point x="164" y="652"/>
    </contour>
    <contour>
      <point x="158" y="652" type="curve"/>
      <point x="302" y="652"/>
      <point x="155" y="652"/>
      <point x="299" y="652" type="curve"/>
      <point x="299" y="722"/>
      <point x="299" y="652"/>
      <point x="299" y="722" type="curve"/>
      <point x="251" y="722"/>
      <point x="206" y="722"/>
      <point x="158" y="722" type="curve"/>
      <point x="158" y="652"/>
      <point x="158" y="722"/>
    </contour>
    <contour>
      <point x="507" y="722" type="curve"/>
      <point x="361" y="483"/>
      <point x="215" y="246"/>
      <point x="70" y="7" type="curve"/>
      <point x="161" y="7"/>
      <point x="70" y="0"/>
      <point x="161" y="0" type="curve"/>
      <point x="306" y="239"/>
      <point x="449" y="477"/>
      <point x="594" y="716" type="curve"/>
      <point x="507" y="716"/>
      <point x="594" y="722"/>
    </contour>
    <contour>
      <point x="95" y="716" type="curve"/>
      <point x="238" y="477"/>
      <point x="380" y="239"/>
      <point x="524" y="0" type="curve"/>
      <point x="614" y="0"/>
      <point x="524" y="5"/>
      <point x="614" y="5" type="curve"/>
      <point x="470" y="244"/>
      <point x="326" y="483"/>
      <point x="181" y="722" type="curve"/>
      <point x="95" y="722"/>
      <point x="181" y="716"/>
    </contour>
  </outline>
</glyph>
<glyph name="Y" format="1">
  <advance width="640"/>
  <unicode hex="0059"/>
  <outline>
    <contour>
      <point x="309" y="70" type="curve"/>
      <point x="170" y="70"/>
      <point x="313" y="70"/>
      <point x="173" y="70" type="curve"/>
      <point x="173" y="0"/>
      <point x="173" y="70"/>
      <point x="173" y="0" type="curve"/>
      <point x="219" y="0"/>
      <point x="263" y="0"/>
      <point x="309" y="0" type="curve"/>
      <point x="309" y="70"/>
      <point x="309" y="0"/>
    </contour>
    <contour>
      <point x="309" y="0" type="curve"/>
      <point x="356" y="0"/>
      <point x="400" y="0"/>
      <point x="446" y="0" type="curve"/>
      <point x="446" y="70"/>
      <point x="446" y="0"/>
      <point x="446" y="70" type="curve"/>
      <point x="306" y="70"/>
      <point x="449" y="70"/>
      <point x="309" y="70" type="curve"/>
      <point x="309" y="0"/>
      <point x="309" y="70"/>
    </contour>
    <contour>
      <point x="499" y="722" type="curve"/>
      <point x="454" y="722"/>
      <point x="412" y="722"/>
      <point x="367" y="722" type="curve"/>
      <point x="367" y="652"/>
      <point x="367" y="722"/>
      <point x="367" y="652" type="curve"/>
      <point x="502" y="652"/>
      <point x="364" y="652"/>
      <point x="499" y="652" type="curve"/>
      <point x="499" y="722"/>
      <point x="499" y="652"/>
    </contour>
    <contour>
      <point x="123" y="722" type="curve"/>
      <point x="82" y="722"/>
      <point x="45" y="722"/>
      <point x="4" y="722" type="curve"/>
      <point x="4" y="652"/>
      <point x="4" y="722"/>
      <point x="4" y="652" type="curve"/>
      <point x="126" y="652"/>
      <point x="1" y="652"/>
      <point x="123" y="652" type="curve"/>
      <point x="123" y="722"/>
      <point x="123" y="652"/>
    </contour>
    <contour>
      <point x="131" y="652" type="curve"/>
      <point x="266" y="652"/>
      <point x="128" y="652"/>
      <point x="263" y="652" type="curve"/>
      <point x="263" y="722"/>
      <point x="263" y="652"/>
      <point x="263" y="722" type="curve"/>
      <point x="218" y="722"/>
      <point x="176" y="722"/>
      <point x="131" y="722" type="curve"/>
      <point x="131" y="652"/>
      <point x="131" y="722"/>
    </contour>
    <contour>
      <point x="507" y="652" type="curve"/>
      <point x="632" y="652"/>
      <point x="504" y="652"/>
      <point x="628" y="652" type="curve"/>
      <point x="628" y="722"/>
      <point x="628" y="652"/>
      <point x="628" y="722" type="curve"/>
      <point x="587" y="722"/>
      <point x="548" y="722"/>
      <point x="507" y="722" type="curve"/>
      <point x="507" y="652"/>
      <point x="507" y="722"/>
    </contour>
    <contour>
      <point x="60" y="716" type="curve"/>
      <point x="128" y="590"/>
      <point x="194" y="465"/>
      <point x="261" y="337" type="curve"/>
      <point x="353" y="337"/>
      <point x="253" y="337"/>
      <point x="345" y="337" type="curve"/>
      <point x="279" y="467"/>
      <point x="215" y="593"/>
      <point x="148" y="722" type="curve"/>
      <point x="60" y="722"/>
      <point x="148" y="716"/>
    </contour>
    <contour>
      <point x="483" y="722" type="curve"/>
      <point x="411" y="592"/>
      <point x="343" y="467"/>
      <point x="271" y="337" type="curve"/>
      <point x="362" y="337"/>
      <point x="266" y="337"/>
      <point x="357" y="337" type="curve"/>
      <point x="429" y="464"/>
      <point x="499" y="590"/>
      <point x="570" y="717" type="curve"/>
      <point x="483" y="717"/>
      <point x="570" y="722"/>
    </contour>
    <contour>
      <point x="358" y="0" type="curve"/>
      <point x="358" y="115"/>
      <point x="358" y="227"/>
      <point x="358" y="342" type="curve"/>
      <point x="260" y="342"/>
      <point x="358" y="342"/>
      <point x="260" y="342" type="curve"/>
      <point x="260" y="227"/>
      <point x="260" y="115"/>
      <point x="260" y="0" type="curve"/>
      <point x="358" y="0"/>
      <point x="260" y="0"/>
    </contour>
    <contour>
      <point x="313" y="801" type="move" name="top"/>
    </contour>
  </outline>
</glyph>
<glyph name="bracketleft" format="1">
  <advance width="294"/>
  <unicode hex="005B"/>
  <outline>
    <contour>
      <point x="251" y="770" type="curve"/>
      <point x="206" y="770"/>
      <point x="161" y="770"/>
      <point x="115" y="770" type="curve"/>
      <point x="105" y="770"/>
      <point x="86" y="770"/>
      <point x="76" y="770" type="curve"/>
      <point x="76" y="760"/>
      <point x="76" y="747"/>
      <point x="76" y="737" type="curve"/>
      <point x="76" y="462"/>
      <point x="76" y="188"/>
      <point x="76" y="-87" type="curve"/>
      <point x="76" y="-97"/>
      <point x="76" y="-106"/>
      <point x="76" y="-118" type="curve"/>
      <point x="86" y="-118"/>
      <point x="104" y="-118"/>
      <point x="114" y="-118" type="curve"/>
      <point x="160" y="-118"/>
      <point x="205" y="-118"/>
      <point x="251" y="-118" type="curve"/>
      <point x="251" y="-41"/>
      <point x="251" y="-118"/>
      <point x="251" y="-41" type="curve"/>
      <point x="205" y="-41"/>
      <point x="160" y="-41"/>
      <point x="114" y="-41" type="curve"/>
      <point x="166" y="-41"/>
      <point x="114" y="-41"/>
      <point x="166" y="-41" type="curve"/>
      <point x="166" y="-87"/>
      <point x="166" y="-41"/>
      <point x="166" y="-87" type="curve"/>
      <point x="166" y="188"/>
      <point x="166" y="462"/>
      <point x="166" y="737" type="curve"/>
      <point x="166" y="693"/>
      <point x="166" y="737"/>
      <point x="166" y="693" type="curve"/>
      <point x="115" y="693"/>
      <point x="166" y="693"/>
      <point x="115" y="693" type="curve"/>
      <point x="161" y="693"/>
      <point x="206" y="693"/>
      <point x="251" y="693" type="curve"/>
      <point x="251" y="770"/>
      <point x="251" y="693"/>
    </contour>
  </outline>
</glyph>
<glyph name="bracketright" format="1">
  <advance width="295"/>
  <unicode hex="005D"/>
  <outline>
    <contour>
      <point x="44" y="693" type="curve"/>
      <point x="89" y="693"/>
      <point x="134" y="693"/>
      <point x="179" y="693" type="curve"/>
      <point x="171" y="701"/>
      <point x="158" y="703"/>
      <point x="150" y="711" type="curve"/>
      <point x="142" y="719"/>
      <point x="136" y="729"/>
      <point x="128" y="737" type="curve"/>
      <point x="128" y="462"/>
      <point x="128" y="188"/>
      <point x="128" y="-87" type="curve"/>
      <point x="136" y="-78"/>
      <point x="145" y="-69"/>
      <point x="153" y="-61" type="curve"/>
      <point x="161" y="-53"/>
      <point x="172" y="-49"/>
      <point x="180" y="-41" type="curve"/>
      <point x="135" y="-41"/>
      <point x="89" y="-41"/>
      <point x="44" y="-41" type="curve"/>
      <point x="43" y="-118"/>
      <point x="44" y="-41"/>
      <point x="43" y="-118" type="curve"/>
      <point x="89" y="-118"/>
      <point x="135" y="-118"/>
      <point x="180" y="-118" type="curve"/>
      <point x="218" y="-118"/>
      <point x="180" y="-118"/>
      <point x="218" y="-118" type="curve"/>
      <point x="218" y="-87"/>
      <point x="218" y="-118"/>
      <point x="218" y="-87" type="curve"/>
      <point x="218" y="188"/>
      <point x="218" y="462"/>
      <point x="218" y="737" type="curve"/>
      <point x="218" y="770"/>
      <point x="218" y="737"/>
      <point x="218" y="770" type="curve"/>
      <point x="179" y="770"/>
      <point x="218" y="770"/>
      <point x="179" y="770" type="curve"/>
      <point x="134" y="770"/>
      <point x="89" y="770"/>
      <point x="44" y="770" type="curve"/>
      <point x="44" y="693"/>
      <point x="44" y="770"/>
    </contour>
  </outline>
</glyph>
<glyph name="asciicircum" format="1">
  <advance width="516"/>
  <unicode hex="005E"/>
  <outline>
    <contour>
      <point x="148" y="459" type="curve"/>
      <point x="199" y="566"/>
      <point x="251" y="673"/>
      <point x="302" y="780" type="curve"/>
      <point x="213" y="780"/>
      <point x="302" y="780"/>
      <point x="213" y="780" type="curve"/>
      <point x="161" y="673"/>
      <point x="110" y="566"/>
      <point x="58" y="459" type="curve"/>
      <point x="148" y="459"/>
      <point x="59" y="459"/>
    </contour>
    <contour>
      <point x="458" y="459" type="curve"/>
      <point x="407" y="564"/>
      <point x="353" y="674"/>
      <point x="303" y="780" type="curve"/>
      <point x="213" y="780"/>
      <point x="302" y="780"/>
      <point x="213" y="780" type="curve"/>
      <point x="263" y="674"/>
      <point x="318" y="564"/>
      <point x="368" y="459" type="curve"/>
      <point x="458" y="459"/>
      <point x="369" y="459"/>
    </contour>
  </outline>
</glyph>
<glyph name="underscore" format="1">
  <advance width="603"/>
  <unicode hex="005F"/>
  <outline>
    <contour>
      <point x="0" y="-195" type="curve"/>
      <point x="201" y="-195"/>
      <point x="402" y="-195"/>
      <point x="603" y="-195" type="curve"/>
      <point x="603" y="-125"/>
      <point x="603" y="-195"/>
      <point x="603" y="-125" type="curve"/>
      <point x="402" y="-125"/>
      <point x="201" y="-125"/>
      <point x="0" y="-125" type="curve"/>
      <point x="0" y="-195"/>
      <point x="0" y="-125"/>
    </contour>
  </outline>
</glyph>
<glyph name="grave" format="1">
  <advance width="370"/>
  <unicode hex="0060"/>
  <outline>
    <contour>
      <point x="270" y="582" type="line"/>
      <point x="170" y="748" type="line"/>
      <point x="57" y="748" type="line"/>
      <point x="182" y="582" type="line"/>
    </contour>
    <contour>
      <point x="223" y="582" type="move" name="_top"/>
    </contour>
  </outline>
</glyph>
<glyph name="b" format="1">
  <advance width="624"/>
  <unicode hex="0062"/>
  <outline>
    <contour>
      <point x="158" y="800" type="curve"/>
      <point x="110" y="800"/>
      <point x="69" y="800"/>
      <point x="22" y="800" type="curve"/>
      <point x="21" y="740"/>
      <point x="22" y="790"/>
      <point x="21" y="730" type="curve"/>
      <point x="147" y="730"/>
      <point x="33" y="730"/>
      <point x="158" y="730" type="curve"/>
      <point x="158" y="790"/>
      <point x="158" y="740"/>
    </contour>
    <contour>
      <point x="179" y="369" type="curve"/>
      <point x="209" y="413"/>
      <point x="265" y="466"/>
      <point x="340" y="466" type="curve"/>
      <point x="440" y="466"/>
      <point x="482" y="376"/>
      <point x="482" y="264" type="curve"/>
      <point x="483" y="157"/>
      <point x="437" y="67"/>
      <point x="341" y="67" type="curve"/>
      <point x="275" y="67"/>
      <point x="224" y="103"/>
      <point x="185" y="155" type="curve"/>
      <point x="144" y="126"/>
      <point x="178" y="147"/>
      <point x="137" y="119" type="curve"/>
      <point x="190" y="46"/>
      <point x="254" y="-5"/>
      <point x="351" y="-5" type="curve"/>
      <point x="496" y="-5"/>
      <point x="573" y="109"/>
      <point x="573" y="267" type="curve"/>
      <point x="573" y="423"/>
      <point x="497" y="538"/>
      <point x="352" y="538" type="curve"/>
      <point x="251" y="538"/>
      <point x="183" y="475"/>
      <point x="140" y="410" type="curve"/>
      <point x="173" y="380"/>
      <point x="145" y="400"/>
    </contour>
    <contour>
      <point x="201" y="0" type="curve"/>
      <point x="201" y="273"/>
      <point x="201" y="527"/>
      <point x="201" y="800" type="curve"/>
      <point x="125" y="800"/>
      <point x="187" y="800"/>
      <point x="111" y="800" type="curve"/>
      <point x="111" y="527"/>
      <point x="111" y="273"/>
      <point x="111" y="0" type="curve"/>
      <point x="187" y="0"/>
      <point x="125" y="0"/>
    </contour>
    <contour>
      <point x="158" y="70" type="curve"/>
      <point x="33" y="70"/>
      <point x="147" y="70"/>
      <point x="22" y="70" type="curve"/>
      <point x="22" y="10"/>
      <point x="22" y="60"/>
      <point x="22" y="0" type="curve"/>
      <point x="69" y="0"/>
      <point x="110" y="0"/>
      <point x="158" y="0" type="curve"/>
      <point x="158" y="60"/>
      <point x="158" y="10"/>
    </contour>
  </outline>
</glyph>
<glyph name="c" format="1">
  <advance width="514"/>
  <unicode hex="0063"/>
  <outline>
    <contour>
      <point x="386" y="471" type="curve"/>
      <point x="386" y="345"/>
      <point x="386" y="474"/>
      <point x="386" y="348" type="curve"/>
      <point x="458" y="348"/>
      <point x="386" y="348"/>
      <point x="458" y="348" type="curve"/>
      <point x="458" y="474"/>
      <point x="458" y="345"/>
      <point x="458" y="471" type="curve"/>
      <point x="386" y="471"/>
      <point x="458" y="471"/>
    </contour>
    <contour>
      <point x="458" y="471" type="curve"/>
      <point x="413" y="508"/>
      <point x="355" y="538"/>
      <point x="293" y="538" type="curve"/>
      <point x="133" y="538"/>
      <point x="51" y="437"/>
      <point x="51" y="267" type="curve"/>
      <point x="51" y="98"/>
      <point x="130" y="-5"/>
      <point x="291" y="-5" type="curve"/>
      <point x="361" y="-5"/>
      <point x="426" y="27"/>
      <point x="466" y="87" type="curve"/>
      <point x="409" y="133"/>
      <point x="466" y="87"/>
      <point x="409" y="133" type="curve"/>
      <point x="380" y="99"/>
      <point x="341" y="67"/>
      <point x="295" y="67" type="curve"/>
      <point x="186" y="67"/>
      <point x="141" y="147"/>
      <point x="141" y="267" type="curve"/>
      <point x="141" y="386"/>
      <point x="185" y="466"/>
      <point x="292" y="466" type="curve"/>
      <point x="334" y="466"/>
      <point x="373" y="447"/>
      <point x="405" y="422" type="curve"/>
      <point x="458" y="471"/>
      <point x="405" y="422"/>
    </contour>
    <contour>
      <point x="285" y="639" type="move" name="top"/>
    </contour>
    <contour>
      <point x="305" y="2" type="move" name="bottom"/>
    </contour>
  </outline>
</glyph>
<glyph name="d" format="1">
  <advance width="626"/>
  <unicode hex="0064"/>
  <outline>
    <contour>
      <point x="467" y="800" type="curve"/>
      <point x="419" y="800"/>
      <point x="379" y="800"/>
      <point x="331" y="800" type="curve"/>
      <point x="331" y="730"/>
      <point x="331" y="800"/>
      <point x="331" y="730" type="curve"/>
      <point x="474" y="730"/>
      <point x="324" y="730"/>
      <point x="467" y="730" type="curve"/>
      <point x="467" y="800"/>
      <point x="467" y="730"/>
    </contour>
    <contour>
      <point x="468" y="0" type="curve"/>
      <point x="516" y="0"/>
      <point x="556" y="0"/>
      <point x="604" y="0" type="curve"/>
      <point x="604" y="70"/>
      <point x="604" y="0"/>
      <point x="604" y="70" type="curve"/>
      <point x="461" y="70"/>
      <point x="611" y="70"/>
      <point x="468" y="70" type="curve"/>
      <point x="468" y="-1"/>
      <point x="468" y="70"/>
    </contour>
    <contour>
      <point x="477" y="438" type="curve"/>
      <point x="430" y="500"/>
      <point x="361" y="536"/>
      <point x="279" y="536" type="curve"/>
      <point x="129" y="536"/>
      <point x="51" y="421"/>
      <point x="51" y="263" type="curve"/>
      <point x="51" y="107"/>
      <point x="132" y="-3"/>
      <point x="279" y="-3" type="curve"/>
      <point x="371" y="-3"/>
      <point x="434" y="45"/>
      <point x="477" y="126" type="curve"/>
      <point x="441" y="171"/>
      <point x="476" y="126"/>
      <point x="439" y="171" type="curve"/>
      <point x="404" y="108"/>
      <point x="359" y="67"/>
      <point x="293" y="67" type="curve"/>
      <point x="190" y="67"/>
      <point x="140" y="152"/>
      <point x="140" y="267" type="curve"/>
      <point x="140" y="381"/>
      <point x="192" y="466"/>
      <point x="295" y="466" type="curve"/>
      <point x="355" y="466"/>
      <point x="408" y="435"/>
      <point x="441" y="387" type="curve"/>
      <point x="478" y="437"/>
      <point x="440" y="389"/>
    </contour>
    <contour>
      <point x="514" y="0" type="curve"/>
      <point x="514" y="267"/>
      <point x="514" y="533"/>
      <point x="514" y="800" type="curve"/>
      <point x="421" y="800"/>
      <point x="514" y="800"/>
      <point x="421" y="800" type="curve"/>
      <point x="421" y="533"/>
      <point x="421" y="267"/>
      <point x="421" y="0" type="curve"/>
      <point x="514" y="0"/>
      <point x="421" y="0"/>
    </contour>
  </outline>
</glyph>
<glyph name="f" format="1">
  <advance width="443"/>
  <unicode hex="0066"/>
  <outline>
    <contour>
      <point x="355" y="771" type="curve"/>
      <point x="355" y="650"/>
      <point x="355" y="775"/>
      <point x="355" y="653" type="curve"/>
      <point x="426" y="653"/>
      <point x="355" y="653"/>
      <point x="426" y="653" type="curve"/>
      <point x="426" y="775"/>
      <point x="426" y="650"/>
      <point x="426" y="771" type="curve"/>
      <point x="355" y="771"/>
      <point x="426" y="771"/>
    </contour>
    <contour>
      <point x="192" y="-1" type="curve"/>
      <point x="240" y="-1"/>
      <point x="280" y="0"/>
      <point x="328" y="0" type="curve"/>
      <point x="328" y="70"/>
      <point x="328" y="0"/>
      <point x="328" y="70" type="curve"/>
      <point x="185" y="70"/>
      <point x="335" y="70"/>
      <point x="192" y="70" type="curve"/>
      <point x="192" y="-1"/>
      <point x="192" y="70"/>
    </contour>
    <contour>
      <point x="192" y="70" type="curve"/>
      <point x="49" y="70"/>
      <point x="200" y="70"/>
      <point x="56" y="70" type="curve"/>
      <point x="56" y="0"/>
      <point x="56" y="70"/>
      <point x="56" y="0" type="curve"/>
      <point x="104" y="0"/>
      <point x="145" y="-1"/>
      <point x="192" y="-1" type="curve"/>
      <point x="192" y="70"/>
      <point x="192" y="-1"/>
    </contour>
    <contour>
      <point x="31" y="463" type="curve"/>
      <point x="388" y="463" type="line"/>
      <point x="388" y="533"/>
      <point x="388" y="463"/>
      <point x="388" y="533" type="curve"/>
      <point x="31" y="533" type="line"/>
      <point x="31" y="463"/>
      <point x="31" y="533"/>
    </contour>
    <contour>
      <point x="237" y="0" type="curve"/>
      <point x="237" y="621" type="line"/>
      <point x="237" y="686"/>
      <point x="258" y="737"/>
      <point x="317" y="737" type="curve"/>
      <point x="343" y="737"/>
      <point x="367" y="728"/>
      <point x="390" y="716" type="curve"/>
      <point x="426" y="771"/>
      <point x="390" y="716"/>
      <point x="426" y="771" type="curve"/>
      <point x="393" y="790"/>
      <point x="355" y="804"/>
      <point x="317" y="804" type="curve"/>
      <point x="209" y="804"/>
      <point x="146" y="730"/>
      <point x="147" y="621" type="curve"/>
      <point x="147" y="0" type="line"/>
      <point x="237" y="0"/>
      <point x="147" y="0"/>
    </contour>
  </outline>
</glyph>
<glyph name="h" format="1">
  <advance width="613"/>
  <unicode hex="0068"/>
  <outline>
    <contour>
      <point x="472" y="-1" type="curve"/>
      <point x="520" y="-1"/>
      <point x="560" y="0"/>
      <point x="608" y="0" type="curve"/>
      <point x="608" y="70"/>
      <point x="608" y="0"/>
      <point x="608" y="70" type="curve"/>
      <point x="465" y="70"/>
      <point x="616" y="70"/>
      <point x="472" y="70" type="curve"/>
      <point x="472" y="-1"/>
      <point x="472" y="70"/>
    </contour>
    <contour>
      <point x="144" y="-1" type="curve"/>
      <point x="186" y="-1"/>
      <point x="137" y="-1"/>
      <point x="263" y="0" type="curve"/>
      <point x="263" y="70"/>
      <point x="263" y="0"/>
      <point x="263" y="70" type="curve"/>
      <point x="137" y="70"/>
      <point x="270" y="70"/>
      <point x="144" y="70" type="curve"/>
      <point x="144" y="-1"/>
      <point x="144" y="70"/>
    </contour>
    <contour>
      <point x="144" y="799" type="curve"/>
      <point x="96" y="799"/>
      <point x="55" y="800"/>
      <point x="8" y="800" type="curve"/>
      <point x="7" y="730"/>
      <point x="8" y="800"/>
      <point x="7" y="730" type="curve"/>
      <point x="151" y="730"/>
      <point x="0" y="730"/>
      <point x="144" y="730" type="curve"/>
      <point x="144" y="799"/>
      <point x="144" y="730"/>
    </contour>
    <contour>
      <point x="144" y="70" type="curve"/>
      <point x="0" y="70"/>
      <point x="151" y="70"/>
      <point x="8" y="70" type="curve"/>
      <point x="7" y="0"/>
      <point x="8" y="70"/>
      <point x="7" y="0" type="curve"/>
      <point x="55" y="0"/>
      <point x="96" y="-1"/>
      <point x="144" y="-1" type="curve"/>
      <point x="144" y="70"/>
      <point x="144" y="-1"/>
    </contour>
    <contour>
      <point x="168" y="321" type="curve"/>
      <point x="192" y="396"/>
      <point x="248" y="466"/>
      <point x="324" y="466" type="curve"/>
      <point x="404" y="466"/>
      <point x="428" y="405"/>
      <point x="428" y="321" type="curve"/>
      <point x="428" y="214"/>
      <point x="428" y="108"/>
      <point x="428" y="0" type="curve"/>
      <point x="518" y="0"/>
      <point x="428" y="0"/>
      <point x="518" y="0" type="curve"/>
      <point x="518" y="110"/>
      <point x="518" y="220"/>
      <point x="518" y="330" type="curve"/>
      <point x="518" y="456"/>
      <point x="468" y="536"/>
      <point x="345" y="536" type="curve"/>
      <point x="246" y="536"/>
      <point x="165" y="458"/>
      <point x="137" y="357" type="curve"/>
      <point x="170" y="321"/>
      <point x="136" y="357"/>
    </contour>
    <contour>
      <point x="189" y="0" type="curve"/>
      <point x="189" y="267"/>
      <point x="189" y="533"/>
      <point x="189" y="800" type="curve"/>
      <point x="99" y="800"/>
      <point x="189" y="800"/>
      <point x="99" y="800" type="curve"/>
      <point x="99" y="533"/>
      <point x="99" y="267"/>
      <point x="99" y="0" type="curve"/>
      <point x="189" y="0"/>
      <point x="99" y="0"/>
    </contour>
  </outline>
</glyph>
<glyph name="i" format="1">
  <advance width="312"/>
  <unicode hex="0069"/>
  <outline>
    <contour>
      <point x="167" y="70" type="curve"/>
      <point x="24" y="70"/>
      <point x="175" y="70"/>
      <point x="31" y="70" type="curve"/>
      <point x="31" y="0"/>
      <point x="31" y="70"/>
      <point x="31" y="0" type="curve"/>
      <point x="79" y="0"/>
      <point x="119" y="0"/>
      <point x="167" y="0" type="curve"/>
      <point x="167" y="70"/>
      <point x="167" y="0"/>
    </contour>
    <contour>
      <point x="167" y="0" type="curve"/>
      <point x="212" y="0"/>
      <point x="251" y="0"/>
      <point x="296" y="0" type="curve"/>
      <point x="296" y="70"/>
      <point x="296" y="0"/>
      <point x="296" y="70" type="curve"/>
      <point x="161" y="70"/>
      <point x="302" y="70"/>
      <point x="167" y="70" type="curve"/>
      <point x="167" y="0"/>
      <point x="167" y="70"/>
    </contour>
    <contour>
      <point x="167" y="533" type="curve"/>
      <point x="119" y="533"/>
      <point x="79" y="533"/>
      <point x="31" y="533" type="curve"/>
      <point x="31" y="463"/>
      <point x="31" y="533"/>
      <point x="31" y="463" type="curve"/>
      <point x="175" y="463"/>
      <point x="23" y="463"/>
      <point x="167" y="463" type="curve"/>
      <point x="167" y="533"/>
      <point x="167" y="463"/>
    </contour>
    <contour>
      <point x="215" y="0" type="curve"/>
      <point x="215" y="178"/>
      <point x="215" y="355"/>
      <point x="215" y="533" type="curve"/>
      <point x="120" y="533"/>
      <point x="215" y="533"/>
      <point x="120" y="533" type="curve"/>
      <point x="120" y="355"/>
      <point x="120" y="178"/>
      <point x="120" y="0" type="curve"/>
      <point x="215" y="0"/>
      <point x="120" y="0"/>
    </contour>
    <contour>
      <point x="216" y="682" type="curve"/>
      <point x="216" y="714"/>
      <point x="194" y="729"/>
      <point x="164" y="729" type="curve"/>
      <point x="134" y="729"/>
      <point x="114" y="712"/>
      <point x="114" y="682" type="curve"/>
      <point x="213" y="682"/>
      <point x="117" y="682"/>
      <point x="216" y="682" type="curve"/>
      <point x="216" y="650"/>
      <point x="194" y="636"/>
      <point x="164" y="636" type="curve"/>
      <point x="134" y="636"/>
      <point x="114" y="652"/>
      <point x="114" y="682" type="curve"/>
      <point x="213" y="682"/>
      <point x="117" y="682"/>
    </contour>
    <contour>
      <point x="165" y="639" type="move" name="top"/>
    </contour>
    <contour>
      <point x="209" y="4" type="move" name="bottom"/>
    </contour>
  </outline>
</glyph>
<glyph name="j" format="1">
  <advance width="287"/>
  <unicode hex="006A"/>
  <outline>
    <contour>
      <point x="154" y="533" type="curve"/>
      <point x="106" y="533"/>
      <point x="61" y="533"/>
      <point x="13" y="533" type="curve"/>
      <point x="13" y="463"/>
      <point x="13" y="533"/>
      <point x="13" y="463" type="curve"/>
      <point x="157" y="463"/>
      <point x="10" y="463"/>
      <point x="154" y="463" type="curve"/>
      <point x="154" y="533"/>
      <point x="154" y="463"/>
    </contour>
    <contour>
      <point x="-6" y="-302" type="curve"/>
      <point x="2" y="-303"/>
      <point x="12" y="-305"/>
      <point x="23" y="-305" type="curve"/>
      <point x="128" y="-305"/>
      <point x="200" y="-235"/>
      <point x="200" y="-130" type="curve"/>
      <point x="200" y="91"/>
      <point x="200" y="312"/>
      <point x="200" y="534" type="curve"/>
      <point x="110" y="534"/>
      <point x="200" y="534"/>
      <point x="110" y="534" type="curve"/>
      <point x="110" y="312"/>
      <point x="110" y="91"/>
      <point x="110" y="-130" type="curve"/>
      <point x="110" y="-187"/>
      <point x="82" y="-236"/>
      <point x="27" y="-236" type="curve"/>
      <point x="20" y="-236"/>
      <point x="13" y="-235"/>
      <point x="7" y="-234" type="curve"/>
      <point x="-6" y="-301"/>
      <point x="6" y="-236"/>
    </contour>
    <contour>
      <point x="206" y="679" type="curve"/>
      <point x="206" y="711"/>
      <point x="184" y="726"/>
      <point x="154" y="726" type="curve"/>
      <point x="124" y="726"/>
      <point x="104" y="709"/>
      <point x="104" y="679" type="curve"/>
      <point x="203" y="679"/>
      <point x="107" y="679"/>
      <point x="206" y="679" type="curve"/>
      <point x="206" y="648"/>
      <point x="184" y="633"/>
      <point x="154" y="633" type="curve"/>
      <point x="124" y="633"/>
      <point x="104" y="649"/>
      <point x="104" y="679" type="curve"/>
      <point x="203" y="679"/>
      <point x="107" y="679"/>
    </contour>
  </outline>
</glyph>
<glyph name="k" format="1">
  <advance width="571"/>
  <unicode hex="006B"/>
  <outline>
    <contour>
      <point x="143" y="70" type="curve"/>
      <point x="0" y="70"/>
      <point x="150" y="70"/>
      <point x="7" y="70" type="curve"/>
      <point x="7" y="0"/>
      <point x="7" y="70"/>
      <point x="7" y="0" type="curve"/>
      <point x="55" y="0"/>
      <point x="95" y="-1"/>
      <point x="143" y="-1" type="curve"/>
      <point x="143" y="70"/>
      <point x="143" y="-1"/>
    </contour>
    <contour>
      <point x="420" y="0" type="curve"/>
      <point x="467" y="0"/>
      <point x="504" y="0"/>
      <point x="550" y="0" type="curve"/>
      <point x="550" y="70"/>
      <point x="550" y="0"/>
      <point x="550" y="70" type="curve"/>
      <point x="412" y="70"/>
      <point x="560" y="70"/>
      <point x="421" y="70" type="curve"/>
      <point x="421" y="0"/>
      <point x="420" y="70"/>
    </contour>
    <contour>
      <point x="416" y="463" type="curve"/>
      <point x="533" y="463"/>
      <point x="406" y="463"/>
      <point x="523" y="463" type="curve"/>
      <point x="523" y="533"/>
      <point x="523" y="463"/>
      <point x="523" y="533" type="curve"/>
      <point x="484" y="533"/>
      <point x="455" y="533"/>
      <point x="416" y="533" type="curve"/>
      <point x="416" y="463"/>
      <point x="416" y="533"/>
    </contour>
    <contour>
      <point x="143" y="-1" type="curve"/>
      <point x="183" y="-1"/>
      <point x="140" y="-1"/>
      <point x="260" y="0" type="curve"/>
      <point x="260" y="70"/>
      <point x="260" y="0"/>
      <point x="260" y="70" type="curve"/>
      <point x="140" y="70"/>
      <point x="263" y="70"/>
      <point x="143" y="70" type="curve"/>
      <point x="143" y="-1"/>
      <point x="143" y="70"/>
    </contour>
    <contour>
      <point x="430" y="533" type="curve"/>
      <point x="374" y="533"/>
      <point x="322" y="533"/>
      <point x="265" y="533" type="curve"/>
      <point x="265" y="463"/>
      <point x="265" y="533"/>
      <point x="265" y="463" type="curve"/>
      <point x="435" y="463"/>
      <point x="261" y="463"/>
      <point x="430" y="463" type="curve"/>
      <point x="430" y="533"/>
      <point x="430" y="463"/>
    </contour>
    <contour>
      <point x="145" y="799" type="curve"/>
      <point x="97" y="799"/>
      <point x="56" y="800"/>
      <point x="8" y="800" type="curve"/>
      <point x="8" y="730"/>
      <point x="8" y="800"/>
      <point x="8" y="730" type="curve"/>
      <point x="152" y="730"/>
      <point x="1" y="730"/>
      <point x="145" y="730" type="curve"/>
      <point x="145" y="799"/>
      <point x="145" y="730"/>
    </contour>
    <contour>
      <point x="188" y="0" type="curve"/>
      <point x="188" y="800" type="line"/>
      <point x="99" y="800"/>
      <point x="188" y="800"/>
      <point x="99" y="800" type="curve"/>
      <point x="99" y="533"/>
      <point x="99" y="267"/>
      <point x="99" y="0" type="curve"/>
      <point x="188" y="0"/>
      <point x="99" y="0"/>
    </contour>
    <contour>
      <point x="393" y="533" type="curve"/>
      <point x="167" y="275" type="line"/>
      <point x="266" y="275"/>
      <point x="166" y="275"/>
      <point x="264" y="275" type="curve"/>
      <point x="478" y="506" type="line"/>
      <point x="383" y="506"/>
      <point x="488" y="533"/>
    </contour>
    <contour>
      <point x="495" y="36" type="curve"/>
      <point x="264" y="275" type="line"/>
      <point x="166" y="275"/>
      <point x="265" y="275"/>
      <point x="167" y="275" type="curve"/>
      <point x="415" y="0" type="line"/>
      <point x="506" y="0"/>
      <point x="404" y="36"/>
    </contour>
    <contour>
      <point x="347" y="-28" type="move" name="bottom"/>
    </contour>
  </outline>
</glyph>
<glyph name="l" format="1">
  <advance width="316"/>
  <unicode hex="006C"/>
  <outline>
    <contour>
      <point x="158" y="70" type="curve"/>
      <point x="15" y="70"/>
      <point x="158" y="70"/>
      <point x="15" y="70" type="curve"/>
      <point x="15" y="0"/>
      <point x="15" y="70"/>
      <point x="15" y="0" type="curve"/>
      <point x="63" y="0"/>
      <point x="110" y="0"/>
      <point x="158" y="0" type="curve"/>
      <point x="158" y="70"/>
      <point x="158" y="-1"/>
    </contour>
    <contour>
      <point x="160" y="800" type="curve"/>
      <point x="112" y="800"/>
      <point x="64" y="800"/>
      <point x="16" y="800" type="curve"/>
      <point x="16" y="730"/>
      <point x="16" y="800"/>
      <point x="16" y="730" type="curve"/>
      <point x="160" y="730"/>
      <point x="16" y="730"/>
      <point x="160" y="730" type="curve"/>
      <point x="160" y="799"/>
      <point x="160" y="730"/>
    </contour>
    <contour>
      <point x="158" y="0" type="curve"/>
      <point x="207" y="0"/>
      <point x="254" y="0"/>
      <point x="303" y="0" type="curve"/>
      <point x="303" y="70"/>
      <point x="303" y="0"/>
      <point x="303" y="70" type="curve"/>
      <point x="158" y="70"/>
      <point x="303" y="70"/>
      <point x="158" y="70" type="curve"/>
      <point x="158" y="-1"/>
      <point x="158" y="70"/>
    </contour>
    <contour>
      <point x="202" y="0" type="curve"/>
      <point x="202" y="267"/>
      <point x="202" y="533"/>
      <point x="202" y="800" type="curve"/>
      <point x="113" y="800"/>
      <point x="202" y="800"/>
      <point x="113" y="800" type="curve"/>
      <point x="113" y="533"/>
      <point x="113" y="267"/>
      <point x="113" y="0" type="curve"/>
      <point x="202" y="0"/>
      <point x="113" y="0"/>
    </contour>
    <contour>
      <point x="159" y="887" type="move" name="top"/>
    </contour>
    <contour>
      <point x="191" y="-25" type="move" name="bottom"/>
    </contour>
  </outline>
</glyph>
<glyph name="m" format="1">
  <advance width="924"/>
  <unicode hex="006D"/>
  <outline>
    <contour>
      <point x="474" y="0" type="curve"/>
      <point x="592" y="0"/>
      <point x="475" y="0"/>
      <point x="592" y="0" type="curve"/>
      <point x="592" y="70"/>
      <point x="592" y="0"/>
      <point x="592" y="70" type="curve"/>
      <point x="475" y="70"/>
      <point x="592" y="70"/>
      <point x="474" y="70" type="curve"/>
      <point x="474" y="0"/>
      <point x="474" y="70"/>
    </contour>
    <contour>
      <point x="769" y="0" type="curve"/>
      <point x="814" y="0"/>
      <point x="856" y="0"/>
      <point x="901" y="0" type="curve"/>
      <point x="901" y="70"/>
      <point x="901" y="0"/>
      <point x="901" y="70" type="curve"/>
      <point x="766" y="70"/>
      <point x="904" y="70"/>
      <point x="769" y="70" type="curve"/>
      <point x="769" y="0"/>
      <point x="769" y="70"/>
    </contour>
    <contour>
      <point x="180" y="70" type="curve"/>
      <point x="41" y="70"/>
      <point x="184" y="70"/>
      <point x="44" y="70" type="curve"/>
      <point x="44" y="0"/>
      <point x="44" y="70"/>
      <point x="44" y="0" type="curve"/>
      <point x="90" y="0"/>
      <point x="134" y="0"/>
      <point x="180" y="0" type="curve"/>
      <point x="180" y="70"/>
      <point x="180" y="0"/>
    </contour>
    <contour>
      <point x="180" y="0" type="curve"/>
      <point x="221" y="0"/>
      <point x="174" y="0"/>
      <point x="296" y="0" type="curve"/>
      <point x="296" y="70"/>
      <point x="296" y="0"/>
      <point x="296" y="70" type="curve"/>
      <point x="174" y="70"/>
      <point x="302" y="70"/>
      <point x="180" y="70" type="curve"/>
      <point x="180" y="0"/>
      <point x="180" y="70"/>
    </contour>
    <contour>
      <point x="180" y="533" type="curve"/>
      <point x="134" y="533"/>
      <point x="90" y="533"/>
      <point x="44" y="533" type="curve"/>
      <point x="44" y="463"/>
      <point x="44" y="533"/>
      <point x="44" y="463" type="curve"/>
      <point x="184" y="463"/>
      <point x="41" y="463"/>
      <point x="180" y="463" type="curve"/>
      <point x="180" y="533"/>
      <point x="180" y="463"/>
    </contour>
    <contour>
      <point x="499" y="308" type="curve"/>
      <point x="527" y="390"/>
      <point x="562" y="466"/>
      <point x="635" y="466" type="curve"/>
      <point x="714" y="466"/>
      <point x="723" y="410"/>
      <point x="723" y="323" type="curve"/>
      <point x="723" y="216"/>
      <point x="723" y="108"/>
      <point x="723" y="0" type="curve"/>
      <point x="813" y="0"/>
      <point x="723" y="0"/>
      <point x="813" y="0" type="curve"/>
      <point x="813" y="110"/>
      <point x="813" y="220"/>
      <point x="813" y="330" type="curve"/>
      <point x="813" y="460"/>
      <point x="785" y="538"/>
      <point x="662" y="538" type="curve"/>
      <point x="560" y="538"/>
      <point x="500" y="457"/>
      <point x="467" y="347" type="curve"/>
      <point x="500" y="309"/>
      <point x="465" y="345"/>
    </contour>
    <contour>
      <point x="205" y="309" type="curve"/>
      <point x="231" y="390"/>
      <point x="267" y="466"/>
      <point x="341" y="466" type="curve"/>
      <point x="419" y="466"/>
      <point x="429" y="410"/>
      <point x="429" y="323" type="curve"/>
      <point x="429" y="216"/>
      <point x="429" y="108"/>
      <point x="429" y="0" type="curve"/>
      <point x="519" y="0"/>
      <point x="429" y="0"/>
      <point x="519" y="0" type="curve"/>
      <point x="519" y="110"/>
      <point x="519" y="220"/>
      <point x="519" y="330" type="curve"/>
      <point x="519" y="460"/>
      <point x="492" y="538"/>
      <point x="368" y="538" type="curve"/>
      <point x="265" y="538"/>
      <point x="210" y="459"/>
      <point x="174" y="347" type="curve"/>
      <point x="207" y="310"/>
      <point x="172" y="346"/>
    </contour>
    <contour>
      <point x="225" y="0" type="curve"/>
      <point x="225" y="178"/>
      <point x="225" y="355"/>
      <point x="225" y="533" type="curve"/>
      <point x="135" y="533"/>
      <point x="225" y="533"/>
      <point x="135" y="533" type="curve"/>
      <point x="135" y="355"/>
      <point x="135" y="178"/>
      <point x="135" y="0" type="curve"/>
      <point x="225" y="0"/>
      <point x="135" y="0"/>
    </contour>
  </outline>
</glyph>
<glyph name="n" format="1">
  <advance width="636"/>
  <unicode hex="006E"/>
  <outline>
    <contour>
      <point x="193" y="298" type="curve"/>
      <point x="212" y="390"/>
      <point x="269" y="466"/>
      <point x="344" y="466" type="curve"/>
      <point x="422" y="466"/>
      <point x="451" y="407"/>
      <point x="451" y="323" type="curve"/>
      <point x="451" y="214"/>
      <point x="451" y="109"/>
      <point x="451" y="0" type="curve"/>
      <point x="526" y="0"/>
      <point x="465" y="0"/>
      <point x="541" y="0" type="curve"/>
      <point x="541" y="112"/>
      <point x="541" y="219"/>
      <point x="541" y="330" type="curve"/>
      <point x="541" y="456"/>
      <point x="493" y="538"/>
      <point x="372" y="538" type="curve"/>
      <point x="268" y="538"/>
      <point x="186" y="462"/>
      <point x="160" y="337" type="curve"/>
      <point x="186" y="304"/>
      <point x="166" y="331"/>
    </contour>
    <contour>
      <point x="495" y="0" type="curve"/>
      <point x="542" y="0"/>
      <point x="583" y="0"/>
      <point x="631" y="0" type="curve"/>
      <point x="631" y="70"/>
      <point x="631" y="0"/>
      <point x="631" y="70" type="curve"/>
      <point x="487" y="70"/>
      <point x="638" y="70"/>
      <point x="495" y="70" type="curve"/>
      <point x="495" y="0"/>
      <point x="495" y="70"/>
    </contour>
    <contour>
      <point x="167" y="70" type="curve"/>
      <point x="23" y="70"/>
      <point x="174" y="70"/>
      <point x="30" y="70" type="curve"/>
      <point x="30" y="0"/>
      <point x="30" y="70"/>
      <point x="30" y="0" type="curve"/>
      <point x="78" y="0"/>
      <point x="119" y="0"/>
      <point x="167" y="0" type="curve"/>
      <point x="167" y="70"/>
      <point x="167" y="0"/>
    </contour>
    <contour>
      <point x="167" y="0" type="curve"/>
      <point x="210" y="0"/>
      <point x="157" y="0"/>
      <point x="288" y="0" type="curve"/>
      <point x="288" y="70"/>
      <point x="288" y="0"/>
      <point x="288" y="70" type="curve"/>
      <point x="157" y="70"/>
      <point x="298" y="70"/>
      <point x="167" y="70" type="curve"/>
      <point x="167" y="0"/>
      <point x="167" y="70"/>
    </contour>
    <contour>
      <point x="212" y="0" type="curve"/>
      <point x="212" y="178"/>
      <point x="212" y="355"/>
      <point x="212" y="533" type="curve"/>
      <point x="122" y="533"/>
      <point x="212" y="533"/>
      <point x="122" y="533" type="curve"/>
      <point x="122" y="355"/>
      <point x="122" y="178"/>
      <point x="122" y="0" type="curve"/>
      <point x="212" y="0"/>
      <point x="122" y="0"/>
    </contour>
    <contour>
      <point x="167" y="533" type="curve"/>
      <point x="119" y="533"/>
      <point x="78" y="533"/>
      <point x="30" y="533" type="curve"/>
      <point x="30" y="463"/>
      <point x="30" y="533"/>
      <point x="30" y="463" type="curve"/>
      <point x="174" y="463"/>
      <point x="23" y="463"/>
      <point x="167" y="463" type="curve"/>
      <point x="167" y="533"/>
      <point x="167" y="463"/>
    </contour>
    <contour>
      <point x="337" y="638" type="move" name="top"/>
    </contour>
    <contour>
      <point x="364" y="-20" type="move" name="bottom"/>
    </contour>
  </outline>
</glyph>
<glyph name="p" format="1">
  <advance width="614"/>
  <unicode hex="0070"/>
  <outline>
    <contour>
      <point x="143" y="-230" type="curve"/>
      <point x="-1" y="-230"/>
      <point x="151" y="-230"/>
      <point x="6" y="-230" type="curve"/>
      <point x="6" y="-300"/>
      <point x="6" y="-230"/>
      <point x="6" y="-300" type="curve"/>
      <point x="54" y="-300"/>
      <point x="95" y="-300"/>
      <point x="143" y="-300" type="curve"/>
      <point x="143" y="-230"/>
      <point x="143" y="-300"/>
    </contour>
    <contour>
      <point x="143" y="-300" type="curve"/>
      <point x="189" y="-300"/>
      <point x="227" y="-300"/>
      <point x="272" y="-300" type="curve"/>
      <point x="272" y="-230"/>
      <point x="272" y="-300"/>
      <point x="272" y="-230" type="curve"/>
      <point x="136" y="-230"/>
      <point x="280" y="-230"/>
      <point x="143" y="-230" type="curve"/>
      <point x="143" y="-300"/>
      <point x="143" y="-230"/>
    </contour>
    <contour>
      <point x="145" y="533" type="curve"/>
      <point x="96" y="533"/>
      <point x="55" y="533"/>
      <point x="7" y="533" type="curve"/>
      <point x="7" y="463"/>
      <point x="7" y="533"/>
      <point x="7" y="463" type="curve"/>
      <point x="152" y="463"/>
      <point x="0" y="463"/>
      <point x="145" y="463" type="curve"/>
      <point x="145" y="533"/>
      <point x="145" y="463"/>
    </contour>
    <contour>
      <point x="166" y="347" type="curve"/>
      <point x="195" y="408"/>
      <point x="255" y="468"/>
      <point x="329" y="468" type="curve"/>
      <point x="435" y="468"/>
      <point x="473" y="379"/>
      <point x="473" y="268" type="curve"/>
      <point x="475" y="155"/>
      <point x="434" y="64"/>
      <point x="329" y="65" type="curve"/>
      <point x="261" y="65"/>
      <point x="213" y="98"/>
      <point x="169" y="148" type="curve"/>
      <point x="137" y="116"/>
      <point x="163" y="140"/>
      <point x="132" y="108" type="curve"/>
      <point x="187" y="37"/>
      <point x="252" y="-5"/>
      <point x="344" y="-5" type="curve"/>
      <point x="497" y="-5"/>
      <point x="563" y="116"/>
      <point x="563" y="272" type="curve"/>
      <point x="563" y="422"/>
      <point x="496" y="539"/>
      <point x="347" y="539" type="curve"/>
      <point x="250" y="539"/>
      <point x="178" y="476"/>
      <point x="137" y="404" type="curve"/>
      <point x="162" y="355"/>
      <point x="141" y="396"/>
    </contour>
    <contour>
      <point x="189" y="-300" type="curve"/>
      <point x="189" y="-22"/>
      <point x="189" y="255"/>
      <point x="189" y="533" type="curve"/>
      <point x="99" y="533"/>
      <point x="189" y="533"/>
      <point x="99" y="533" type="curve"/>
      <point x="99" y="255"/>
      <point x="99" y="-22"/>
      <point x="99" y="-300" type="curve"/>
      <point x="189" y="-300"/>
      <point x="99" y="-300"/>
    </contour>
  </outline>
</glyph>
<glyph name="r" format="1">
  <advance width="424"/>
  <unicode hex="0072"/>
  <outline>
    <contour>
      <point x="180" y="0" type="curve"/>
      <point x="225" y="0"/>
      <point x="263" y="0"/>
      <point x="308" y="0" type="curve"/>
      <point x="308" y="60"/>
      <point x="308" y="10"/>
      <point x="308" y="70" type="curve"/>
      <point x="190" y="70"/>
      <point x="298" y="70"/>
      <point x="180" y="70" type="curve"/>
      <point x="180" y="10"/>
      <point x="180" y="60"/>
    </contour>
    <contour>
      <point x="180" y="70" type="curve"/>
      <point x="55" y="70"/>
      <point x="169" y="70"/>
      <point x="44" y="70" type="curve"/>
      <point x="43" y="10"/>
      <point x="44" y="60"/>
      <point x="43" y="0" type="curve"/>
      <point x="91" y="0"/>
      <point x="132" y="0"/>
      <point x="180" y="0" type="curve"/>
      <point x="180" y="60"/>
      <point x="180" y="10"/>
    </contour>
    <contour>
      <point x="179" y="533" type="curve"/>
      <point x="131" y="533"/>
      <point x="90" y="533"/>
      <point x="43" y="533" type="curve"/>
      <point x="43" y="473"/>
      <point x="43" y="523"/>
      <point x="43" y="463" type="curve"/>
      <point x="168" y="463"/>
      <point x="54" y="463"/>
      <point x="179" y="463" type="curve"/>
      <point x="179" y="523"/>
      <point x="179" y="473"/>
    </contour>
    <contour>
      <point x="224" y="0" type="curve"/>
      <point x="224" y="182"/>
      <point x="224" y="351"/>
      <point x="224" y="533" type="curve"/>
      <point x="149" y="533"/>
      <point x="211" y="533"/>
      <point x="135" y="533" type="curve"/>
      <point x="135" y="351"/>
      <point x="135" y="182"/>
      <point x="135" y="0" type="curve"/>
      <point x="211" y="0"/>
      <point x="149" y="0"/>
    </contour>
    <contour>
      <point x="204" y="318" type="curve"/>
      <point x="240" y="424"/>
      <point x="313" y="463"/>
      <point x="400" y="463" type="curve"/>
      <point x="400" y="527"/>
      <point x="400" y="473"/>
      <point x="400" y="538" type="curve"/>
      <point x="295" y="538"/>
      <point x="212" y="469"/>
      <point x="172" y="362" type="curve"/>
      <point x="200" y="329"/>
      <point x="178" y="350"/>
    </contour>
    <contour>
      <point x="197" y="639" type="move" name="top"/>
    </contour>
    <contour>
      <point x="211" y="-21" type="move" name="bottom"/>
    </contour>
  </outline>
</glyph>
<glyph name="t" format="1">
  <advance width="380"/>
  <unicode hex="0074"/>
  <outline>
    <contour>
      <point x="16" y="463" type="curve"/>
      <point x="355" y="463" type="line"/>
      <point x="355" y="533"/>
      <point x="355" y="463"/>
      <point x="355" y="533" type="curve"/>
      <point x="16" y="533" type="line"/>
      <point x="16" y="463"/>
      <point x="16" y="533"/>
    </contour>
    <contour>
      <point x="327" y="89" type="curve"/>
      <point x="304" y="76"/>
      <point x="287" y="68"/>
      <point x="261" y="68" type="curve"/>
      <point x="212" y="68"/>
      <point x="197" y="105"/>
      <point x="197" y="161" type="curve"/>
      <point x="197" y="681" type="line"/>
      <point x="139" y="644"/>
      <point x="167" y="661"/>
      <point x="108" y="624" type="curve"/>
      <point x="108" y="158" type="line"/>
      <point x="108" y="54"/>
      <point x="154" y="-6"/>
      <point x="250" y="-6" type="curve"/>
      <point x="294" y="-6"/>
      <point x="324" y="7"/>
      <point x="360" y="28" type="curve"/>
      <point x="327" y="89"/>
      <point x="360" y="28"/>
    </contour>
    <contour>
      <point x="273" y="-23" type="move" name="bottom"/>
    </contour>
  </outline>
</glyph>
<glyph name="v" format="1">
  <advance width="620"/>
  <unicode hex="0076"/>
  <outline>
    <contour>
      <point x="132" y="533" type="curve"/>
      <point x="91" y="533"/>
      <point x="52" y="533"/>
      <point x="12" y="533" type="curve"/>
      <point x="12" y="463"/>
      <point x="12" y="533"/>
      <point x="12" y="463" type="curve"/>
      <point x="135" y="463"/>
      <point x="9" y="463"/>
      <point x="132" y="463" type="curve"/>
      <point x="132" y="533"/>
      <point x="132" y="463"/>
    </contour>
    <contour>
      <point x="132" y="463" type="curve"/>
      <point x="261" y="463"/>
      <point x="129" y="463"/>
      <point x="258" y="463" type="curve"/>
      <point x="258" y="533"/>
      <point x="258" y="463"/>
      <point x="258" y="533" type="curve"/>
      <point x="215" y="533"/>
      <point x="175" y="533"/>
      <point x="132" y="533" type="curve"/>
      <point x="132" y="463"/>
      <point x="132" y="533"/>
    </contour>
    <contour>
      <point x="496" y="533" type="curve"/>
      <point x="452" y="533"/>
      <point x="410" y="533"/>
      <point x="367" y="533" type="curve"/>
      <point x="367" y="463"/>
      <point x="367" y="533"/>
      <point x="367" y="463" type="curve"/>
      <point x="499" y="463"/>
      <point x="364" y="463"/>
      <point x="496" y="463" type="curve"/>
      <point x="496" y="533"/>
      <point x="496" y="463"/>
    </contour>
    <contour>
      <point x="496" y="463" type="curve"/>
      <point x="617" y="463"/>
      <point x="493" y="463"/>
      <point x="614" y="463" type="curve"/>
      <point x="614" y="533"/>
      <point x="614" y="463"/>
      <point x="614" y="533" type="curve"/>
      <point x="574" y="533"/>
      <point x="536" y="533"/>
      <point x="496" y="533" type="curve"/>
      <point x="496" y="463"/>
      <point x="496" y="533"/>
    </contour>
    <contour>
      <point x="74" y="533" type="curve"/>
      <point x="135" y="355"/>
      <point x="197" y="178"/>
      <point x="258" y="0" type="curve"/>
      <point x="344" y="0"/>
      <point x="258" y="0"/>
      <point x="344" y="0" type="curve"/>
      <point x="284" y="178"/>
      <point x="227" y="355"/>
      <point x="166" y="533" type="curve"/>
      <point x="74" y="533"/>
      <point x="166" y="533"/>
    </contour>
    <contour>
      <point x="462" y="533" type="curve"/>
      <point x="274" y="0" type="line"/>
      <point x="360" y="0"/>
      <point x="274" y="0"/>
      <point x="360" y="0" type="curve"/>
      <point x="425" y="178"/>
      <point x="489" y="355"/>
      <point x="554" y="533" type="curve"/>
      <point x="462" y="533"/>
      <point x="554" y="533"/>
    </contour>
  </outline>
</glyph>
<glyph name="w" format="1">
  <advance width="906"/>
  <unicode hex="0077"/>
  <outline>
    <contour>
      <point x="771" y="463" type="curve"/>
      <point x="901" y="463"/>
      <point x="768" y="463"/>
      <point x="898" y="463" type="curve"/>
      <point x="898" y="533"/>
      <point x="898" y="463"/>
      <point x="898" y="533" type="curve"/>
      <point x="854" y="533"/>
      <point x="813" y="533"/>
      <point x="771" y="533" type="curve"/>
      <point x="771" y="463"/>
      <point x="771" y="533"/>
    </contour>
    <contour>
      <point x="771" y="533" type="curve"/>
      <point x="727" y="533"/>
      <point x="692" y="533"/>
      <point x="648" y="533" type="curve"/>
      <point x="648" y="463"/>
      <point x="648" y="533"/>
      <point x="648" y="463" type="curve"/>
      <point x="780" y="463"/>
      <point x="639" y="463"/>
      <point x="771" y="463" type="curve"/>
      <point x="771" y="533"/>
      <point x="771" y="463"/>
    </contour>
    <contour>
      <point x="137" y="533" type="curve"/>
      <point x="94" y="533"/>
      <point x="53" y="533"/>
      <point x="10" y="533" type="curve"/>
      <point x="10" y="463"/>
      <point x="10" y="533"/>
      <point x="10" y="463" type="curve"/>
      <point x="140" y="463"/>
      <point x="6" y="463"/>
      <point x="137" y="463" type="curve"/>
      <point x="137" y="533"/>
      <point x="137" y="463"/>
    </contour>
    <contour>
      <point x="137" y="463" type="curve"/>
      <point x="267" y="463"/>
      <point x="131" y="463"/>
      <point x="260" y="463" type="curve"/>
      <point x="260" y="533"/>
      <point x="260" y="463"/>
      <point x="260" y="533" type="curve"/>
      <point x="217" y="533"/>
      <point x="180" y="533"/>
      <point x="137" y="533" type="curve"/>
      <point x="137" y="463"/>
      <point x="137" y="533"/>
    </contour>
    <contour>
      <point x="319" y="0" type="curve"/>
      <point x="379" y="178"/>
      <point x="439" y="355"/>
      <point x="498" y="533" type="curve"/>
      <point x="415" y="533"/>
      <point x="498" y="533"/>
      <point x="415" y="533" type="curve"/>
      <point x="356" y="355"/>
      <point x="297" y="178"/>
      <point x="238" y="0" type="curve"/>
      <point x="319" y="0"/>
      <point x="238" y="0"/>
    </contour>
    <contour>
      <point x="749" y="533" type="curve"/>
      <point x="693" y="355"/>
      <point x="638" y="178"/>
      <point x="583" y="0" type="curve"/>
      <point x="664" y="0"/>
      <point x="583" y="0"/>
      <point x="664" y="0" type="curve"/>
      <point x="720" y="178"/>
      <point x="776" y="355"/>
      <point x="832" y="533" type="curve"/>
      <point x="749" y="533"/>
      <point x="832" y="533"/>
    </contour>
    <contour>
      <point x="421" y="533" type="curve"/>
      <point x="474" y="355"/>
      <point x="528" y="178"/>
      <point x="582" y="0" type="curve"/>
      <point x="663" y="0"/>
      <point x="582" y="0"/>
      <point x="663" y="0" type="curve"/>
      <point x="610" y="178"/>
      <point x="556" y="355"/>
      <point x="503" y="533" type="curve"/>
      <point x="421" y="533"/>
      <point x="503" y="533"/>
    </contour>
    <contour>
      <point x="76" y="533" type="curve"/>
      <point x="130" y="355"/>
      <point x="184" y="178"/>
      <point x="237" y="0" type="curve"/>
      <point x="318" y="0"/>
      <point x="237" y="0"/>
      <point x="318" y="0" type="curve"/>
      <point x="265" y="178"/>
      <point x="212" y="355"/>
      <point x="159" y="533" type="curve"/>
      <point x="76" y="533"/>
      <point x="159" y="533"/>
    </contour>
  </outline>
</glyph>
<glyph name="x" format="1">
  <advance width="616"/>
  <unicode hex="0078"/>
  <outline>
    <contour>
      <point x="121" y="70" type="curve"/>
      <point x="8" y="70"/>
      <point x="129" y="70"/>
      <point x="16" y="70" type="curve"/>
      <point x="16" y="0"/>
      <point x="16" y="70"/>
      <point x="16" y="0" type="curve"/>
      <point x="53" y="0"/>
      <point x="83" y="0"/>
      <point x="121" y="0" type="curve"/>
      <point x="121" y="70"/>
      <point x="121" y="0"/>
    </contour>
    <contour>
      <point x="503" y="70" type="curve"/>
      <point x="354" y="70"/>
      <point x="505" y="70"/>
      <point x="356" y="70" type="curve"/>
      <point x="356" y="0"/>
      <point x="356" y="70"/>
      <point x="356" y="0" type="curve"/>
      <point x="405" y="0"/>
      <point x="453" y="0"/>
      <point x="503" y="0" type="curve"/>
      <point x="503" y="70"/>
      <point x="503" y="0"/>
    </contour>
    <contour>
      <point x="495" y="0" type="curve"/>
      <point x="533" y="0"/>
      <point x="571" y="0"/>
      <point x="608" y="0" type="curve"/>
      <point x="608" y="70"/>
      <point x="608" y="0"/>
      <point x="608" y="70" type="curve"/>
      <point x="495" y="70"/>
      <point x="608" y="70"/>
      <point x="495" y="70" type="curve"/>
      <point x="495" y="0"/>
      <point x="495" y="70"/>
    </contour>
    <contour>
      <point x="114" y="0" type="curve"/>
      <point x="164" y="0"/>
      <point x="112" y="0"/>
      <point x="262" y="0" type="curve"/>
      <point x="262" y="70"/>
      <point x="262" y="0"/>
      <point x="262" y="70" type="curve"/>
      <point x="112" y="70"/>
      <point x="264" y="70"/>
      <point x="114" y="70" type="curve"/>
      <point x="114" y="0"/>
      <point x="114" y="70"/>
    </contour>
    <contour>
      <point x="481" y="463" type="curve"/>
      <point x="598" y="463"/>
      <point x="482" y="463"/>
      <point x="599" y="463" type="curve"/>
      <point x="599" y="533"/>
      <point x="599" y="463"/>
      <point x="599" y="533" type="curve"/>
      <point x="560" y="533"/>
      <point x="520" y="533"/>
      <point x="481" y="533" type="curve"/>
      <point x="481" y="463"/>
      <point x="481" y="533"/>
    </contour>
    <contour>
      <point x="155" y="533" type="curve"/>
      <point x="114" y="533"/>
      <point x="77" y="533"/>
      <point x="37" y="533" type="curve"/>
      <point x="37" y="463"/>
      <point x="37" y="533"/>
      <point x="37" y="463" type="curve"/>
      <point x="158" y="463"/>
      <point x="34" y="463"/>
      <point x="155" y="463" type="curve"/>
      <point x="155" y="533"/>
      <point x="155" y="463"/>
    </contour>
    <contour>
      <point x="139" y="463" type="curve"/>
      <point x="282" y="463"/>
      <point x="130" y="463"/>
      <point x="273" y="463" type="curve"/>
      <point x="273" y="533"/>
      <point x="273" y="463"/>
      <point x="273" y="533" type="curve"/>
      <point x="226" y="533"/>
      <point x="187" y="533"/>
      <point x="139" y="533" type="curve"/>
      <point x="139" y="463"/>
      <point x="139" y="533"/>
    </contour>
    <contour>
      <point x="493" y="533" type="curve"/>
      <point x="445" y="533"/>
      <point x="405" y="533"/>
      <point x="358" y="533" type="curve"/>
      <point x="358" y="463"/>
      <point x="358" y="533"/>
      <point x="358" y="463" type="curve"/>
      <point x="501" y="463"/>
      <point x="349" y="463"/>
      <point x="493" y="463" type="curve"/>
      <point x="493" y="533"/>
      <point x="493" y="463"/>
    </contour>
    <contour>
      <point x="546" y="24" type="curve"/>
      <point x="489" y="107"/>
      <point x="222" y="450"/>
      <point x="165" y="533" type="curve"/>
      <point x="95" y="533"/>
      <point x="162" y="506"/>
      <point x="92" y="506" type="curve"/>
      <point x="149" y="423"/>
      <point x="411" y="84"/>
      <point x="467" y="1" type="curve"/>
      <point x="543" y="1"/>
      <point x="469" y="24"/>
    </contour>
    <contour>
      <point x="470" y="533" type="curve"/>
      <point x="413" y="450"/>
      <point x="133" y="111"/>
      <point x="76" y="27" type="curve"/>
      <point x="150" y="27"/>
      <point x="77" y="0"/>
      <point x="151" y="0" type="curve"/>
      <point x="209" y="83"/>
      <point x="484" y="424"/>
      <point x="541" y="507" type="curve"/>
      <point x="470" y="507"/>
      <point x="541" y="533"/>
    </contour>
  </outline>
</glyph>
<glyph name="braceleft" format="1">
  <advance width="290"/>
  <unicode hex="007B"/>
  <outline>
    <contour>
      <point x="242" y="-46" type="curve"/>
      <point x="193" y="-46"/>
      <point x="180" y="-5"/>
      <point x="180" y="48" type="curve"/>
      <point x="180" y="102"/>
      <point x="180" y="157"/>
      <point x="180" y="212" type="curve"/>
      <point x="180" y="308"/>
      <point x="130" y="377"/>
      <point x="38" y="377" type="curve"/>
      <point x="38" y="303"/>
      <point x="38" y="377"/>
      <point x="38" y="303" type="curve"/>
      <point x="82" y="303"/>
      <point x="99" y="267"/>
      <point x="99" y="218" type="curve"/>
      <point x="99" y="163"/>
      <point x="99" y="107"/>
      <point x="99" y="51" type="curve"/>
      <point x="99" y="-48"/>
      <point x="147" y="-115"/>
      <point x="242" y="-115" type="curve"/>
      <point x="242" y="-46"/>
      <point x="242" y="-115"/>
    </contour>
    <contour>
      <point x="242" y="795" type="curve"/>
      <point x="147" y="795"/>
      <point x="98" y="729"/>
      <point x="98" y="630" type="curve"/>
      <point x="98" y="573"/>
      <point x="98" y="516"/>
      <point x="98" y="459" type="curve"/>
      <point x="98" y="411"/>
      <point x="82" y="377"/>
      <point x="38" y="377" type="curve"/>
      <point x="38" y="303"/>
      <point x="38" y="377"/>
      <point x="38" y="303" type="curve"/>
      <point x="131" y="303"/>
      <point x="180" y="370"/>
      <point x="180" y="469" type="curve"/>
      <point x="180" y="523"/>
      <point x="180" y="576"/>
      <point x="180" y="630" type="curve"/>
      <point x="180" y="683"/>
      <point x="192" y="724"/>
      <point x="242" y="724" type="curve"/>
      <point x="242" y="795"/>
      <point x="242" y="724"/>
    </contour>
  </outline>
</glyph>
<glyph name="braceright" format="1">
  <advance width="290"/>
  <unicode hex="007D"/>
  <outline>
    <contour>
      <point x="48" y="-115" type="curve"/>
      <point x="143" y="-115"/>
      <point x="192" y="-48"/>
      <point x="192" y="51" type="curve"/>
      <point x="192" y="107"/>
      <point x="192" y="163"/>
      <point x="192" y="218" type="curve"/>
      <point x="192" y="267"/>
      <point x="207" y="303"/>
      <point x="253" y="303" type="curve"/>
      <point x="253" y="377"/>
      <point x="253" y="303"/>
      <point x="253" y="377" type="curve"/>
      <point x="160" y="377"/>
      <point x="110" y="308"/>
      <point x="110" y="212" type="curve"/>
      <point x="110" y="157"/>
      <point x="110" y="102"/>
      <point x="110" y="48" type="curve"/>
      <point x="110" y="-5"/>
      <point x="97" y="-46"/>
      <point x="48" y="-46" type="curve"/>
      <point x="48" y="-115"/>
      <point x="48" y="-46"/>
    </contour>
    <contour>
      <point x="48" y="724" type="curve"/>
      <point x="98" y="724"/>
      <point x="110" y="683"/>
      <point x="110" y="630" type="curve"/>
      <point x="110" y="576"/>
      <point x="110" y="523"/>
      <point x="110" y="469" type="curve"/>
      <point x="110" y="370"/>
      <point x="159" y="303"/>
      <point x="253" y="303" type="curve"/>
      <point x="253" y="377"/>
      <point x="253" y="303"/>
      <point x="253" y="377" type="curve"/>
      <point x="208" y="377"/>
      <point x="192" y="411"/>
      <point x="192" y="459" type="curve"/>
      <point x="192" y="516"/>
      <point x="192" y="573"/>
      <point x="192" y="630" type="curve"/>
      <point x="192" y="729"/>
      <point x="143" y="794"/>
      <point x="48" y="794" type="curve"/>
      <point x="48" y="724"/>
      <point x="48" y="794"/>
    </contour>
  </outline>
</glyph>
<glyph name="asciitilde" format="1">
  <advance width="642"/>
  <unicode hex="007E"/>
  <outline>
    <contour>
      <point x="499" y="363" type="curve"/>
      <point x="485" y="321"/>
      <point x="470" y="277"/>
      <point x="429" y="277" type="curve"/>
      <point x="395" y="277"/>
      <point x="374" y="290"/>
      <point x="349" y="312" type="curve"/>
      <point x="307" y="349"/>
      <point x="276" y="371"/>
      <point x="220" y="371" type="curve"/>
      <point x="133" y="371"/>
      <point x="95" y="320"/>
      <point x="73" y="235" type="curve"/>
      <point x="105" y="224"/>
      <point x="110" y="221"/>
      <point x="143" y="210" type="curve"/>
      <point x="155" y="258"/>
      <point x="173" y="298"/>
      <point x="218" y="298" type="curve"/>
      <point x="249" y="298"/>
      <point x="267" y="286"/>
      <point x="290" y="266" type="curve"/>
      <point x="335" y="227"/>
      <point x="367" y="205"/>
      <point x="427" y="205" type="curve"/>
      <point x="512" y="205"/>
      <point x="544" y="259"/>
      <point x="570" y="339" type="curve"/>
      <point x="537" y="350"/>
      <point x="533" y="353"/>
    </contour>
  </outline>
</glyph>
<glyph name="exclamdown" format="1">
  <advance width="249"/>
  <unicode hex="00A1"/>
  <outline>
    <contour>
      <point x="83" y="301" type="line"/>
      <point x="74" y="-192" type="line"/>
      <point x="175" y="-192" type="line"/>
      <point x="168" y="301" type="line"/>
    </contour>
    <contour>
      <point x="75" y="491" type="curve"/>
      <point x="74" y="460"/>
      <point x="96" y="444"/>
      <point x="126" y="444" type="curve"/>
      <point x="156" y="444"/>
      <point x="176" y="461"/>
      <point x="176" y="491" type="curve"/>
      <point x="78" y="491"/>
      <point x="173" y="491"/>
      <point x="75" y="491" type="curve"/>
      <point x="75" y="523"/>
      <point x="96" y="538"/>
      <point x="126" y="537" type="curve"/>
      <point x="157" y="537"/>
      <point x="176" y="521"/>
      <point x="176" y="491" type="curve"/>
      <point x="78" y="491"/>
      <point x="173" y="491"/>
    </contour>
  </outline>
</glyph>
<glyph name="cent" format="1">
  <advance width="608"/>
  <unicode hex="00A2"/>
  <outline>
    <contour>
      <point x="365" y="-53" type="curve"/>
      <point x="365" y="-13"/>
      <point x="365" y="27"/>
      <point x="365" y="67" type="curve"/>
      <point x="275" y="67"/>
      <point x="365" y="67"/>
      <point x="275" y="67" type="curve"/>
      <point x="275" y="27"/>
      <point x="275" y="-13"/>
      <point x="275" y="-53" type="curve"/>
      <point x="365" y="-53"/>
      <point x="275" y="-53"/>
    </contour>
    <contour>
      <point x="294" y="778" type="curve"/>
      <point x="294" y="742"/>
      <point x="294" y="706"/>
      <point x="294" y="670" type="curve"/>
      <point x="384" y="670"/>
      <point x="294" y="670"/>
      <point x="384" y="670" type="curve"/>
      <point x="384" y="706"/>
      <point x="384" y="742"/>
      <point x="384" y="778" type="curve"/>
      <point x="294" y="778"/>
      <point x="384" y="778"/>
    </contour>
    <contour>
      <point x="552" y="609" type="curve"/>
      <point x="485" y="662"/>
      <point x="428" y="683"/>
      <point x="345" y="683" type="curve"/>
      <point x="159" y="683"/>
      <point x="53" y="557"/>
      <point x="53" y="364" type="curve"/>
      <point x="53" y="180"/>
      <point x="140" y="49"/>
      <point x="316" y="49" type="curve"/>
      <point x="412" y="49"/>
      <point x="478" y="78"/>
      <point x="550" y="145" type="curve"/>
      <point x="497" y="199"/>
      <point x="550" y="145"/>
      <point x="497" y="199" type="curve"/>
      <point x="441" y="151"/>
      <point x="396" y="122"/>
      <point x="324" y="122" type="curve"/>
      <point x="197" y="122"/>
      <point x="143" y="228"/>
      <point x="143" y="368" type="curve"/>
      <point x="143" y="510"/>
      <point x="210" y="610"/>
      <point x="337" y="610" type="curve"/>
      <point x="404" y="610"/>
      <point x="449" y="591"/>
      <point x="503" y="551" type="curve"/>
      <point x="552" y="609"/>
      <point x="503" y="551"/>
    </contour>
    <contour>
      <point x="480" y="609" type="curve"/>
      <point x="480" y="488"/>
      <point x="480" y="597"/>
      <point x="480" y="475" type="curve"/>
      <point x="552" y="475"/>
      <point x="480" y="475"/>
      <point x="552" y="475" type="curve"/>
      <point x="552" y="597"/>
      <point x="552" y="488"/>
      <point x="552" y="609" type="curve"/>
      <point x="480" y="609"/>
      <point x="552" y="609"/>
    </contour>
  </outline>
</glyph>
<glyph name="sterling" format="1">
  <advance width="477"/>
  <unicode hex="00A3"/>
  <outline>
    <contour>
      <point x="408" y="70" type="curve"/>
      <point x="288" y="70"/>
      <point x="167" y="70"/>
      <point x="48" y="70" type="curve"/>
      <point x="48" y="0"/>
      <point x="48" y="70"/>
      <point x="48" y="0" type="curve"/>
      <point x="167" y="0"/>
      <point x="289" y="0"/>
      <point x="408" y="0" type="curve"/>
      <point x="408" y="70"/>
      <point x="408" y="0"/>
    </contour>
    <contour>
      <point x="363" y="411" type="curve"/>
      <point x="268" y="411"/>
      <point x="169" y="411"/>
      <point x="75" y="411" type="curve"/>
      <point x="75" y="341"/>
      <point x="75" y="411"/>
      <point x="75" y="341" type="curve"/>
      <point x="169" y="341"/>
      <point x="268" y="341"/>
      <point x="363" y="341" type="curve"/>
      <point x="363" y="411"/>
      <point x="363" y="341"/>
    </contour>
    <contour>
      <point x="431" y="668" type="curve"/>
      <point x="388" y="707"/>
      <point x="351" y="722"/>
      <point x="297" y="722" type="curve"/>
      <point x="136" y="722"/>
      <point x="97" y="560"/>
      <point x="135" y="368" type="curve"/>
      <point x="164" y="213"/>
      <point x="159" y="70"/>
      <point x="48" y="70" type="curve"/>
      <point x="48" y="0"/>
      <point x="48" y="70"/>
      <point x="48" y="0" type="curve"/>
      <point x="225" y="0"/>
      <point x="256" y="178"/>
      <point x="218" y="383" type="curve"/>
      <point x="191" y="525"/>
      <point x="198" y="655"/>
      <point x="292" y="655" type="curve"/>
      <point x="331" y="655"/>
      <point x="355" y="640"/>
      <point x="385" y="616" type="curve"/>
      <point x="431" y="668"/>
      <point x="385" y="616"/>
    </contour>
  </outline>
</glyph>
<glyph name="currency" format="1">
  <advance width="631"/>
  <unicode hex="00A4"/>
  <outline>
    <contour>
      <point x="227" y="314" type="curve"/>
      <point x="227" y="378"/>
      <point x="254" y="427"/>
      <point x="314" y="427" type="curve"/>
      <point x="377" y="427"/>
      <point x="402" y="380"/>
      <point x="402" y="314" type="curve"/>
      <point x="402" y="248"/>
      <point x="379" y="195"/>
      <point x="319" y="195" type="curve"/>
      <point x="254" y="195"/>
      <point x="227" y="245"/>
      <point x="227" y="314" type="curve"/>
      <point x="138" y="314"/>
      <point x="231" y="314"/>
      <point x="141" y="314" type="curve"/>
      <point x="141" y="199"/>
      <point x="205" y="126"/>
      <point x="317" y="126" type="curve"/>
      <point x="428" y="126"/>
      <point x="490" y="203"/>
      <point x="490" y="316" type="curve"/>
      <point x="490" y="425"/>
      <point x="429" y="496"/>
      <point x="322" y="496" type="curve"/>
      <point x="209" y="496"/>
      <point x="141" y="426"/>
      <point x="141" y="314" type="curve"/>
      <point x="231" y="314"/>
      <point x="138" y="314"/>
    </contour>
    <contour>
      <point x="419" y="371" type="line"/>
      <point x="570" y="512" type="line"/>
      <point x="503" y="580" type="line"/>
      <point x="361" y="429" type="line"/>
    </contour>
    <contour>
      <point x="364" y="199" type="line"/>
      <point x="505" y="49" type="line"/>
      <point x="573" y="116" type="line"/>
      <point x="422" y="257" type="line"/>
    </contour>
    <contour>
      <point x="209" y="258" type="line"/>
      <point x="58" y="117" type="line"/>
      <point x="125" y="49" type="line"/>
      <point x="267" y="200" type="line"/>
    </contour>
    <contour>
      <point x="271" y="430" type="line"/>
      <point x="130" y="581" type="line"/>
      <point x="63" y="513" type="line"/>
      <point x="213" y="372" type="line"/>
    </contour>
  </outline>
</glyph>
<glyph name="yen" format="1">
  <advance width="709"/>
  <unicode hex="00A5"/>
  <outline>
    <contour>
      <point x="548" y="402" type="curve"/>
      <point x="486" y="402"/>
      <point x="424" y="402"/>
      <point x="362" y="402" type="curve"/>
      <point x="362" y="325"/>
      <point x="362" y="402"/>
      <point x="362" y="325" type="curve"/>
      <point x="424" y="325"/>
      <point x="486" y="325"/>
      <point x="548" y="325" type="curve"/>
      <point x="548" y="402"/>
      <point x="548" y="325"/>
    </contour>
    <contour>
      <point x="336" y="402" type="curve"/>
      <point x="275" y="402"/>
      <point x="214" y="402"/>
      <point x="153" y="402" type="curve"/>
      <point x="153" y="325"/>
      <point x="153" y="402"/>
      <point x="153" y="325" type="curve"/>
      <point x="214" y="325"/>
      <point x="275" y="325"/>
      <point x="336" y="325" type="curve"/>
      <point x="336" y="402"/>
      <point x="336" y="325"/>
    </contour>
    <contour>
      <point x="548" y="266" type="curve"/>
      <point x="416" y="266"/>
      <point x="284" y="266"/>
      <point x="153" y="266" type="curve"/>
      <point x="153" y="189"/>
      <point x="153" y="266"/>
      <point x="153" y="189" type="curve"/>
      <point x="284" y="189"/>
      <point x="416" y="189"/>
      <point x="548" y="189" type="curve"/>
      <point x="548" y="266"/>
      <point x="548" y="189"/>
    </contour>
    <contour>
      <point x="347" y="70" type="curve"/>
      <point x="204" y="70"/>
      <point x="350" y="70"/>
      <point x="207" y="70" type="curve"/>
      <point x="207" y="0"/>
      <point x="207" y="70"/>
      <point x="207" y="0" type="curve"/>
      <point x="255" y="0"/>
      <point x="300" y="0"/>
      <point x="347" y="0" type="curve"/>
      <point x="347" y="70"/>
      <point x="347" y="0"/>
    </contour>
    <contour>
      <point x="347" y="0" type="curve"/>
      <point x="395" y="0"/>
      <point x="440" y="0"/>
      <point x="487" y="0" type="curve"/>
      <point x="487" y="70"/>
      <point x="487" y="0"/>
      <point x="487" y="70" type="curve"/>
      <point x="344" y="70"/>
      <point x="490" y="70"/>
      <point x="347" y="70" type="curve"/>
      <point x="347" y="0"/>
      <point x="347" y="70"/>
    </contour>
    <contour>
      <point x="539" y="722" type="curve"/>
      <point x="493" y="722"/>
      <point x="449" y="722"/>
      <point x="403" y="722" type="curve"/>
      <point x="403" y="652"/>
      <point x="403" y="722"/>
      <point x="403" y="652" type="curve"/>
      <point x="542" y="652"/>
      <point x="400" y="652"/>
      <point x="539" y="652" type="curve"/>
      <point x="539" y="722"/>
      <point x="539" y="652"/>
    </contour>
    <contour>
      <point x="159" y="722" type="curve"/>
      <point x="117" y="722"/>
      <point x="78" y="722"/>
      <point x="36" y="722" type="curve"/>
      <point x="36" y="652"/>
      <point x="36" y="722"/>
      <point x="36" y="652" type="curve"/>
      <point x="162" y="652"/>
      <point x="32" y="652"/>
      <point x="159" y="652" type="curve"/>
      <point x="159" y="722"/>
      <point x="159" y="652"/>
    </contour>
    <contour>
      <point x="166" y="652" type="curve"/>
      <point x="305" y="652"/>
      <point x="163" y="652"/>
      <point x="302" y="652" type="curve"/>
      <point x="302" y="722"/>
      <point x="302" y="652"/>
      <point x="302" y="722" type="curve"/>
      <point x="256" y="722"/>
      <point x="212" y="722"/>
      <point x="166" y="722" type="curve"/>
      <point x="166" y="652"/>
      <point x="166" y="722"/>
    </contour>
    <contour>
      <point x="547" y="652" type="curve"/>
      <point x="676" y="652"/>
      <point x="544" y="652"/>
      <point x="673" y="652" type="curve"/>
      <point x="673" y="722"/>
      <point x="673" y="652"/>
      <point x="673" y="722" type="curve"/>
      <point x="630" y="722"/>
      <point x="590" y="722"/>
      <point x="547" y="722" type="curve"/>
      <point x="547" y="652"/>
      <point x="547" y="722"/>
    </contour>
    <contour>
      <point x="98" y="716" type="curve"/>
      <point x="166" y="590"/>
      <point x="232" y="464"/>
      <point x="299" y="337" type="curve"/>
      <point x="391" y="337"/>
      <point x="291" y="337"/>
      <point x="382" y="337" type="curve"/>
      <point x="317" y="467"/>
      <point x="252" y="593"/>
      <point x="185" y="722" type="curve"/>
      <point x="98" y="722"/>
      <point x="185" y="716"/>
    </contour>
    <contour>
      <point x="521" y="722" type="curve"/>
      <point x="449" y="592"/>
      <point x="381" y="466"/>
      <point x="308" y="337" type="curve"/>
      <point x="400" y="337"/>
      <point x="304" y="337"/>
      <point x="395" y="337" type="curve"/>
      <point x="466" y="464"/>
      <point x="536" y="590"/>
      <point x="608" y="716" type="curve"/>
      <point x="521" y="716"/>
      <point x="608" y="722"/>
    </contour>
    <contour>
      <point x="396" y="0" type="curve"/>
      <point x="396" y="115"/>
      <point x="396" y="226"/>
      <point x="396" y="341" type="curve"/>
      <point x="298" y="341"/>
      <point x="396" y="341"/>
      <point x="298" y="341" type="curve"/>
      <point x="298" y="226"/>
      <point x="298" y="115"/>
      <point x="298" y="0" type="curve"/>
      <point x="396" y="0"/>
      <point x="298" y="0"/>
    </contour>
  </outline>
</glyph>
<glyph name="section" format="1">
  <advance width="494"/>
  <unicode hex="00A7"/>
  <outline>
    <contour>
      <point x="394" y="704" type="curve"/>
      <point x="344" y="735"/>
      <point x="307" y="750"/>
      <point x="251" y="750" type="curve"/>
      <point x="153" y="750"/>
      <point x="89" y="699"/>
      <point x="89" y="609" type="curve"/>
      <point x="89" y="528"/>
      <point x="138" y="482"/>
      <point x="216" y="453" type="curve"/>
      <point x="281" y="429"/>
      <point x="349" y="419"/>
      <point x="349" y="360" type="curve"/>
      <point x="349" y="302"/>
      <point x="313" y="270"/>
      <point x="253" y="257" type="curve"/>
      <point x="306" y="201"/>
      <point x="253" y="257"/>
      <point x="306" y="201" type="curve"/>
      <point x="391" y="223"/>
      <point x="438" y="276"/>
      <point x="438" y="361" type="curve"/>
      <point x="437" y="457"/>
      <point x="356" y="487"/>
      <point x="260" y="519" type="curve"/>
      <point x="213" y="537"/>
      <point x="175" y="561"/>
      <point x="175" y="609" type="curve"/>
      <point x="175" y="652"/>
      <point x="202" y="680"/>
      <point x="248" y="680" type="curve"/>
      <point x="291" y="680"/>
      <point x="316" y="668"/>
      <point x="353" y="647" type="curve"/>
      <point x="394" y="704"/>
      <point x="353" y="647"/>
    </contour>
    <contour>
      <point x="188" y="521" type="curve"/>
      <point x="108" y="494"/>
      <point x="59" y="448"/>
      <point x="59" y="366" type="curve"/>
      <point x="59" y="275"/>
      <point x="128" y="237"/>
      <point x="219" y="206" type="curve"/>
      <point x="273" y="186"/>
      <point x="325" y="169"/>
      <point x="325" y="117" type="curve"/>
      <point x="325" y="71"/>
      <point x="295" y="42"/>
      <point x="249" y="42" type="curve"/>
      <point x="200" y="42"/>
      <point x="171" y="58"/>
      <point x="130" y="86" type="curve"/>
      <point x="82" y="35"/>
      <point x="130" y="86"/>
      <point x="82" y="35" type="curve"/>
      <point x="135" y="-9"/>
      <point x="181" y="-28"/>
      <point x="247" y="-28" type="curve"/>
      <point x="345" y="-28"/>
      <point x="413" y="22"/>
      <point x="413" y="118" type="curve"/>
      <point x="411" y="201"/>
      <point x="357" y="244"/>
      <point x="276" y="272" type="curve"/>
      <point x="212" y="295"/>
      <point x="149" y="309"/>
      <point x="149" y="368" type="curve"/>
      <point x="149" y="421"/>
      <point x="180" y="451"/>
      <point x="232" y="469" type="curve"/>
      <point x="188" y="521"/>
      <point x="232" y="469"/>
    </contour>
    <contour>
      <point x="154" y="35" type="curve"/>
      <point x="154" y="155"/>
      <point x="154" y="34"/>
      <point x="154" y="154" type="curve"/>
      <point x="82" y="154"/>
      <point x="154" y="154"/>
      <point x="82" y="154" type="curve"/>
      <point x="82" y="34"/>
      <point x="82" y="155"/>
      <point x="82" y="35" type="curve"/>
      <point x="154" y="35"/>
      <point x="82" y="35"/>
    </contour>
    <contour>
      <point x="394" y="584" type="curve"/>
      <point x="394" y="704"/>
      <point x="394" y="584"/>
      <point x="394" y="704" type="curve"/>
      <point x="322" y="704"/>
      <point x="394" y="704"/>
      <point x="322" y="704" type="curve"/>
      <point x="322" y="584"/>
      <point x="322" y="704"/>
      <point x="322" y="584" type="curve"/>
      <point x="394" y="584"/>
      <point x="322" y="584"/>
    </contour>
  </outline>
</glyph>
<glyph name="dieresis" format="1">
  <advance width="377"/>
  <unicode hex="00A8"/>
  <outline>
    <contour>
      <point x="139" y="655" type="curve"/>
      <point x="139" y="686"/>
      <point x="117" y="702"/>
      <point x="88" y="702" type="curve"/>
      <point x="57" y="702"/>
      <point x="38" y="685"/>
      <point x="38" y="655" type="curve"/>
      <point x="136" y="655"/>
      <point x="41" y="655"/>
      <point x="139" y="655" type="curve"/>
      <point x="139" y="623"/>
      <point x="118" y="609"/>
      <point x="87" y="609" type="curve"/>
      <point x="57" y="609"/>
      <point x="38" y="625"/>
      <point x="38" y="655" type="curve"/>
      <point x="136" y="655"/>
      <point x="41" y="655"/>
    </contour>
    <contour>
      <point x="300" y="655" type="curve"/>
      <point x="300" y="686"/>
      <point x="279" y="702"/>
      <point x="249" y="702" type="curve"/>
      <point x="219" y="702"/>
      <point x="199" y="685"/>
      <point x="199" y="655" type="curve"/>
      <point x="297" y="655"/>
      <point x="202" y="655"/>
      <point x="300" y="655" type="curve"/>
      <point x="300" y="623"/>
      <point x="279" y="609"/>
      <point x="249" y="609" type="curve"/>
      <point x="218" y="609"/>
      <point x="199" y="625"/>
      <point x="199" y="655" type="curve"/>
      <point x="297" y="655"/>
      <point x="202" y="655"/>
    </contour>
    <contour>
      <point x="169" y="613" type="move" name="_top"/>
    </contour>
  </outline>
</glyph>
<glyph name="copyright" format="1">
  <advance width="727"/>
  <unicode hex="00A9"/>
  <outline>
    <contour>
      <point x="132" y="322" type="curve"/>
      <point x="132" y="476"/>
      <point x="219" y="588"/>
      <point x="367" y="588" type="curve"/>
      <point x="512" y="588"/>
      <point x="596" y="474"/>
      <point x="596" y="320" type="curve"/>
      <point x="596" y="171"/>
      <point x="515" y="59"/>
      <point x="373" y="59" type="curve"/>
      <point x="226" y="59"/>
      <point x="132" y="167"/>
      <point x="132" y="322" type="curve"/>
      <point x="57" y="322"/>
      <point x="134" y="322"/>
      <point x="59" y="322" type="curve"/>
      <point x="59" y="132"/>
      <point x="182" y="1"/>
      <point x="370" y="1" type="curve"/>
      <point x="554" y="1"/>
      <point x="668" y="135"/>
      <point x="668" y="323" type="curve"/>
      <point x="668" y="512"/>
      <point x="551" y="645"/>
      <point x="367" y="645" type="curve"/>
      <point x="180" y="645"/>
      <point x="59" y="513"/>
      <point x="59" y="322" type="curve"/>
      <point x="134" y="322"/>
      <point x="57" y="322"/>
    </contour>
    <contour>
      <point x="428" y="433" type="curve"/>
      <point x="428" y="416"/>
      <point x="428" y="395"/>
      <point x="428" y="375" type="curve"/>
      <point x="495" y="375"/>
      <point x="428" y="375"/>
      <point x="495" y="375" type="curve"/>
      <point x="495" y="405"/>
      <point x="495" y="438"/>
      <point x="495" y="464" type="curve"/>
      <point x="428" y="434"/>
      <point x="495" y="463"/>
    </contour>
    <contour>
      <point x="495" y="464" type="curve"/>
      <point x="459" y="494"/>
      <point x="421" y="505"/>
      <point x="373" y="505" type="curve"/>
      <point x="263" y="505"/>
      <point x="204" y="432"/>
      <point x="204" y="321" type="curve"/>
      <point x="204" y="214"/>
      <point x="256" y="142"/>
      <point x="359" y="142" type="curve"/>
      <point x="416" y="142"/>
      <point x="456" y="153"/>
      <point x="499" y="197" type="curve"/>
      <point x="455" y="234"/>
      <point x="499" y="197"/>
      <point x="455" y="234" type="curve"/>
      <point x="424" y="211"/>
      <point x="400" y="200"/>
      <point x="363" y="200" type="curve"/>
      <point x="298" y="200"/>
      <point x="274" y="253"/>
      <point x="274" y="324" type="curve"/>
      <point x="274" y="396"/>
      <point x="302" y="447"/>
      <point x="370" y="447" type="curve"/>
      <point x="394" y="447"/>
      <point x="411" y="442"/>
      <point x="428" y="433" type="curve"/>
      <point x="495" y="463"/>
      <point x="428" y="434"/>
    </contour>
  </outline>
</glyph>
<glyph name="ordfeminine" format="1">
  <advance width="429"/>
  <unicode hex="00AA"/>
  <outline>
    <contour>
      <point x="78" y="721" type="curve"/>
      <point x="78" y="671"/>
      <point x="78" y="703"/>
      <point x="78" y="654" type="curve"/>
      <point x="122" y="654"/>
      <point x="85" y="654"/>
      <point x="128" y="654" type="curve"/>
      <point x="128" y="703"/>
      <point x="128" y="671"/>
      <point x="128" y="721" type="curve"/>
      <point x="85" y="721"/>
      <point x="122" y="721"/>
    </contour>
    <contour>
      <point x="325" y="427" type="curve"/>
      <point x="325" y="513"/>
      <point x="325" y="586"/>
      <point x="325" y="672" type="curve"/>
      <point x="325" y="742"/>
      <point x="272" y="769"/>
      <point x="200" y="769" type="curve"/>
      <point x="147" y="769"/>
      <point x="109" y="750"/>
      <point x="78" y="721" type="curve"/>
      <point x="99" y="685"/>
      <point x="83" y="716"/>
      <point x="105" y="679" type="curve"/>
      <point x="125" y="699"/>
      <point x="152" y="720"/>
      <point x="192" y="720" type="curve"/>
      <point x="233" y="720"/>
      <point x="262" y="702"/>
      <point x="262" y="662" type="curve"/>
      <point x="262" y="579"/>
      <point x="262" y="509"/>
      <point x="262" y="427" type="curve"/>
      <point x="317" y="427"/>
      <point x="269" y="427"/>
    </contour>
    <contour>
      <point x="295" y="427" type="curve"/>
      <point x="320" y="427"/>
      <point x="341" y="427"/>
      <point x="366" y="427" type="curve"/>
      <point x="366" y="469"/>
      <point x="366" y="433"/>
      <point x="366" y="476" type="curve"/>
      <point x="310" y="476"/>
      <point x="350" y="476"/>
      <point x="295" y="476" type="curve"/>
      <point x="295" y="433"/>
      <point x="295" y="469"/>
    </contour>
    <contour>
      <point x="292" y="642" type="curve"/>
      <point x="248" y="637"/>
      <point x="221" y="635"/>
      <point x="178" y="629" type="curve"/>
      <point x="109" y="619"/>
      <point x="62" y="591"/>
      <point x="62" y="525" type="curve"/>
      <point x="62" y="460"/>
      <point x="103" y="424"/>
      <point x="172" y="424" type="curve"/>
      <point x="238" y="424"/>
      <point x="269" y="468"/>
      <point x="308" y="518" type="curve"/>
      <point x="281" y="541"/>
      <point x="304" y="522"/>
      <point x="277" y="545" type="curve"/>
      <point x="253" y="505"/>
      <point x="230" y="472"/>
      <point x="185" y="472" type="curve"/>
      <point x="145" y="472"/>
      <point x="123" y="492"/>
      <point x="123" y="528" type="curve"/>
      <point x="123" y="561"/>
      <point x="146" y="579"/>
      <point x="178" y="585" type="curve"/>
      <point x="223" y="591"/>
      <point x="249" y="594"/>
      <point x="294" y="601" type="curve"/>
      <point x="292" y="637"/>
      <point x="294" y="606"/>
    </contour>
  </outline>
</glyph>
<glyph name="guillemotleft" format="1">
  <advance width="549"/>
  <unicode hex="00AB"/>
  <outline>
    <contour>
      <point x="260" y="446" type="curve"/>
      <point x="233" y="428"/>
      <point x="87" y="343"/>
      <point x="59" y="324" type="curve"/>
      <point x="59" y="247"/>
      <point x="59" y="317"/>
      <point x="59" y="240" type="curve"/>
      <point x="87" y="258"/>
      <point x="233" y="347"/>
      <point x="260" y="366" type="curve"/>
      <point x="260" y="442"/>
      <point x="260" y="370"/>
    </contour>
    <contour>
      <point x="260" y="200" type="curve"/>
      <point x="233" y="218"/>
      <point x="87" y="306"/>
      <point x="59" y="324" type="curve"/>
      <point x="59" y="247"/>
      <point x="59" y="317"/>
      <point x="59" y="240" type="curve"/>
      <point x="87" y="221"/>
      <point x="233" y="138"/>
      <point x="260" y="120" type="curve"/>
      <point x="260" y="196"/>
      <point x="260" y="124"/>
    </contour>
    <contour>
      <point x="467" y="446" type="curve"/>
      <point x="440" y="428"/>
      <point x="294" y="343"/>
      <point x="267" y="324" type="curve"/>
      <point x="267" y="247"/>
      <point x="267" y="317"/>
      <point x="267" y="240" type="curve"/>
      <point x="294" y="258"/>
      <point x="440" y="347"/>
      <point x="467" y="366" type="curve"/>
      <point x="467" y="442"/>
      <point x="467" y="370"/>
    </contour>
    <contour>
      <point x="467" y="200" type="curve"/>
      <point x="440" y="218"/>
      <point x="294" y="306"/>
      <point x="267" y="324" type="curve"/>
      <point x="267" y="247"/>
      <point x="267" y="317"/>
      <point x="267" y="240" type="curve"/>
      <point x="294" y="221"/>
      <point x="440" y="138"/>
      <point x="467" y="120" type="curve"/>
      <point x="467" y="196"/>
      <point x="467" y="124"/>
    </contour>
  </outline>
</glyph>
<glyph name="logicalnot" format="1">
  <advance width="634"/>
  <unicode hex="00AC"/>
  <outline>
    <contour>
      <point x="90" y="274" type="curve"/>
      <point x="556" y="274" type="line"/>
      <point x="556" y="350"/>
      <point x="556" y="274"/>
      <point x="556" y="350" type="curve"/>
      <point x="90" y="350" type="line"/>
      <point x="90" y="274"/>
      <point x="90" y="350"/>
    </contour>
    <contour>
      <point x="556" y="145" type="curve"/>
      <point x="556" y="350" type="line"/>
      <point x="467" y="350"/>
      <point x="558" y="350"/>
      <point x="469" y="350" type="curve"/>
      <point x="469" y="145" type="line"/>
      <point x="558" y="145"/>
      <point x="467" y="145"/>
    </contour>
  </outline>
</glyph>
<glyph name="registered" format="1">
  <advance width="736"/>
  <unicode hex="00AE"/>
  <outline>
    <contour>
      <point x="125" y="321" type="curve"/>
      <point x="125" y="483"/>
      <point x="215" y="592"/>
      <point x="371" y="592" type="curve"/>
      <point x="526" y="592"/>
      <point x="612" y="480"/>
      <point x="612" y="319" type="curve"/>
      <point x="612" y="163"/>
      <point x="529" y="53"/>
      <point x="378" y="53" type="curve"/>
      <point x="220" y="53"/>
      <point x="125" y="159"/>
      <point x="125" y="321" type="curve"/>
      <point x="93" y="321"/>
      <point x="91" y="321"/>
      <point x="59" y="321" type="curve"/>
      <point x="59" y="126"/>
      <point x="181" y="0"/>
      <point x="375" y="0" type="curve"/>
      <point x="564" y="0"/>
      <point x="676" y="129"/>
      <point x="676" y="322" type="curve"/>
      <point x="676" y="516"/>
      <point x="562" y="645"/>
      <point x="371" y="645" type="curve"/>
      <point x="178" y="645"/>
      <point x="59" y="517"/>
      <point x="59" y="321" type="curve"/>
      <point x="91" y="321"/>
      <point x="93" y="321"/>
    </contour>
    <contour>
      <point x="447" y="145" type="curve"/>
      <point x="477" y="145"/>
      <point x="493" y="145"/>
      <point x="522" y="145" type="curve"/>
      <point x="522" y="202"/>
      <point x="522" y="145"/>
      <point x="522" y="202" type="curve"/>
      <point x="510" y="202"/>
      <point x="503" y="202"/>
      <point x="492" y="202" type="curve"/>
      <point x="438" y="145"/>
      <point x="501" y="202"/>
    </contour>
    <contour>
      <point x="341" y="501" type="curve"/>
      <point x="303" y="501"/>
      <point x="268" y="501"/>
      <point x="230" y="501" type="curve"/>
      <point x="230" y="443"/>
      <point x="230" y="501"/>
      <point x="230" y="443" type="curve"/>
      <point x="243" y="443"/>
      <point x="254" y="443"/>
      <point x="267" y="443" type="curve"/>
      <point x="341" y="501"/>
      <point x="267" y="443"/>
    </contour>
    <contour>
      <point x="341" y="202" type="curve"/>
      <point x="303" y="202"/>
      <point x="268" y="202"/>
      <point x="230" y="202" type="curve"/>
      <point x="230" y="145"/>
      <point x="230" y="202"/>
      <point x="230" y="145" type="curve"/>
      <point x="243" y="145"/>
      <point x="254" y="145"/>
      <point x="267" y="145" type="curve"/>
      <point x="341" y="202"/>
      <point x="267" y="145"/>
    </contour>
    <contour>
      <point x="266" y="145" type="curve"/>
      <point x="301" y="145"/>
      <point x="333" y="145"/>
      <point x="368" y="145" type="curve"/>
      <point x="368" y="202"/>
      <point x="368" y="145"/>
      <point x="368" y="202" type="curve"/>
      <point x="358" y="202"/>
      <point x="351" y="202"/>
      <point x="341" y="202" type="curve"/>
      <point x="266" y="145"/>
      <point x="341" y="202"/>
    </contour>
    <contour>
      <point x="355" y="315" type="curve"/>
      <point x="374" y="281"/>
      <point x="428" y="178"/>
      <point x="447" y="145" type="curve"/>
      <point x="501" y="202"/>
      <point x="438" y="145"/>
      <point x="492" y="202" type="curve"/>
      <point x="478" y="227"/>
      <point x="445" y="286"/>
      <point x="430" y="312" type="curve"/>
      <point x="340" y="312"/>
      <point x="445" y="315"/>
    </contour>
    <contour>
      <point x="336" y="202" type="curve"/>
      <point x="336" y="302"/>
      <point x="336" y="401"/>
      <point x="336" y="501" type="curve"/>
      <point x="262" y="443"/>
      <point x="341" y="501"/>
      <point x="267" y="443" type="curve"/>
      <point x="267" y="343"/>
      <point x="267" y="244"/>
      <point x="267" y="145" type="curve"/>
      <point x="341" y="202"/>
      <point x="262" y="145"/>
    </contour>
    <contour>
      <point x="306" y="281" type="curve"/>
      <point x="323" y="281"/>
      <point x="340" y="281"/>
      <point x="357" y="281" type="curve"/>
      <point x="436" y="281"/>
      <point x="489" y="313"/>
      <point x="489" y="392" type="curve"/>
      <point x="489" y="461"/>
      <point x="443" y="501"/>
      <point x="373" y="501" type="curve"/>
      <point x="363" y="501"/>
      <point x="351" y="501"/>
      <point x="341" y="501" type="curve"/>
      <point x="267" y="443"/>
      <point x="341" y="501"/>
      <point x="267" y="443" type="curve"/>
      <point x="298" y="443"/>
      <point x="329" y="443"/>
      <point x="360" y="443" type="curve"/>
      <point x="396" y="443"/>
      <point x="421" y="425"/>
      <point x="421" y="389" type="curve"/>
      <point x="421" y="355"/>
      <point x="401" y="339"/>
      <point x="368" y="339" type="curve"/>
      <point x="347" y="339"/>
      <point x="326" y="339"/>
      <point x="306" y="339" type="curve"/>
      <point x="306" y="281"/>
      <point x="306" y="339"/>
    </contour>
  </outline>
</glyph>
<glyph name="macron" format="1">
  <advance width="300"/>
  <unicode hex="00AF"/>
  <outline>
    <contour>
      <point x="228" y="679" type="curve"/>
      <point x="161" y="679"/>
      <point x="95" y="679"/>
      <point x="29" y="679" type="curve"/>
      <point x="29" y="609"/>
      <point x="29" y="679"/>
      <point x="29" y="609" type="curve"/>
      <point x="95" y="609"/>
      <point x="161" y="609"/>
      <point x="228" y="609" type="curve"/>
      <point x="228" y="679"/>
      <point x="228" y="609"/>
    </contour>
    <contour>
      <point x="130" y="609" type="move" name="_top"/>
    </contour>
  </outline>
</glyph>
<glyph name="degree" format="1">
  <advance width="462"/>
  <unicode hex="00B0"/>
  <outline>
    <contour>
      <point x="400" y="514" type="curve"/>
      <point x="400" y="629"/>
      <point x="341" y="707"/>
      <point x="230" y="707" type="curve"/>
      <point x="120" y="707"/>
      <point x="62" y="630"/>
      <point x="62" y="516" type="curve"/>
      <point x="110" y="516"/>
      <point x="91" y="516"/>
      <point x="138" y="516" type="curve"/>
      <point x="138" y="587"/>
      <point x="162" y="642"/>
      <point x="229" y="642" type="curve"/>
      <point x="295" y="642"/>
      <point x="322" y="587"/>
      <point x="322" y="514" type="curve"/>
      <point x="322" y="440"/>
      <point x="299" y="382"/>
      <point x="231" y="382" type="curve"/>
      <point x="162" y="382"/>
      <point x="138" y="441"/>
      <point x="138" y="516" type="curve"/>
      <point x="91" y="516"/>
      <point x="110" y="516"/>
      <point x="62" y="516" type="curve"/>
      <point x="62" y="398"/>
      <point x="118" y="317"/>
      <point x="230" y="317" type="curve"/>
      <point x="343" y="317"/>
      <point x="400" y="397"/>
    </contour>
  </outline>
</glyph>
<glyph name="plusminus" format="1">
  <advance width="668"/>
  <unicode hex="00B1"/>
  <outline>
    <contour>
      <point x="65" y="33" type="line"/>
      <point x="603" y="33" type="line"/>
      <point x="603" y="109" type="line"/>
      <point x="65" y="109" type="line"/>
    </contour>
    <contour>
      <point x="65" y="274" type="curve"/>
      <point x="603" y="274" type="line"/>
      <point x="603" y="350"/>
      <point x="603" y="274"/>
      <point x="603" y="350" type="curve"/>
      <point x="65" y="350" type="line"/>
      <point x="65" y="274"/>
      <point x="65" y="350"/>
    </contour>
    <contour>
      <point x="376" y="34" type="curve"/>
      <point x="376" y="584" type="line"/>
      <point x="287" y="584"/>
      <point x="382" y="584"/>
      <point x="292" y="584" type="curve"/>
      <point x="292" y="34" type="line"/>
      <point x="382" y="34"/>
      <point x="287" y="34"/>
    </contour>
  </outline>
</glyph>
<glyph name="twosuperior" format="1">
  <advance width="456"/>
  <unicode hex="00B2"/>
  <outline>
    <contour>
      <point x="389" y="324" type="curve"/>
      <point x="389" y="366"/>
      <point x="389" y="398"/>
      <point x="389" y="441" type="curve"/>
      <point x="322" y="441"/>
      <point x="397" y="441"/>
      <point x="330" y="441" type="curve"/>
      <point x="330" y="419"/>
      <point x="330" y="407"/>
      <point x="330" y="385" type="curve"/>
      <point x="398" y="326"/>
      <point x="320" y="383"/>
    </contour>
    <contour>
      <point x="70" y="324" type="curve"/>
      <point x="183" y="324"/>
      <point x="293" y="324"/>
      <point x="389" y="324" type="curve"/>
      <point x="320" y="383"/>
      <point x="398" y="326"/>
      <point x="330" y="385" type="curve"/>
      <point x="246" y="385"/>
      <point x="154" y="385"/>
      <point x="70" y="385" type="curve"/>
      <point x="70" y="324"/>
      <point x="70" y="385"/>
    </contour>
    <contour>
      <point x="146" y="628" type="curve"/>
      <point x="165" y="664"/>
      <point x="186" y="690"/>
      <point x="227" y="690" type="curve"/>
      <point x="270" y="690"/>
      <point x="295" y="662"/>
      <point x="295" y="618" type="curve"/>
      <point x="295" y="576"/>
      <point x="268" y="554"/>
      <point x="238" y="524" type="curve"/>
      <point x="182" y="478"/>
      <point x="126" y="431"/>
      <point x="70" y="385" type="curve"/>
      <point x="75" y="325"/>
      <point x="71" y="385"/>
      <point x="76" y="325" type="curve"/>
      <point x="148" y="377"/>
      <point x="225" y="426"/>
      <point x="285" y="476" type="curve"/>
      <point x="333" y="521"/>
      <point x="371" y="556"/>
      <point x="371" y="621" type="curve"/>
      <point x="371" y="704"/>
      <point x="316" y="751"/>
      <point x="232" y="751" type="curve"/>
      <point x="164" y="751"/>
      <point x="117" y="723"/>
      <point x="90" y="654" type="curve"/>
      <point x="146" y="628"/>
      <point x="90" y="654"/>
    </contour>
    <contour>
      <point x="238" y="751" type="move" name="_top"/>
    </contour>
    <contour>
      <point x="224" y="324" type="move" name="_bottom"/>
    </contour>
  </outline>
</glyph>
<glyph name="threesuperior" format="1">
  <advance width="410"/>
  <unicode hex="00B3"/>
  <outline>
    <contour>
      <point x="111" y="652" type="curve"/>
      <point x="133" y="673"/>
      <point x="156" y="689"/>
      <point x="184" y="689" type="curve"/>
      <point x="226" y="689"/>
      <point x="253" y="668"/>
      <point x="253" y="627" type="curve"/>
      <point x="253" y="582"/>
      <point x="202" y="567"/>
      <point x="147" y="563" type="curve"/>
      <point x="147" y="512"/>
      <point x="147" y="563"/>
      <point x="147" y="512" type="curve"/>
      <point x="248" y="514"/>
      <point x="332" y="543"/>
      <point x="332" y="632" type="curve"/>
      <point x="332" y="711"/>
      <point x="275" y="749"/>
      <point x="192" y="749" type="curve" name=""/>
      <point x="143" y="749"/>
      <point x="99" y="727"/>
      <point x="68" y="692" type="curve"/>
      <point x="111" y="652"/>
      <point x="68" y="692"/>
    </contour>
    <contour>
      <point x="66" y="353" type="curve"/>
      <point x="100" y="331"/>
      <point x="136" y="318"/>
      <point x="177" y="318" type="curve"/>
      <point x="276" y="315"/>
      <point x="347" y="353"/>
      <point x="346" y="444" type="curve"/>
      <point x="346" y="537"/>
      <point x="252" y="552"/>
      <point x="147" y="555" type="curve"/>
      <point x="147" y="510"/>
      <point x="147" y="555"/>
      <point x="147" y="510" type="curve"/>
      <point x="212" y="506"/>
      <point x="267" y="491"/>
      <point x="267" y="442" type="curve"/>
      <point x="267" y="397"/>
      <point x="233" y="376"/>
      <point x="184" y="377" type="curve"/>
      <point x="156" y="377"/>
      <point x="129" y="384"/>
      <point x="102" y="400" type="curve"/>
      <point x="66" y="353"/>
      <point x="102" y="400"/>
    </contour>
    <contour>
      <point x="206" y="749" type="move" name="_top"/>
    </contour>
    <contour>
      <point x="197" y="318" type="move" name="_bottom"/>
    </contour>
  </outline>
</glyph>
<glyph name="paragraph" format="1">
  <advance width="719"/>
  <unicode hex="00B6"/>
  <outline>
    <contour>
      <point x="406" y="652" type="curve"/>
      <point x="557" y="652"/>
      <point x="406" y="652"/>
      <point x="557" y="652" type="curve"/>
      <point x="557" y="722"/>
      <point x="557" y="652"/>
      <point x="557" y="722" type="curve"/>
      <point x="507" y="722"/>
      <point x="456" y="722"/>
      <point x="406" y="722" type="curve"/>
      <point x="406" y="652"/>
      <point x="406" y="722"/>
    </contour>
    <contour>
      <point x="406" y="0" type="curve"/>
      <point x="456" y="0"/>
      <point x="507" y="0"/>
      <point x="557" y="0" type="curve"/>
      <point x="557" y="70"/>
      <point x="557" y="0"/>
      <point x="557" y="70" type="curve"/>
      <point x="406" y="70"/>
      <point x="557" y="70"/>
      <point x="406" y="70" type="curve"/>
      <point x="406" y="0"/>
      <point x="406" y="70"/>
    </contour>
    <contour>
      <point x="406" y="70" type="curve"/>
      <point x="265" y="70"/>
      <point x="406" y="70"/>
      <point x="265" y="70" type="curve"/>
      <point x="265" y="0"/>
      <point x="265" y="70"/>
      <point x="265" y="0" type="curve"/>
      <point x="406" y="0"/>
      <point x="359" y="0"/>
      <point x="406" y="0" type="curve"/>
      <point x="406" y="70"/>
      <point x="406" y="0"/>
    </contour>
    <contour>
      <point x="390" y="369" type="curve"/>
      <point x="347" y="346"/>
      <point x="314" y="332"/>
      <point x="264" y="332" type="curve"/>
      <point x="179" y="332"/>
      <point x="131" y="393"/>
      <point x="131" y="483" type="curve"/>
      <point x="131" y="586"/>
      <point x="194" y="652"/>
      <point x="297" y="652" type="curve"/>
      <point x="333" y="652"/>
      <point x="368" y="652"/>
      <point x="403" y="652" type="curve"/>
      <point x="403" y="722"/>
      <point x="403" y="652"/>
      <point x="403" y="722" type="curve"/>
      <point x="364" y="722"/>
      <point x="325" y="722"/>
      <point x="285" y="722" type="curve"/>
      <point x="138" y="722"/>
      <point x="41" y="631"/>
      <point x="41" y="486" type="curve"/>
      <point x="41" y="346"/>
      <point x="132" y="266"/>
      <point x="272" y="264" type="curve"/>
      <point x="327" y="264"/>
      <point x="372" y="284"/>
      <point x="419" y="309" type="curve"/>
      <point x="390" y="369"/>
      <point x="418" y="311"/>
    </contour>
    <contour>
      <point x="452" y="0" type="curve"/>
      <point x="452" y="241"/>
      <point x="452" y="481"/>
      <point x="452" y="722" type="curve"/>
      <point x="362" y="722"/>
      <point x="452" y="722"/>
      <point x="362" y="722" type="curve"/>
      <point x="362" y="481"/>
      <point x="362" y="241"/>
      <point x="362" y="0" type="curve"/>
      <point x="452" y="0"/>
      <point x="362" y="0"/>
    </contour>
    <contour>
      <point x="637" y="0" type="curve"/>
      <point x="637" y="241"/>
      <point x="637" y="481"/>
      <point x="637" y="722" type="curve"/>
      <point x="547" y="722"/>
      <point x="637" y="722"/>
      <point x="547" y="722" type="curve"/>
      <point x="547" y="481"/>
      <point x="547" y="241"/>
      <point x="547" y="0" type="curve"/>
      <point x="637" y="0"/>
      <point x="547" y="0"/>
    </contour>
  </outline>
</glyph>
<glyph name="periodcentered" format="1">
  <advance width="240"/>
  <unicode hex="00B7"/>
  <outline>
    <contour>
      <point x="171" y="440" type="curve"/>
      <point x="171" y="471"/>
      <point x="149" y="487"/>
      <point x="119" y="487" type="curve"/>
      <point x="89" y="487"/>
      <point x="69" y="470"/>
      <point x="69" y="440" type="curve"/>
      <point x="168" y="440"/>
      <point x="72" y="440"/>
      <point x="171" y="440" type="curve"/>
      <point x="171" y="408"/>
      <point x="149" y="394"/>
      <point x="119" y="394" type="curve"/>
      <point x="88" y="394"/>
      <point x="69" y="409"/>
      <point x="69" y="440" type="curve"/>
      <point x="168" y="440"/>
      <point x="72" y="440"/>
    </contour>
  </outline>
</glyph>
<glyph name="cedilla" format="1">
  <advance width="351"/>
  <unicode hex="00B8"/>
  <outline>
    <contour>
      <point x="132" y="99" type="curve"/>
      <point x="119" y="75"/>
      <point x="86" y="10"/>
      <point x="74" y="-14" type="curve"/>
      <point x="135" y="-70"/>
      <point x="74" y="-14"/>
      <point x="135" y="-70" type="curve"/>
      <point x="149" y="-43"/>
      <point x="187" y="24"/>
      <point x="201" y="50" type="curve"/>
      <point x="132" y="99"/>
      <point x="201" y="50"/>
    </contour>
    <contour>
      <point x="135" y="-70" type="curve"/>
      <point x="144" y="-64"/>
      <point x="150" y="-60"/>
      <point x="161" y="-60" type="curve"/>
      <point x="180" y="-60"/>
      <point x="189" y="-73"/>
      <point x="189" y="-93" type="curve"/>
      <point x="189" y="-116"/>
      <point x="172" y="-127"/>
      <point x="148" y="-127" type="curve"/>
      <point x="126" y="-127"/>
      <point x="109" y="-123"/>
      <point x="88" y="-111" type="curve"/>
      <point x="56" y="-163"/>
      <point x="88" y="-111"/>
      <point x="56" y="-163" type="curve"/>
      <point x="85" y="-180"/>
      <point x="110" y="-188"/>
      <point x="144" y="-188" type="curve"/>
      <point x="209" y="-188"/>
      <point x="255" y="-156"/>
      <point x="255" y="-91" type="curve"/>
      <point x="255" y="-31"/>
      <point x="217" y="6"/>
      <point x="157" y="6" type="curve"/>
      <point x="125" y="6"/>
      <point x="103" y="0"/>
      <point x="74" y="-14" type="curve"/>
      <point x="135" y="-70"/>
      <point x="74" y="-14"/>
    </contour>
    <contour>
      <point x="193" y="50" type="move" name="_bottom"/>
    </contour>
  </outline>
</glyph>
